<svg width="144" height="144" viewBox="0 0 144 144" fill="none" xmlns="http://www.w3.org/2000/svg">
<g filter="url(#filter0_d_264_593)">
<circle cx="72" cy="55" r="29" fill="#F48C06"/>
</g>
<g clip-path="url(#clip0_264_593)">
<path d="M65.0373 41.08C64.4881 41.08 64.043 41.5251 64.043 42.0743V44.0628H66.0315V42.0743C66.0315 41.5251 65.5864 41.08 65.0373 41.08Z" fill="#F5F5FC"/>
<path d="M78.9591 41.08C78.41 41.08 77.9648 41.5251 77.9648 42.0743V44.0628H79.9534V42.0743C79.9535 41.5251 79.5083 41.08 78.9591 41.08Z" fill="#F5F5FC"/>
<path d="M82.9353 44.0627H79.9524V48.0399C79.9524 48.5891 79.5073 49.0342 78.9581 49.0342C78.409 49.0342 77.9638 48.5891 77.9638 48.0399V44.0627H66.0324V48.0399C66.0324 48.5891 65.5872 49.0342 65.0381 49.0342C64.4889 49.0342 64.0438 48.5891 64.0438 48.0399V44.0627H61.061C59.4136 44.0627 58.0781 45.3982 58.0781 47.0456V65.937C58.0781 67.5844 59.4136 68.9199 61.061 68.9199H82.9353C84.5827 68.9199 85.9181 67.5844 85.9181 65.937V47.0456C85.9181 45.3982 84.5827 44.0627 82.9353 44.0627ZM83.9295 65.937C83.9295 66.4862 83.4844 66.9313 82.9352 66.9313H61.061C60.5118 66.9313 60.0667 66.4862 60.0667 65.937V53.0113H83.9295V65.937Z" fill="#F5F5FC"/>
<path d="M66.0336 55H64.0451C63.4959 55 63.0508 55.4452 63.0508 55.9943C63.0508 56.5435 63.4959 56.9886 64.0451 56.9886H66.0336C66.5828 56.9886 67.0279 56.5435 67.0279 55.9943C67.0279 55.4452 66.5828 55 66.0336 55Z" fill="#F5F5FC"/>
<path d="M72.9907 55H71.0021C70.453 55 70.0078 55.4452 70.0078 55.9943C70.0078 56.5435 70.453 56.9886 71.0021 56.9886H72.9907C73.5398 56.9886 73.985 56.5435 73.985 55.9943C73.985 55.4452 73.5398 55 72.9907 55Z" fill="#F5F5FC"/>
<path d="M79.9516 55H77.9631C77.4139 55 76.9688 55.4452 76.9688 55.9943C76.9688 56.5435 77.4139 56.9886 77.9631 56.9886H79.9516C80.5008 56.9886 80.9459 56.5435 80.9459 55.9943C80.9459 55.4452 80.5007 55 79.9516 55Z" fill="#F5F5FC"/>
<path d="M66.0336 58.9773H64.0451C63.4959 58.9773 63.0508 59.4225 63.0508 59.9716C63.0508 60.5207 63.4959 60.9659 64.0451 60.9659H66.0336C66.5828 60.9659 67.0279 60.5207 67.0279 59.9716C67.0279 59.4225 66.5828 58.9773 66.0336 58.9773Z" fill="#F5F5FC"/>
<path d="M72.9907 58.9773H71.0021C70.453 58.9773 70.0078 59.4225 70.0078 59.9716C70.0078 60.5207 70.453 60.9659 71.0021 60.9659H72.9907C73.5398 60.9659 73.985 60.5207 73.985 59.9716C73.985 59.4225 73.5398 58.9773 72.9907 58.9773Z" fill="#F5F5FC"/>
<path d="M79.9516 58.9773H77.9631C77.4139 58.9773 76.9688 59.4225 76.9688 59.9716C76.9688 60.5207 77.4139 60.9659 77.9631 60.9659H79.9516C80.5008 60.9659 80.9459 60.5207 80.9459 59.9716C80.9459 59.4225 80.5007 58.9773 79.9516 58.9773Z" fill="#F5F5FC"/>
<path d="M66.0336 62.9542H64.0451C63.4959 62.9542 63.0508 63.3994 63.0508 63.9485C63.0508 64.4977 63.4959 64.9428 64.0451 64.9428H66.0336C66.5828 64.9428 67.0279 64.4976 67.0279 63.9485C67.0279 63.3993 66.5828 62.9542 66.0336 62.9542Z" fill="#F5F5FC"/>
<path d="M72.9907 62.9542H71.0021C70.453 62.9542 70.0078 63.3994 70.0078 63.9485C70.0078 64.4977 70.453 64.9428 71.0021 64.9428H72.9907C73.5398 64.9428 73.985 64.4977 73.985 63.9485C73.985 63.3994 73.5398 62.9542 72.9907 62.9542Z" fill="#F5F5FC"/>
<path d="M79.9516 62.9542H77.9631C77.4139 62.9542 76.9688 63.3994 76.9688 63.9485C76.9688 64.4977 77.4139 64.9428 77.9631 64.9428H79.9516C80.5008 64.9428 80.9459 64.4977 80.9459 63.9485C80.9459 63.3994 80.5007 62.9542 79.9516 62.9542Z" fill="#F5F5FC"/>
</g>
<defs>
<filter id="filter0_d_264_593" x="0.750008" y="0.650005" width="142.5" height="142.5" filterUnits="userSpaceOnUse" color-interpolation-filters="sRGB">
<feFlood flood-opacity="0" result="BackgroundImageFix"/>
<feColorMatrix in="SourceAlpha" type="matrix" values="0 0 0 0 0 0 0 0 0 0 0 0 0 0 0 0 0 0 127 0" result="hardAlpha"/>
<feOffset dy="16.9"/>
<feGaussianBlur stdDeviation="21.125"/>
<feColorMatrix type="matrix" values="0 0 0 0 0.146118 0 0 0 0 0.172389 0 0 0 0 0.441667 0 0 0 0.1 0"/>
<feBlend mode="normal" in2="BackgroundImageFix" result="effect1_dropShadow_264_593"/>
<feBlend mode="normal" in="SourceGraphic" in2="effect1_dropShadow_264_593" result="shape"/>
</filter>
<clipPath id="clip0_264_593">
<rect width="27.84" height="27.84" fill="white" transform="translate(58.0781 41.08)"/>
</clipPath>
</defs>
</svg>
