<svg width="72" height="73" viewBox="0 0 72 73" fill="none" xmlns="http://www.w3.org/2000/svg">
<path d="M70.941 31.298C69.5216 22.1439 68.3822 15.8177 63.2569 12.3513C54.6117 6.50412 44.9565 15.9963 32.7102 9.62695C26.6805 6.49082 26.4545 2.85483 21.348 2.37227C12.3133 1.51851 4.91442 12.1421 4.27335 13.0533C0.377514 18.5889 -0.923939 25.3387 0.655413 31.774C1.68123 35.9538 2.37447 40.2795 2.1841 44.5746C1.85303 52.0495 2.04365 59.0268 9.40593 63.4847C15.9797 67.465 24.2526 70.9756 32.1451 71.5904C37.509 72.0082 43.5239 71.332 48.6936 69.9561C75.0395 62.9437 72.8925 43.8846 70.9412 31.2982L70.941 31.298Z" fill="#F4F7FA"/>
<path d="M45.586 69.5283C42.0135 66.3131 42.0729 60.2137 44.0965 58.7683C45.1489 58.0166 46.2971 58.835 47.28 57.9055C48.3688 56.8759 47.4977 55.3623 47.9609 52.273C48.2005 50.6769 48.6346 47.7823 50.4327 46.9195C52.2157 46.064 53.5623 48.0597 55.5317 47.2453C57.3939 46.4753 56.8976 44.3981 59.2419 42.7515C59.4598 42.5983 61.9343 40.9046 63.686 41.8481C65.4658 42.8067 65.8708 46.1485 64.7096 48.1164C63.6544 49.9041 61.6163 50.0323 61.6266 51.1436C61.6379 52.3686 64.1166 52.6144 64.2491 53.8717C64.4404 55.6891 59.4014 56.5012 59.0167 59.307C58.7907 60.9568 60.4317 61.4156 60.6013 63.5429C60.8202 66.2886 58.355 68.8955 56.3117 70.1192C53.3504 71.8929 48.6825 72.3145 45.586 69.528V69.5283Z" fill="url(#paint0_linear_225_17671)"/>
<mask id="mask0_225_17671" style="mask-type:luminance" maskUnits="userSpaceOnUse" x="42" y="41" width="24" height="31">
<path d="M45.586 69.5283C42.0135 66.3131 42.0729 60.2137 44.0965 58.7683C45.1489 58.0166 46.2971 58.835 47.28 57.9055C48.3688 56.8759 47.4977 55.3623 47.9609 52.273C48.2005 50.6769 48.6346 47.7823 50.4327 46.9195C52.2157 46.064 53.5623 48.0597 55.5317 47.2453C57.3939 46.4753 56.8976 44.3981 59.2419 42.7515C59.4598 42.5983 61.9343 40.9046 63.686 41.8481C65.4658 42.8067 65.8708 46.1485 64.7096 48.1164C63.6544 49.9041 61.6163 50.0323 61.6266 51.1436C61.6379 52.3686 64.1166 52.6144 64.2491 53.8717C64.4404 55.6891 59.4014 56.5012 59.0167 59.307C58.7907 60.9568 60.4317 61.4156 60.6013 63.5429C60.8202 66.2886 58.355 68.8955 56.3117 70.1192C53.3504 71.8929 48.6825 72.3145 45.586 69.528V69.5283Z" fill="white"/>
</mask>
<g mask="url(#mask0_225_17671)">
<g style="mix-blend-mode:soft-light" opacity="0.8">
<path d="M47.3017 72.3507L47.1587 72.2981C49.2003 66.7639 51.4353 61.6625 53.8014 57.1356C55.6948 53.5131 57.6759 50.2483 59.6899 47.4315C63.122 42.6315 65.4939 40.7717 65.5173 40.7537L65.6106 40.874C65.5872 40.8921 63.2279 42.7431 59.8073 47.5291C56.6501 51.9466 51.9176 59.8388 47.3014 72.351L47.3017 72.3507Z" fill="white"/>
<path d="M59.3772 47.9034C59.0158 43.1957 60.9172 39.5827 60.9365 39.5469L61.0707 39.6189C61.0516 39.6545 59.1713 43.2303 59.529 47.8918L59.377 47.9034H59.3772Z" fill="white"/>
<path d="M53.4491 57.7775C51.4795 53.0259 51.0982 49.7609 51.1253 47.8585C51.1549 45.7863 51.6483 44.8543 51.6691 44.8157L51.803 44.8882C51.798 44.8974 51.3037 45.8365 51.2773 47.8776C51.253 49.7637 51.6342 53.0019 53.5895 57.7191L53.4488 57.7775H53.4491Z" fill="white"/>
<path d="M49.001 67.6429C43.7786 60.3225 44.1039 55.0305 44.1077 54.9778L44.2597 54.9891C44.2587 55.0024 44.1784 56.3743 44.7746 58.6589C45.2995 60.6707 46.4803 63.8469 49.1251 67.5544L49.0012 67.6429H49.001Z" fill="white"/>
<path d="M55.8392 56.5407C55.313 56.5753 54.776 56.582 54.2305 56.5547L54.238 56.4025C57.8025 56.5798 61.0164 55.2986 63.0846 54.1926C65.3266 52.9934 66.7411 51.7379 66.7549 51.7253L66.8565 51.839C66.8425 51.8515 65.4143 53.1194 63.1563 54.327C61.3871 55.2731 58.7854 56.3465 55.8389 56.5407H55.8392Z" fill="white"/>
<path d="M50.7037 65.8166C50.4195 65.8354 50.1309 65.8442 49.8374 65.8427L49.8384 65.6905C53.5592 65.7118 56.5408 63.9927 58.387 62.5471C60.389 60.9793 61.5227 59.3881 61.5339 59.3723L61.6583 59.4601C61.6471 59.4761 60.5004 61.0856 58.4811 62.667C56.7613 64.0138 54.0648 65.5954 50.704 65.8169L50.7037 65.8166Z" fill="white"/>
</g>
</g>
<path d="M69.2854 18.427H65.991C65.7234 18.427 65.5065 18.6608 65.5065 18.9284C65.5065 19.196 65.7234 19.4297 65.991 19.4297H67.9473L53.9923 32.3186L45.2036 24.2671C45.015 24.0946 44.7251 24.0978 44.5407 24.2749L27.7146 40.4416L20.4085 33.5461C20.2177 33.366 19.9179 33.3705 19.7326 33.5566L2.43997 50.933C2.25111 51.1226 2.25187 51.4294 2.44173 51.6182C2.53628 51.7123 2.65993 51.7594 2.78358 51.7594C2.90723 51.7594 3.03239 51.7118 3.12694 51.6167L20.0867 34.5747L27.3853 41.4629C27.5732 41.6402 27.8671 41.639 28.0535 41.4599L44.8846 25.2884L53.6667 33.3337C53.8523 33.5037 54.1274 33.5032 54.3125 33.3324L68.781 19.9595V22.0449C68.781 22.3126 69.0148 22.5295 69.2824 22.5295C69.55 22.5295 69.7838 22.3126 69.7838 22.0449V18.9444C69.7838 18.6768 69.5533 18.4273 69.2859 18.4273L69.2854 18.427Z" fill="#97A6B7"/>
<path d="M20.2692 36.0126C21.3024 36.0126 22.14 35.175 22.14 34.1418C22.14 33.1086 21.3024 32.271 20.2692 32.271C19.236 32.271 18.3984 33.1086 18.3984 34.1418C18.3984 35.175 19.236 36.0126 20.2692 36.0126Z" fill="#D8DEE8"/>
<path d="M29.053 42.1507C29.7836 41.4201 29.7836 40.2356 29.053 39.505C28.3224 38.7744 27.1379 38.7744 26.4073 39.505C25.6767 40.2356 25.6767 41.4201 26.4073 42.1507C27.1379 42.8813 28.3224 42.8813 29.053 42.1507Z" fill="#D8DEE8"/>
<path d="M44.9777 26.9049C46.0109 26.9049 46.8485 26.0673 46.8485 25.0341C46.8485 24.0009 46.0109 23.1633 44.9777 23.1633C43.9445 23.1633 43.1069 24.0009 43.1069 25.0341C43.1069 26.0673 43.9445 26.9049 44.9777 26.9049Z" fill="#D8DEE8"/>
<path d="M55.4158 33.6537C56.1464 32.9231 56.1464 31.7386 55.4158 31.008C54.6852 30.2774 53.5007 30.2774 52.7701 31.008C52.0395 31.7385 52.0395 32.9231 52.7701 33.6537C53.5007 34.3843 54.6852 34.3842 55.4158 33.6537Z" fill="#D8DEE8"/>
<path d="M16.9165 66.3525V70.2261C16.9165 71.4778 24.7353 72.4924 34.3804 72.4924C44.0256 72.4924 51.8443 71.4778 51.8443 70.2261V66.3525H16.9165Z" fill="url(#paint1_linear_225_17671)"/>
<path d="M34.3799 68.6188C44.025 68.6188 51.8438 67.6042 51.8438 66.3525C51.8438 65.1009 44.025 64.0862 34.3799 64.0862C24.7349 64.0862 16.916 65.1009 16.916 66.3525C16.916 67.6042 24.7349 68.6188 34.3799 68.6188Z" fill="url(#paint2_linear_225_17671)"/>
<path d="M34.3797 68.7752C25.8379 68.7752 16.9058 67.9593 16.9058 66.3857C16.9058 66.2992 16.9366 66.1475 17.0229 66.1475C17.1092 66.1475 17.072 66.2663 17.072 66.3526C17.072 67.3506 24.18 68.4624 34.3795 68.4624C44.5789 68.4624 51.6869 67.3506 51.6869 66.3526C51.6869 66.2661 51.7017 66.1853 51.788 66.1853C51.8742 66.1853 51.8537 66.3007 51.8537 66.387C51.8537 67.9606 42.9213 68.7752 34.3795 68.7752H34.3797Z" fill="url(#paint3_linear_225_17671)"/>
<path d="M32.7299 66.4789C32.9012 66.3603 33.0835 66.2434 33.2787 66.1278C33.472 66.0124 33.7238 65.9081 34.0288 65.815C34.3356 65.722 34.7193 65.6462 35.18 65.5873C35.6408 65.5286 36.2166 65.4975 36.9044 65.4942C37.5793 65.491 38.2123 65.5123 38.8053 65.5587C39.3964 65.6046 39.9178 65.6738 40.3683 65.7656C40.817 65.8574 41.1832 65.971 41.4656 66.1059C41.746 66.2414 41.9133 66.3961 41.9672 66.5709L43.9336 66.5908C44.0763 66.5915 44.2024 66.6033 44.3105 66.6256C44.4204 66.6479 44.4736 66.6763 44.4738 66.7107L44.4746 66.8727L41.9467 66.8483C41.8581 67.0467 41.6321 67.2281 41.269 67.3926C40.9075 67.5574 40.4456 67.6996 39.8827 67.8202L38.962 67.6923C38.8797 67.6798 38.812 67.6637 38.7589 67.6442C38.7057 67.6249 38.6801 67.6038 38.6798 67.5807C38.6798 67.5496 38.7508 67.514 38.8933 67.4744C39.0357 67.4342 39.1965 67.3848 39.3753 67.3259C39.5542 67.2672 39.7295 67.1975 39.9028 67.1172C40.0744 67.0372 40.1892 66.9414 40.2489 66.8298L34.2819 66.7706C34.1251 66.886 33.9483 66.9993 33.7549 67.1107C33.5598 67.2221 33.3022 67.3224 32.9809 67.4114C32.6594 67.5005 32.2591 67.5727 31.7803 67.6284C31.2995 67.6838 30.6978 67.7134 29.97 67.7169C29.4229 67.7197 28.8907 67.6988 28.3693 67.6549C27.8476 67.6108 27.3846 67.5448 26.9801 67.4568C26.5755 67.3688 26.2439 67.2599 25.9833 67.1305C25.7247 67.0008 25.5795 66.8519 25.5494 66.6836L23.9305 66.667C23.7877 66.666 23.6616 66.655 23.548 66.6334C23.4364 66.6118 23.3794 66.583 23.3792 66.5471L23.3784 66.3853L25.5918 66.4064C25.6899 66.2359 25.8903 66.0871 26.197 65.9607C26.5038 65.8341 26.8782 65.7215 27.3202 65.6229L28.0615 65.7247C28.2868 65.7563 28.3984 65.7934 28.3986 65.8358C28.3986 65.8589 28.3532 65.8872 28.2599 65.9211C28.1649 65.9552 28.0555 65.9958 27.9276 66.043C27.8017 66.0904 27.6776 66.1456 27.5589 66.2093C27.4385 66.2727 27.3492 66.3447 27.2893 66.4252L32.7294 66.4794L32.7299 66.4789ZM27.2692 66.6996C27.3136 66.8057 27.413 66.8973 27.5632 66.974C27.7134 67.051 27.9005 67.1142 28.1258 67.1639C28.351 67.2135 28.6035 67.2496 28.8835 67.273C29.1654 67.296 29.4598 67.3071 29.7671 67.3056C30.1255 67.3038 30.4382 67.2883 30.7051 67.2592C30.9702 67.2298 31.2042 67.1904 31.4069 67.1403C31.6078 67.0901 31.7851 67.0322 31.9346 66.966C32.0843 66.8998 32.2175 66.828 32.3379 66.7505L27.269 66.6994L27.2692 66.6996ZM40.259 66.5549C40.2146 66.4473 40.1062 66.353 39.9374 66.272C39.7686 66.1912 39.5527 66.123 39.2908 66.0678C39.029 66.0126 38.7232 65.9715 38.3739 65.9447C38.0262 65.9178 37.642 65.9053 37.2214 65.9073C36.8482 65.9091 36.5246 65.9259 36.2558 65.9575C35.9869 65.9891 35.7531 66.0315 35.554 66.0849C35.3566 66.138 35.1868 66.2003 35.0501 66.2712C34.9114 66.3422 34.782 66.418 34.6634 66.499L40.259 66.5549Z" fill="#FCB048"/>
<path d="M34.3825 64.3315C26.5956 64.3315 18.4879 65.0168 17.1909 66.343C17.2416 66.3899 17.2887 66.4399 17.3326 66.4923C18.4257 65.5713 25.1205 64.6441 34.3825 64.6441C43.6444 64.6441 50.6844 65.6197 51.5083 66.5633C51.5487 66.5116 51.592 66.4619 51.639 66.4153C50.5677 65.0418 42.3078 64.3313 34.3827 64.3313L34.3825 64.3315Z" fill="url(#paint4_linear_225_17671)"/>
<path d="M19.3765 61.0164V64.8899C19.3765 66.1417 27.1952 67.1562 36.8404 67.1562C46.4855 67.1562 54.3043 66.1417 54.3043 64.8899V61.0164H19.3765Z" fill="url(#paint5_linear_225_17671)"/>
<path d="M36.8404 63.2826C46.4854 63.2826 54.3043 62.268 54.3043 61.0163C54.3043 59.7647 46.4854 58.75 36.8404 58.75C27.1953 58.75 19.3765 59.7647 19.3765 61.0163C19.3765 62.268 27.1953 63.2826 36.8404 63.2826Z" fill="url(#paint6_linear_225_17671)"/>
<path d="M36.8402 63.439C28.2983 63.439 19.3662 62.6231 19.3662 61.0495C19.3662 60.963 19.3971 60.8113 19.4836 60.8113C19.5701 60.8113 19.5327 60.9302 19.5327 61.0164C19.5327 62.0144 26.6407 63.1263 36.8402 63.1263C47.0396 63.1263 54.1476 62.0144 54.1476 61.0164C54.1476 60.9299 54.1624 60.8492 54.2486 60.8492C54.3349 60.8492 54.3141 60.9645 54.3141 61.0508C54.3141 62.6244 45.3818 63.439 36.8399 63.439H36.8402Z" fill="url(#paint7_linear_225_17671)"/>
<path d="M35.1898 61.143C35.3611 61.0243 35.5435 60.9075 35.7386 60.7918C35.932 60.6765 36.1838 60.5721 36.4888 60.4791C36.7955 60.386 37.1793 60.3103 37.64 60.2513C38.1007 60.1926 38.6766 60.1615 39.3643 60.1583C40.0393 60.155 40.6723 60.1763 41.2652 60.2227C41.8564 60.2686 42.3778 60.3379 42.8283 60.4297C43.277 60.5215 43.6431 60.6351 43.9256 60.77C44.206 60.9054 44.3733 61.0602 44.4272 61.235L46.3935 61.2548C46.5362 61.2556 46.6624 61.2674 46.7705 61.2897C46.8804 61.312 46.9335 61.3404 46.9338 61.3747L46.9345 61.5367L44.4066 61.5124C44.3181 61.7108 44.0921 61.8921 43.7289 62.0567C43.3675 62.2214 42.9055 62.3637 42.3427 62.4843L41.422 62.3564C41.3397 62.3438 41.272 62.3278 41.2188 62.3082C41.1656 62.2889 41.1401 62.2678 41.1398 62.2448C41.1398 62.2137 41.2108 62.1781 41.3532 62.1384C41.4957 62.0983 41.6565 62.0489 41.8353 61.9899C42.0144 61.9313 42.1894 61.8615 42.3628 61.7813C42.5343 61.7013 42.6492 61.6055 42.7089 61.4938L36.7421 61.4347C36.5853 61.55 36.4085 61.6634 36.2151 61.7748C36.02 61.8861 35.7624 61.9864 35.4411 62.0755C35.1196 62.1645 34.7193 62.2367 34.2405 62.2924C33.7597 62.3479 33.158 62.3774 32.4302 62.381C31.8832 62.3837 31.3509 62.3629 30.8293 62.319C30.3078 62.2749 29.8446 62.2089 29.44 62.1209C29.0355 62.0328 28.7039 61.924 28.4433 61.7946C28.1847 61.6649 28.0395 61.5159 28.0094 61.3476L26.3904 61.3311C26.2477 61.3301 26.1215 61.319 26.0079 61.2975C25.8963 61.2759 25.8394 61.2471 25.8391 61.2112L25.8384 61.0494L28.0518 61.0705C28.1498 60.8999 28.3502 60.7512 28.657 60.6248C28.9637 60.4981 29.3382 60.3855 29.7801 60.2869L30.5215 60.3888C30.7467 60.4204 30.8583 60.4575 30.8586 60.4999C30.8586 60.523 30.8132 60.5513 30.7199 60.5852C30.6248 60.6193 30.5155 60.6599 30.3876 60.7071C30.2617 60.7545 30.1375 60.8096 30.0189 60.8733C29.8985 60.9368 29.8092 61.0088 29.7493 61.0893L35.1893 61.1435L35.1898 61.143ZM29.7292 61.3637C29.7736 61.4698 29.8729 61.5613 30.0231 61.6381C30.1734 61.7151 30.3605 61.7783 30.5857 61.8279C30.8109 61.8776 31.0635 61.9137 31.3434 61.937C31.6253 61.9601 31.9198 61.9711 32.227 61.9696C32.5854 61.9679 32.8982 61.9523 33.165 61.9232C33.4302 61.8939 33.6642 61.8545 33.8668 61.8043C34.0677 61.7542 34.245 61.6962 34.3945 61.63C34.5443 61.5638 34.6774 61.4921 34.7976 61.4146L29.7289 61.3634L29.7292 61.3637ZM42.7189 61.219C42.6745 61.1114 42.5662 61.0171 42.3974 60.936C42.2288 60.8553 42.0126 60.7871 41.7508 60.7319C41.4889 60.6767 41.1834 60.6356 40.8338 60.6087C40.4862 60.5819 40.102 60.5694 39.6813 60.5714C39.3081 60.5731 38.9846 60.5899 38.7157 60.6215C38.4469 60.6531 38.2131 60.6955 38.014 60.7489C37.8166 60.8021 37.6468 60.8643 37.5101 60.9353C37.3714 61.0063 37.242 61.082 37.1236 61.163L42.7192 61.219H42.7189Z" fill="#FCB048"/>
<path d="M36.8424 58.9951C29.0555 58.9951 20.9478 59.6803 19.6509 61.0066C19.7015 61.0535 19.7489 61.1034 19.7926 61.1559C20.8856 60.2349 27.5805 59.3076 36.8424 59.3076C46.1043 59.3076 53.1443 60.2833 53.9682 61.2268C54.0086 61.1752 54.052 61.1255 54.0989 61.0789C53.0277 59.7054 44.7678 58.9949 36.8427 58.9949L36.8424 58.9951Z" fill="url(#paint8_linear_225_17671)"/>
<path d="M14.5728 58.0808V61.9543C14.5728 63.2061 22.3915 64.2206 32.0367 64.2206C41.6818 64.2206 49.5006 63.2059 49.5006 61.9543V58.0808H14.5728Z" fill="url(#paint9_linear_225_17671)"/>
<path d="M32.0367 60.3471C41.6817 60.3471 49.5006 59.3324 49.5006 58.0808C49.5006 56.8291 41.6817 55.8145 32.0367 55.8145C22.3916 55.8145 14.5728 56.8291 14.5728 58.0808C14.5728 59.3324 22.3916 60.3471 32.0367 60.3471Z" fill="url(#paint10_linear_225_17671)"/>
<path d="M32.0364 60.5035C23.4946 60.5035 14.5625 59.6876 14.5625 58.114C14.5625 58.0275 14.5933 57.8757 14.6799 57.8757C14.7664 57.8757 14.729 57.9946 14.729 58.0809C14.729 59.0789 21.837 60.1907 32.0364 60.1907C42.2359 60.1907 49.3439 59.0789 49.3439 58.0809C49.3439 57.9944 49.3587 57.9134 49.4449 57.9134C49.5312 57.9134 49.5106 58.0287 49.5106 58.115C49.5106 59.6886 40.5783 60.5032 32.0364 60.5032V60.5035Z" fill="url(#paint11_linear_225_17671)"/>
<path d="M30.3864 58.2074C30.5577 58.0888 30.74 57.9719 30.9351 57.8563C31.1285 57.7409 31.3803 57.6366 31.6853 57.5435C31.9921 57.4505 32.3758 57.3747 32.8365 57.3158C33.2973 57.2571 33.8731 57.226 34.5609 57.2227C35.2358 57.2195 35.8688 57.241 36.4615 57.2872C37.0527 57.3333 37.5741 57.4023 38.0245 57.4941C38.473 57.5859 38.8394 57.6995 39.1218 57.8345C39.4022 57.9699 39.5695 58.1246 39.6235 58.2995L41.5898 58.3193C41.7325 58.32 41.8587 58.3318 41.9668 58.3541C42.0766 58.3765 42.1298 58.4048 42.1301 58.4392L42.1308 58.6012L39.6029 58.5769C39.5144 58.775 39.2884 58.9566 38.9252 59.1211C38.5638 59.2859 38.1018 59.4281 37.539 59.5487L36.6182 59.4206C36.536 59.408 36.468 59.392 36.4151 59.3724C36.3619 59.3531 36.3361 59.332 36.3361 59.309C36.3361 59.2779 36.4071 59.2423 36.5495 59.2026C36.692 59.1625 36.8528 59.1131 37.0316 59.0542C37.2104 58.9955 37.3857 58.9257 37.5593 58.8455C37.7308 58.7655 37.8455 58.6697 37.9054 58.558L31.9386 58.4989C31.7819 58.6142 31.6051 58.7276 31.4117 58.839C31.2165 58.9503 30.959 59.0506 30.6377 59.1397C30.3161 59.2287 29.9161 59.3009 29.437 59.3566C28.9562 59.4121 28.3546 59.4416 27.6267 59.4452C27.0799 59.4479 26.5475 59.4271 26.026 59.3832C25.5046 59.3391 25.0413 59.2731 24.6368 59.1851C24.232 59.097 23.9004 58.9882 23.6401 58.8588C23.3815 58.7291 23.2363 58.5801 23.2062 58.4118L21.5872 58.3953C21.4445 58.3943 21.3183 58.3832 21.2047 58.3617C21.0931 58.3401 21.0362 58.3112 21.0359 58.2754L21.0352 58.1134L23.2486 58.1344C23.3466 57.9639 23.547 57.8151 23.8535 57.6887C24.1603 57.5621 24.5347 57.4495 24.9769 57.3509L25.7183 57.4527C25.9435 57.4843 26.0551 57.5214 26.0554 57.5638C26.0554 57.5867 26.01 57.6153 25.9167 57.6491C25.8219 57.6832 25.7123 57.7238 25.5844 57.771C25.4584 57.8184 25.3343 57.8736 25.2157 57.9373C25.0953 58.0007 25.006 58.0727 24.946 58.1532L30.3861 58.2074H30.3864ZM24.9257 58.4281C24.9701 58.5345 25.0694 58.6258 25.2197 58.7025C25.3702 58.7798 25.557 58.8427 25.7822 58.8924C26.0075 58.942 26.26 58.9782 26.5399 59.0015C26.8216 59.0246 27.1163 59.0356 27.4235 59.0341C27.782 59.0323 28.0947 59.0168 28.3616 58.9877C28.6267 58.9583 28.8607 58.919 29.0633 58.8688C29.2642 58.8186 29.4416 58.7607 29.591 58.6945C29.7408 58.6283 29.874 58.5565 29.9944 58.479L24.9255 58.4279L24.9257 58.4281ZM37.9154 58.2834C37.871 58.1758 37.7627 58.0815 37.5939 58.0005C37.4251 57.9197 37.2092 57.8515 36.9473 57.7963C36.6855 57.7412 36.3797 57.7 36.0303 57.6732C35.6827 57.6464 35.2985 57.6338 34.8779 57.6358C34.5047 57.6376 34.1811 57.6544 33.9123 57.686C33.6436 57.7176 33.4096 57.76 33.2105 57.8134C33.0134 57.8666 32.8433 57.9288 32.7066 57.9997C32.5679 58.0707 32.4385 58.1465 32.3199 58.2275L37.9154 58.2832V58.2834Z" fill="#FCB048"/>
<path d="M32.0392 56.0601C24.2523 56.0601 16.1446 56.7453 14.8477 58.0718C14.8983 58.1187 14.9455 58.1686 14.9894 58.221C16.0824 57.3001 22.7773 56.3728 32.0392 56.3728C41.3011 56.3728 48.3409 57.3482 49.165 58.292C49.2054 58.2404 49.2488 58.1907 49.2957 58.144C48.2245 56.7706 39.9645 56.0601 32.0394 56.0601H32.0392Z" fill="url(#paint12_linear_225_17671)"/>
<path d="M19.9805 52.0627V55.9363C19.9805 57.188 27.7992 58.2026 37.4444 58.2026C47.0895 58.2026 54.9083 57.1878 54.9083 55.9363V52.0627H19.9805Z" fill="url(#paint13_linear_225_17671)"/>
<path d="M37.4439 54.329C47.0889 54.329 54.9078 53.3144 54.9078 52.0627C54.9078 50.8111 47.0889 49.7964 37.4439 49.7964C27.7988 49.7964 19.98 50.8111 19.98 52.0627C19.98 53.3144 27.7988 54.329 37.4439 54.329Z" fill="url(#paint14_linear_225_17671)"/>
<path d="M37.4442 54.4854C28.9023 54.4854 19.9702 53.6695 19.9702 52.0959C19.9702 52.0094 20.0011 51.8577 20.0873 51.8577C20.1736 51.8577 20.1365 51.9766 20.1365 52.0628C20.1365 53.0608 27.2445 54.1726 37.4439 54.1726C47.6434 54.1726 54.7513 53.0608 54.7513 52.0628C54.7513 51.9763 54.7661 51.8955 54.8524 51.8955C54.9387 51.8955 54.9181 52.0109 54.9181 52.0972C54.9181 53.6708 45.9858 54.4854 37.4439 54.4854H37.4442Z" fill="url(#paint15_linear_225_17671)"/>
<path d="M35.7936 52.1891C35.9649 52.0705 36.1472 51.9536 36.3424 51.838C36.5357 51.7226 36.7876 51.6185 37.0925 51.5252C37.3993 51.4322 37.783 51.3564 38.2438 51.2975C38.7045 51.2388 39.2804 51.2077 39.9681 51.2044C40.643 51.2012 41.2761 51.2225 41.8687 51.2686C42.4599 51.3148 42.9813 51.3838 43.4318 51.4755C43.8805 51.5673 44.2467 51.681 44.5291 51.8159C44.8095 51.9513 44.9768 52.1061 45.0307 52.2809L46.997 52.3007C47.1397 52.3017 47.2659 52.3133 47.374 52.3356C47.4839 52.3579 47.537 52.3862 47.5373 52.4206L47.538 52.5826L45.0101 52.5583C44.9216 52.7567 44.6956 52.938 44.3324 53.1026C43.971 53.2673 43.509 53.4095 42.9462 53.5302L42.0255 53.4023C41.9432 53.3897 41.8752 53.3737 41.8223 53.3541C41.7691 53.3348 41.7436 53.3137 41.7433 53.2909C41.7433 53.2598 41.8143 53.2242 41.9568 53.1843C42.0992 53.1442 42.26 53.0948 42.4388 53.0358C42.6176 52.9771 42.793 52.9077 42.9665 52.8272C43.1381 52.7472 43.2529 52.6513 43.3126 52.5397L37.3459 52.4805C37.1891 52.5959 37.0123 52.7093 36.8189 52.8206C36.6238 52.932 36.3662 53.0323 36.0449 53.1214C35.7234 53.2104 35.3231 53.2826 34.8443 53.3383C34.3635 53.3937 33.7618 53.4233 33.0339 53.4269C32.4872 53.4296 31.9547 53.4088 31.4333 53.3649C30.9118 53.3208 30.4486 53.2548 30.044 53.167C29.6392 53.079 29.3076 52.9701 29.0473 52.8407C28.7887 52.711 28.6435 52.5621 28.6134 52.3938L26.9944 52.3772C26.8517 52.3762 26.7255 52.3652 26.6119 52.3436C26.5003 52.322 26.4434 52.2932 26.4431 52.2573L26.4424 52.0953L28.6558 52.1164C28.7538 51.9458 28.9542 51.7971 29.261 51.6707C29.5677 51.544 29.9422 51.4314 30.3841 51.3328L31.1255 51.4347C31.3507 51.4663 31.4624 51.5034 31.4626 51.5458C31.4626 51.5688 31.4172 51.5972 31.3239 51.631C31.2291 51.6652 31.1195 51.7058 30.9916 51.7529C30.8657 51.8003 30.7415 51.8555 30.6229 51.9192C30.5025 51.9827 30.4132 52.0547 30.3533 52.1352L35.7933 52.1894L35.7936 52.1891ZM30.333 52.4098C30.3773 52.5162 30.4767 52.6075 30.6269 52.6842C30.7771 52.7615 30.9642 52.8244 31.1892 52.8741C31.4144 52.9237 31.667 52.9598 31.9469 52.9832C32.2288 53.0062 32.5233 53.0173 32.8305 53.0158C33.1889 53.014 33.5017 52.9985 33.7686 52.9694C34.0337 52.94 34.2677 52.9007 34.4703 52.8505C34.6712 52.8003 34.8485 52.7424 34.998 52.6762C35.1478 52.61 35.2809 52.5382 35.4013 52.4607L30.3325 52.4096L30.333 52.4098ZM43.3227 52.2651C43.2783 52.1575 43.1699 52.0632 43.0011 51.9822C42.8323 51.9014 42.6164 51.8332 42.3545 51.778C42.0927 51.7228 41.787 51.6817 41.4376 51.6549C41.09 51.628 40.7057 51.6155 40.2851 51.6175C39.9119 51.6193 39.5884 51.6361 39.3195 51.6677C39.0509 51.6993 38.8169 51.7417 38.6177 51.7951C38.4203 51.8483 38.2505 51.9105 38.1138 51.9814C37.9751 52.0524 37.8457 52.1284 37.7271 52.2092L43.3227 52.2651Z" fill="#FCB048"/>
<path d="M37.4464 50.0417C29.6595 50.0417 21.5518 50.727 20.2549 52.0535C20.3055 52.1001 20.3527 52.1503 20.3966 52.2027C21.4896 51.2818 28.1845 50.3545 37.4464 50.3545C46.7083 50.3545 53.7481 51.3302 54.5722 52.2737C54.6126 52.222 54.656 52.1724 54.7029 52.1257C53.6317 50.7523 45.3718 50.0417 37.4467 50.0417H37.4464Z" fill="url(#paint16_linear_225_17671)"/>
<path d="M42.7834 12.3253L42.7375 11.6542C42.7375 11.6542 42.4968 11.4809 42.4614 11.2378L42.4258 10.9945C42.4258 10.9945 42.4546 10.7686 42.7694 10.6502C42.8406 10.6233 42.8966 10.5666 42.9171 10.4934C42.9793 10.2737 43.1072 9.82475 43.1434 9.71139C43.1674 9.63639 43.2344 9.56441 43.2963 9.51049C43.3385 9.47387 43.4032 9.50848 43.3947 9.56366L43.2457 10.5172C43.2457 10.5172 43.4516 10.5534 43.4458 10.7374C43.4458 10.7374 43.5632 10.9045 43.5128 11.0816C43.4624 11.2586 43.2582 11.6501 43.2582 11.6501L43.2562 12.3356L42.7834 12.3251V12.3253Z" fill="url(#paint17_linear_225_17671)"/>
<path d="M30.9435 18.9048C31.1243 18.1767 31.6161 17.5637 32.2858 17.2253C32.9555 16.8872 33.7392 16.8567 34.4327 17.1428C36.5887 18.0322 38.9107 17.807 40.461 16.5625C42.3651 15.034 42.4383 12.5033 42.4441 12.0657C42.8241 12.0734 43.2043 12.0812 43.5843 12.089C43.8045 12.7597 45.1223 16.9913 42.7524 20.4315C39.9827 24.4517 33.4573 25.7225 31.3929 23.2616C30.4606 22.1503 30.5652 20.4279 30.9432 18.905L30.9435 18.9048Z" fill="url(#paint18_linear_225_17671)"/>
<path d="M26.7823 52.2301C26.6669 52.3362 26.6596 52.584 26.6548 52.7457C26.6526 52.818 26.6516 52.8543 26.6611 52.8792C26.7311 53.061 27.0918 53.0585 27.6588 53.0818C28.5552 53.1184 28.8246 53.1724 28.886 53.0357C28.9437 52.9075 28.7732 52.7136 28.7541 52.6923C28.651 52.5777 28.5309 52.5408 28.2992 52.4799C27.8705 52.3673 27.5818 52.3088 27.4946 52.291C26.949 52.1804 26.8577 52.1604 26.782 52.2298L26.7823 52.2301Z" fill="url(#paint19_linear_225_17671)"/>
<path d="M27.4113 51.3364L27.4461 52.3567C27.4183 52.4044 27.1085 52.5353 26.8755 52.3964L26.6997 51.3858L27.4113 51.3364Z" fill="url(#paint20_linear_225_17671)"/>
<path d="M34.3326 52.0892C34.1786 52.2422 34.1294 52.5364 34.2483 52.6889C34.365 52.8389 34.5578 52.7413 35.0875 52.7855C35.6549 52.8329 35.7961 52.9748 36.1878 52.8891C36.3461 52.8542 36.6273 52.7644 36.628 52.6528C36.6285 52.5743 36.4903 52.5264 36.0303 52.3443C35.3772 52.086 35.3807 52.0739 35.2408 52.0431C34.8891 51.9653 34.5363 51.8873 34.3326 52.0892Z" fill="url(#paint21_linear_225_17671)"/>
<path d="M34.7466 51.1816L34.9808 52.145C34.9565 52.1947 34.6578 52.3489 34.4147 52.228L34.0405 51.2852L34.7463 51.1816H34.7466Z" fill="url(#paint22_linear_225_17671)"/>
<path d="M33.3229 30.2837C33.1935 33.472 33.2198 37.0658 33.5336 40.9858C33.8438 44.86 34.3805 48.3741 35.0056 51.4724C34.6366 51.5509 34.2679 51.6291 33.899 51.7076C33.0224 50.7982 31.9309 49.3819 31.4716 47.4384C31.1865 46.2322 31.3352 45.628 31.1922 44.1555C30.9645 41.8107 30.3167 40.5541 29.6799 38.6392C29.1078 36.9184 28.4569 34.403 28.2139 31.0742C29.9169 30.8106 31.6199 30.5473 33.3229 30.2837Z" fill="url(#paint23_linear_225_17671)"/>
<path style="mix-blend-mode:multiply" opacity="0.3" d="M32.8135 45.1835C32.4074 43.575 31.6249 43.1497 31.597 41.6315C31.5772 40.5575 31.9632 40.4697 31.9376 39.4419C31.8988 37.8829 30.9856 37.0653 30.5266 36.0846C30.042 35.0487 29.8562 33.3851 31.1624 30.6179C30.1795 30.7699 29.1968 30.9222 28.2139 31.0741C28.4569 34.4029 29.1078 36.9183 29.6799 38.6391C30.3167 40.554 30.9645 41.8108 31.1922 44.1554C31.3352 45.6279 31.1865 46.2321 31.4716 47.4383C31.9309 49.3818 33.0224 50.7981 33.899 51.7076C33.9928 51.6875 34.0866 51.6677 34.1804 51.6476C33.2328 50.5165 32.8985 49.5064 32.8135 48.6868C32.675 47.3532 33.223 46.8052 32.8135 45.1835Z" fill="url(#paint24_linear_225_17671)"/>
<path d="M29.6365 30.0841C29.1975 34.1244 28.794 38.242 28.4311 42.4352C28.1587 45.5819 27.9159 48.69 27.7012 51.7584C27.3272 51.7844 26.9535 51.8105 26.5796 51.8364C26.2563 51.1489 25.8342 50.102 25.5776 48.775C25.2658 47.1635 25.408 46.224 25.3223 44.5664C25.2257 42.7074 24.9639 42.2895 24.5861 39.9307C23.8197 35.1434 23.4364 32.75 24.6519 31.3387C25.0464 30.8804 26.2673 29.7435 29.6365 30.0838V30.0841Z" fill="url(#paint25_linear_225_17671)"/>
<path style="mix-blend-mode:multiply" opacity="0.3" d="M44.1334 16.1753C43.9152 16.6195 43.6566 16.9511 43.3965 17.2016C42.4555 18.1085 41.0324 18.4411 40.6986 19.7797C40.5318 20.4486 40.7743 20.818 40.4337 21.2068C39.9509 21.7581 39.1561 21.3668 37.9723 21.7054C36.9221 22.0059 36.6134 22.581 35.9786 22.9462C35.1188 23.4408 33.6174 23.5732 30.7988 22.0583C30.9107 22.5025 31.1 22.9123 31.3927 23.2612C33.4572 25.7224 39.9825 24.4515 42.7522 20.431C43.7065 19.0461 44.0622 17.5329 44.1332 16.175L44.1334 16.1753Z" fill="url(#paint26_linear_225_17671)"/>
<path d="M19.9534 17.5207C21.9729 16.836 25.0546 16.0773 28.8235 16.2326C31.0068 16.3226 32.8839 16.6971 34.371 17.1137C34.5721 18.2383 34.773 19.363 34.9742 20.4876C35.0203 21.6152 35.0353 23.1427 34.9087 24.9475C34.782 26.7521 34.6579 26.7794 34.3677 29.3266C33.8944 33.4801 34.0923 34.5651 33.2576 35.0639C32.7146 35.3885 32.5182 34.9967 29.7478 34.7221C27.89 34.538 26.942 34.4524 26.0012 34.7707C24.72 35.2041 24.2914 35.932 23.7629 35.6952C23.256 35.468 23.1916 34.5932 23.1304 33.0677C23.0361 30.7146 23.0419 29.1152 23.0331 28.5426C22.9932 25.9159 22.328 23.9101 21.476 21.3413C20.9433 19.7347 20.382 18.4345 19.9531 17.5205L19.9534 17.5207Z" fill="url(#paint27_linear_225_17671)"/>
<path d="M21.8168 28.5448L22.4854 28.5075C22.4854 28.5075 23.2181 27.8945 23.5514 27.9326C23.8847 27.9707 24.3836 28.2022 24.4443 28.2506C24.505 28.2993 24.2617 28.5709 24.0184 28.5446C23.7751 28.5183 23.2321 28.6494 23.135 28.8636C23.038 29.0778 22.6166 29.2075 22.5451 29.0816L21.6465 29.2599L21.8168 28.5443V28.5448Z" fill="url(#paint28_linear_225_17671)"/>
<path d="M22.0192 28.3111C22.0661 28.8596 21.9464 29.232 21.747 29.4876C20.8634 30.6198 17.8602 30.1568 16.0752 28.6404C14.754 27.5177 14.0544 25.7746 14.0803 24.2126C14.1307 21.1647 16.9553 18.1783 21.1569 17.1465C21.7789 19.0057 22.4007 20.8647 23.0227 22.724C20.4323 22.7636 18.8587 24.7162 19.092 26.1102C19.2658 27.1488 20.4769 28.0828 22.0189 28.3113L22.0192 28.3111Z" fill="url(#paint29_linear_225_17671)"/>
<path style="mix-blend-mode:multiply" opacity="0.3" d="M32.1803 33.7003C30.8177 33.119 30.8255 31.9156 29.5528 31.4135C27.7367 30.6969 25.7302 32.3615 25.417 31.9C25.0909 31.4197 27.4874 29.9467 27.1686 28.494C26.9153 27.3395 25.2424 27.5442 24.3465 25.9638C23.4965 24.4648 24.3207 23.0788 23.568 22.5578C23.2981 22.371 22.8221 22.2973 21.9194 22.6945C22.549 24.6604 23.0002 26.3937 23.0328 28.5427C23.0416 29.1153 23.0358 30.7147 23.1301 33.0678C23.1913 34.5932 23.2558 35.468 23.7626 35.6953C24.2911 35.932 24.7197 35.2042 26.0009 34.7708C26.9417 34.4525 27.8897 34.538 29.7475 34.7221C32.5179 34.9968 32.7143 35.3885 33.2573 35.064C33.611 34.8526 33.779 34.535 33.8914 33.9246C33.3361 33.9845 32.7467 33.9421 32.1803 33.7003Z" fill="url(#paint30_linear_225_17671)"/>
<path d="M26.2036 16.2673C26.2011 16.8371 27.0529 18.7716 28.5166 21.5965C28.9232 22.379 29.4057 23.2363 29.9118 24.161C30.1717 23.5681 30.3779 22.9855 30.5514 22.4229V22.4222C31.3327 19.342 30.8697 16.804 30.7731 16.4351C30.7649 16.4035 30.6487 16.3759 30.6487 16.3759C28.9136 15.803 26.6679 16.1251 26.2036 16.2673Z" fill="white"/>
<path d="M28.5735 13.6301C28.544 14.2905 28.4421 14.8102 28.3533 15.1651C28.2515 15.5716 28.1883 15.6747 28.1106 15.757C27.9932 15.8806 27.8199 15.9805 26.8615 16.1646C26.3398 16.2646 26.2739 16.2576 26.2598 16.308C26.1911 16.5543 27.5495 17.4786 29.0105 17.3514C29.9046 17.2736 30.7393 16.8101 30.7039 16.5418C30.6683 16.2714 29.7742 16.3677 29.5357 15.8694C29.3699 15.5227 29.6014 15.0557 29.8662 14.6727C29.6538 14.218 28.786 14.0848 28.5738 13.6301H28.5735Z" fill="url(#paint31_linear_225_17671)"/>
<path d="M30.2075 13.979C30.4317 13.7119 30.4706 13.2268 30.2456 12.907C30.052 12.6316 29.7272 12.5764 29.5328 12.5436C28.9693 12.4478 28.2412 12.6464 27.9645 13.1548C27.8005 13.4563 28.0852 14.1159 28.129 14.234C28.1787 14.3677 28.2788 14.4179 28.3683 14.5217C28.4925 14.6657 28.6866 14.8944 29.0031 15.2767C29.035 15.1706 29.0819 15.0396 29.1526 14.8987C29.1799 14.8445 29.2888 14.6328 29.446 14.461C29.7608 14.1164 29.9948 14.232 30.2075 13.979Z" fill="url(#paint32_linear_225_17671)"/>
<path d="M28.5401 14.9448C28.5401 14.9448 28.8802 15.5763 29.6248 15.5676C30.2917 15.5598 30.4685 14.0747 30.061 13.7359C29.925 13.6228 29.6436 13.5638 29.4096 13.6163C29.2714 13.6471 29.2223 13.7013 28.9953 13.7474C28.7861 13.7901 28.7289 13.764 28.664 13.8131C28.5825 13.8746 28.517 14.0323 28.6238 14.4748C28.5039 14.3396 28.3545 14.2822 28.2439 14.3273C28.2263 14.3346 28.1789 14.3632 28.1508 14.4088C28.0487 14.5741 28.1927 14.7998 28.5401 14.9448Z" fill="url(#paint33_linear_225_17671)"/>
<path d="M28.6391 13.7222C28.6699 13.7478 28.5656 13.8622 28.5493 14.031C28.5174 14.3588 28.8289 14.7706 29.1663 14.8223C29.3657 14.8526 29.4274 14.7348 29.7607 14.7175C29.9671 14.7067 30.1367 14.742 30.2427 14.7711C30.3278 15.1368 30.2104 15.491 29.9608 15.6447C29.692 15.8102 29.3667 15.6838 29.2307 15.6309C29.1397 15.5955 28.8482 15.4827 28.7075 15.2023C28.5611 14.9101 28.7289 14.7476 28.5535 14.5459C28.4653 14.4441 28.3446 14.3957 28.235 14.202C28.2052 14.1494 28.1861 14.1032 28.1743 14.0724C28.3554 13.8998 28.5947 13.6854 28.6391 13.7225V13.7222Z" fill="url(#paint34_linear_225_17671)"/>
<path d="M29.9941 14.8916C29.9941 14.8916 29.8466 14.9588 29.5994 14.9317C29.5873 14.9305 29.5738 14.9332 29.572 14.9395C29.565 14.9628 29.7185 15.0767 29.8672 15.0433C29.9728 15.0195 30.0591 14.9255 30.0465 14.8996C30.0413 14.8888 30.0175 14.8888 29.9941 14.8919V14.8916Z" fill="url(#paint35_linear_225_17671)"/>
<path d="M29.5049 17.2805L29.3469 18.214H28.6958L28.1558 17.3322C28.1558 17.3322 29.3975 17.3791 29.5049 17.2805Z" fill="url(#paint36_linear_225_17671)"/>
<path d="M28.5166 21.5963C28.6395 21.833 28.7667 22.0766 28.8993 22.3269C29.2036 22.9037 29.5587 23.516 29.9119 24.1608C30.1717 23.5679 30.3779 22.9852 30.5514 22.4227V22.4219L29.3872 18.2735L29.3556 18.2073C29.3543 18.2015 29.346 18.1963 29.3435 18.1913C29.2605 18.0087 28.6989 18.1913 28.6989 18.1913L28.5169 21.5963H28.5166Z" fill="url(#paint37_linear_225_17671)"/>
<path style="mix-blend-mode:multiply" opacity="0.3" d="M28.8989 22.3268C29.2032 22.9036 29.5583 23.5159 29.9114 24.1607C30.1713 23.5678 30.3775 22.9852 30.551 22.4226V22.4218L29.3868 18.2734C29.2729 18.2985 29.0085 18.4187 29.0419 18.984C29.0843 19.7131 29.86 20.9992 29.4209 21.5139C29.2478 21.7166 29.0527 22.0168 28.8989 22.3268Z" fill="url(#paint38_linear_225_17671)"/>
<path d="M37.3755 17.4877C37.4178 17.6111 37.5144 17.7147 37.6463 17.7623L38.7948 18.1797C39.0283 18.2644 39.2866 18.1443 39.3717 17.9108C39.3902 17.8599 39.3987 17.808 39.3987 17.757C39.3987 17.6831 39.3802 17.6111 39.3461 17.5469C39.2959 17.4511 39.2116 17.3738 39.1023 17.3339L37.9538 16.9166C37.7203 16.8318 37.462 16.9519 37.377 17.1854C37.3403 17.287 37.3424 17.3931 37.3757 17.4877H37.3755Z" fill="url(#paint39_linear_225_17671)"/>
<path style="mix-blend-mode:multiply" opacity="0.2" d="M37.3755 17.4874C37.4179 17.6108 37.5144 17.7144 37.6464 17.762L38.7948 18.1794C39.0283 18.2641 39.2867 18.144 39.3717 17.9105C39.3902 17.8596 39.3988 17.8077 39.3988 17.7567C39.3988 17.6828 39.3802 17.6108 39.3461 17.5466C39.3203 17.528 38.9834 17.2925 38.7582 17.6198C38.5242 17.9606 38.3853 17.8744 38.299 17.8134C38.2295 17.7633 37.6662 17.7048 37.3755 17.4874Z" fill="url(#paint40_linear_225_17671)"/>
<path d="M43.5829 23.8826C43.6092 23.8826 43.636 23.8771 43.6616 23.8658C43.7589 23.8222 43.8023 23.7083 43.7589 23.611L41.758 19.1395C41.5892 18.7621 41.2834 18.4731 40.8972 18.3254L39.0861 17.6334C38.9865 17.5953 38.8749 17.6452 38.837 17.7448C38.7989 17.8443 38.8488 17.9559 38.9484 17.9938L40.7595 18.6858C41.0494 18.7967 41.2792 19.0136 41.4058 19.297L43.4068 23.7685C43.4389 23.8402 43.5094 23.8826 43.5829 23.8826Z" fill="url(#paint41_linear_225_17671)"/>
<path d="M42.1987 17.4877C42.2411 17.6111 42.3377 17.7147 42.4696 17.7623L43.618 18.1797C43.8515 18.2644 44.1099 18.1443 44.1949 17.9108C44.2135 17.8599 44.222 17.808 44.222 17.757C44.222 17.6831 44.2034 17.6111 44.1693 17.5469C44.1192 17.4511 44.0349 17.3738 43.9255 17.3339L42.7771 16.9166C42.5436 16.8318 42.2852 16.9519 42.2002 17.1854C42.1636 17.287 42.1656 17.3931 42.199 17.4877H42.1987Z" fill="url(#paint42_linear_225_17671)"/>
<path style="mix-blend-mode:multiply" opacity="0.2" d="M42.1987 17.4874C42.2411 17.6108 42.3377 17.7144 42.4696 17.762L43.6181 18.1794C43.8516 18.2641 44.1099 18.144 44.1949 17.9105C44.2135 17.8596 44.222 17.8077 44.222 17.7567C44.222 17.6828 44.2035 17.6108 44.1693 17.5466C44.1435 17.528 43.8067 17.2925 43.5815 17.6198C43.3474 17.9606 43.2085 17.8744 43.1222 17.8134C43.0527 17.7633 42.4894 17.7048 42.1987 17.4874Z" fill="url(#paint43_linear_225_17671)"/>
<path d="M48.4061 23.8826C48.4324 23.8826 48.4593 23.8771 48.4849 23.8658C48.5822 23.8222 48.6256 23.7083 48.5822 23.611L46.5812 19.1395C46.4124 18.7621 46.1067 18.4731 45.7204 18.3254L43.9093 17.6334C43.8097 17.5953 43.6981 17.6452 43.6603 17.7448C43.6221 17.8443 43.6721 17.9559 43.7716 17.9938L45.5827 18.6858C45.8727 18.7967 46.1024 19.0136 46.2291 19.297L48.23 23.7685C48.2621 23.8402 48.3326 23.8826 48.4061 23.8826Z" fill="url(#paint44_linear_225_17671)"/>
<path d="M51.8826 30.7538L34.7357 30.8765L34.3188 30.584L36.7974 22.0171L54.3613 22.1869L54.7782 22.4791L51.8826 30.7538Z" fill="url(#paint45_linear_225_17671)"/>
<path d="M52.2998 31.0458L34.7358 30.8763L37.2146 22.3091L54.7783 22.4789L52.2998 31.0458Z" fill="url(#paint46_linear_225_17671)"/>
<path d="M45.5192 52.3256C45.5192 52.3256 47.5011 33.9242 50.6977 26.5012H41.6643L38.8379 52.3256H45.519H45.5192Z" fill="url(#paint47_linear_225_17671)"/>
<path d="M38.458 29.064L41.6646 26.5012L41.0895 52.041L41.1999 52.4533L38.8382 52.3256L38.458 29.064Z" fill="url(#paint48_linear_225_17671)"/>
<path d="M46.2948 52.041H37.7023C37.6887 52.041 37.6777 52.052 37.6777 52.0656V52.8408C37.6777 52.8544 37.6887 52.8654 37.7023 52.8654H46.2948C46.3084 52.8654 46.3194 52.8544 46.3194 52.8408V52.0656C46.3194 52.052 46.3084 52.041 46.2948 52.041Z" fill="url(#paint49_linear_225_17671)"/>
<path d="M16.4086 70.3006C17.5059 70.3116 18.9269 70.1338 20.3433 69.3788C21.8755 68.5622 23.9351 66.786 23.5529 65.5166C23.4102 65.0426 22.9163 64.6034 22.4478 64.5992C21.7558 64.5929 21.5905 65.5397 20.3046 66.471C20.0671 66.643 18.8384 67.5326 18.3017 67.1476C18.0348 66.9563 17.9927 66.4885 18.0702 66.1426C18.2962 65.1314 19.5597 65.086 20.8599 64.0857C22.1782 63.0717 23.3688 61.2032 22.9073 59.8267C22.6419 59.0357 21.8138 58.3555 21.2188 58.4726C20.9645 58.5225 20.7895 58.7111 19.8916 60.2689C19.1547 61.5475 18.9824 61.9243 18.573 62.0151C18.1517 62.1086 17.5292 61.8881 17.3233 61.4628C16.7868 60.3549 19.6515 59.0465 20.1624 56.1263C20.3914 54.8176 20.2098 52.8314 19.0531 52.3054C18.2713 51.95 17.0825 52.2794 16.6004 52.9829C16.1658 53.6169 16.5761 54.1599 16.156 55.6342C16.0286 56.0816 15.766 57.0021 15.3848 57.0174C14.9373 57.0355 14.5493 55.797 14.461 55.496C13.7959 53.2294 14.8841 52.1921 14.1673 51.0564C13.6083 50.1708 12.2604 49.7146 11.1315 50.0356C10.1436 50.3165 9.29432 51.2006 9.15487 52.1833C9.01291 53.183 9.76836 54.2587 11.2787 56.4097C11.995 57.4297 12.5752 58.1278 12.4545 59.067C12.3956 59.525 12.1556 60.155 11.8212 60.1846C11.0831 60.2499 10.9875 57.2928 9.30636 56.6868C8.44583 56.3766 7.31016 56.733 6.75788 57.4844C6.08119 58.4049 6.35257 59.8197 7.02825 60.6113C7.90985 61.6441 8.96551 61.0138 10.6928 62.1931C11.4591 62.7163 12.6409 63.7893 12.3843 64.5658C12.2724 64.9039 11.8802 65.2099 11.4789 65.2194C10.5792 65.2407 10.4157 63.7549 9.04151 62.9849C8.05131 62.4304 6.62044 62.3527 6.22942 62.9039C5.67764 63.6824 7.20934 65.6992 8.03902 66.6039C9.04176 67.6977 11.4478 69.817 16.4091 70.3008L16.4086 70.3006Z" fill="url(#paint50_linear_225_17671)"/>
<g opacity="0.5">
<path d="M16.015 69.7972C16.3789 67.3601 15.2049 62.2293 14.237 59.7676C13.2937 57.3688 12.5192 53.6358 12.5117 53.5984L12.3306 53.6358C12.3383 53.6734 13.1159 57.4217 14.0649 59.8353C15.0255 62.2782 16.1915 67.3626 15.8321 69.7699L16.015 69.7972Z" fill="white"/>
</g>
<path d="M18.9484 70.8491C19.8708 69.7834 21.2583 67.8361 21.7203 65.1058C21.9107 63.9807 22.2826 61.7833 21.0998 59.7533C20.5104 58.7415 19.2054 57.2063 18.2022 57.5256C17.5566 57.731 17.0816 58.6898 17.1894 59.4611C17.2983 60.2386 17.9356 60.3667 18.521 61.7221C18.7377 62.2237 18.9837 62.8116 18.7276 63.1083C18.5137 63.3561 17.987 63.3576 17.6095 63.1638C16.8298 62.7632 17.1729 61.7785 16.363 60.9777C15.7871 60.4084 14.7719 60.0738 14.2868 60.4545C13.8657 60.7851 13.8569 61.6446 14.1491 62.2443C14.6171 63.2047 15.6266 63.0256 16.1802 64.0792C16.4257 64.5467 16.5684 65.2322 16.2955 65.4737C15.9843 65.7489 15.1709 65.414 14.6645 65.0336C13.9959 64.5312 14.0117 64.0619 13.5507 63.9618C13.0365 63.85 12.342 64.2869 12.1913 64.8259C11.9801 65.5806 12.8474 66.4925 13.5607 66.9189C14.4739 67.4647 15.2073 67.258 15.6171 67.9287C15.7676 68.1747 15.8905 68.5655 15.7297 68.7817C15.5002 69.0899 14.7867 68.9174 14.3126 68.803C13.1592 68.5243 12.8752 68.0716 12.4381 68.2399C11.9954 68.4105 11.7135 69.0952 11.8527 69.6058C11.9299 69.8895 12.198 70.3422 13.6916 70.7445C14.737 71.0259 16.5095 71.3169 18.9486 70.8491H18.9484Z" fill="url(#paint51_linear_225_17671)"/>
<path d="M62.032 18.2077C65.384 14.8557 65.384 9.42113 62.032 6.06917C58.68 2.71721 53.2454 2.71721 49.8935 6.06917C46.5415 9.42113 46.5415 14.8557 49.8935 18.2077C53.2454 21.5596 58.68 21.5596 62.032 18.2077Z" fill="white"/>
<path d="M61.3544 17.5297C64.3319 14.5522 64.3319 9.72468 61.3544 6.74718C58.3769 3.76967 53.5494 3.76967 50.5719 6.74718C47.5944 9.72468 47.5944 14.5522 50.5719 17.5297C53.5494 20.5072 58.3769 20.5072 61.3544 17.5297Z" fill="url(#paint52_linear_225_17671)"/>
<defs>
<linearGradient id="paint0_linear_225_17671" x1="55.7017" y1="56.5381" x2="99.283" y2="56.9863" gradientUnits="userSpaceOnUse">
<stop stop-color="#FF9085"/>
<stop offset="1" stop-color="#FB6FBB"/>
</linearGradient>
<linearGradient id="paint1_linear_225_17671" x1="13.9306" y1="69.4225" x2="54.1129" y2="69.4225" gradientUnits="userSpaceOnUse">
<stop stop-color="#F58152"/>
<stop offset="0.04" stop-color="#F8994D"/>
<stop offset="0.08" stop-color="#FBAC49"/>
<stop offset="0.13" stop-color="#FDB946"/>
<stop offset="0.2" stop-color="#FEC144"/>
<stop offset="0.32" stop-color="#FFC444"/>
<stop offset="0.45" stop-color="#FDB946"/>
<stop offset="0.69" stop-color="#F99C4C"/>
<stop offset="1" stop-color="#F36F56"/>
</linearGradient>
<linearGradient id="paint2_linear_225_17671" x1="34.2059" y1="64.896" x2="36.3242" y2="82.6301" gradientUnits="userSpaceOnUse">
<stop stop-color="#FFDB44"/>
<stop offset="1" stop-color="#FEEF06"/>
</linearGradient>
<linearGradient id="paint3_linear_225_17671" x1="34.1139" y1="64.1054" x2="34.7645" y2="69.5517" gradientUnits="userSpaceOnUse">
<stop stop-color="#FFDB44"/>
<stop offset="1" stop-color="#FEEF06"/>
</linearGradient>
<linearGradient id="paint4_linear_225_17671" x1="34.7256" y1="68.9808" x2="34.0772" y2="63.5538" gradientUnits="userSpaceOnUse">
<stop stop-color="#F36F56"/>
<stop offset="0.31" stop-color="#F99C4C"/>
<stop offset="0.55" stop-color="#FDB946"/>
<stop offset="0.68" stop-color="#FFC444"/>
<stop offset="0.8" stop-color="#FEC144"/>
<stop offset="0.87" stop-color="#FDB946"/>
<stop offset="0.92" stop-color="#FBAC49"/>
<stop offset="0.96" stop-color="#F8994D"/>
<stop offset="1" stop-color="#F57E53"/>
</linearGradient>
<linearGradient id="paint5_linear_225_17671" x1="16.3906" y1="64.0863" x2="56.5729" y2="64.0863" gradientUnits="userSpaceOnUse">
<stop stop-color="#F58152"/>
<stop offset="0.04" stop-color="#F8994D"/>
<stop offset="0.08" stop-color="#FBAC49"/>
<stop offset="0.13" stop-color="#FDB946"/>
<stop offset="0.2" stop-color="#FEC144"/>
<stop offset="0.32" stop-color="#FFC444"/>
<stop offset="0.45" stop-color="#FDB946"/>
<stop offset="0.69" stop-color="#F99C4C"/>
<stop offset="1" stop-color="#F36F56"/>
</linearGradient>
<linearGradient id="paint6_linear_225_17671" x1="36.6663" y1="59.5599" x2="38.7847" y2="77.2939" gradientUnits="userSpaceOnUse">
<stop stop-color="#FFDB44"/>
<stop offset="1" stop-color="#FEEF06"/>
</linearGradient>
<linearGradient id="paint7_linear_225_17671" x1="36.5743" y1="58.7692" x2="37.2249" y2="64.2155" gradientUnits="userSpaceOnUse">
<stop stop-color="#FFDB44"/>
<stop offset="1" stop-color="#FEEF06"/>
</linearGradient>
<linearGradient id="paint8_linear_225_17671" x1="37.1855" y1="63.6444" x2="36.5372" y2="58.2174" gradientUnits="userSpaceOnUse">
<stop stop-color="#F36F56"/>
<stop offset="0.31" stop-color="#F99C4C"/>
<stop offset="0.55" stop-color="#FDB946"/>
<stop offset="0.68" stop-color="#FFC444"/>
<stop offset="0.8" stop-color="#FEC144"/>
<stop offset="0.87" stop-color="#FDB946"/>
<stop offset="0.92" stop-color="#FBAC49"/>
<stop offset="0.96" stop-color="#F8994D"/>
<stop offset="1" stop-color="#F57E53"/>
</linearGradient>
<linearGradient id="paint9_linear_225_17671" x1="11.5869" y1="61.1507" x2="51.7692" y2="61.1507" gradientUnits="userSpaceOnUse">
<stop stop-color="#F58152"/>
<stop offset="0.04" stop-color="#F8994D"/>
<stop offset="0.08" stop-color="#FBAC49"/>
<stop offset="0.13" stop-color="#FDB946"/>
<stop offset="0.2" stop-color="#FEC144"/>
<stop offset="0.32" stop-color="#FFC444"/>
<stop offset="0.45" stop-color="#FDB946"/>
<stop offset="0.69" stop-color="#F99C4C"/>
<stop offset="1" stop-color="#F36F56"/>
</linearGradient>
<linearGradient id="paint10_linear_225_17671" x1="31.8629" y1="56.6243" x2="33.9812" y2="74.3581" gradientUnits="userSpaceOnUse">
<stop stop-color="#FFDB44"/>
<stop offset="1" stop-color="#FEEF06"/>
</linearGradient>
<linearGradient id="paint11_linear_225_17671" x1="31.7703" y1="55.8336" x2="32.4209" y2="61.28" gradientUnits="userSpaceOnUse">
<stop stop-color="#FFDB44"/>
<stop offset="1" stop-color="#FEEF06"/>
</linearGradient>
<linearGradient id="paint12_linear_225_17671" x1="32.3823" y1="60.7091" x2="31.734" y2="55.282" gradientUnits="userSpaceOnUse">
<stop stop-color="#F36F56"/>
<stop offset="0.31" stop-color="#F99C4C"/>
<stop offset="0.55" stop-color="#FDB946"/>
<stop offset="0.68" stop-color="#FFC444"/>
<stop offset="0.8" stop-color="#FEC144"/>
<stop offset="0.87" stop-color="#FDB946"/>
<stop offset="0.92" stop-color="#FBAC49"/>
<stop offset="0.96" stop-color="#F8994D"/>
<stop offset="1" stop-color="#F57E53"/>
</linearGradient>
<linearGradient id="paint13_linear_225_17671" x1="16.9946" y1="55.1329" x2="57.1766" y2="55.1329" gradientUnits="userSpaceOnUse">
<stop stop-color="#F58152"/>
<stop offset="0.04" stop-color="#F8994D"/>
<stop offset="0.08" stop-color="#FBAC49"/>
<stop offset="0.13" stop-color="#FDB946"/>
<stop offset="0.2" stop-color="#FEC144"/>
<stop offset="0.32" stop-color="#FFC444"/>
<stop offset="0.45" stop-color="#FDB946"/>
<stop offset="0.69" stop-color="#F99C4C"/>
<stop offset="1" stop-color="#F36F56"/>
</linearGradient>
<linearGradient id="paint14_linear_225_17671" x1="37.2701" y1="50.6065" x2="39.3884" y2="68.3403" gradientUnits="userSpaceOnUse">
<stop stop-color="#FFDB44"/>
<stop offset="1" stop-color="#FEEF06"/>
</linearGradient>
<linearGradient id="paint15_linear_225_17671" x1="37.1781" y1="49.8153" x2="37.8287" y2="55.2617" gradientUnits="userSpaceOnUse">
<stop stop-color="#FFDB44"/>
<stop offset="1" stop-color="#FEEF06"/>
</linearGradient>
<linearGradient id="paint16_linear_225_17671" x1="37.7895" y1="54.6908" x2="37.1412" y2="49.2637" gradientUnits="userSpaceOnUse">
<stop stop-color="#F36F56"/>
<stop offset="0.31" stop-color="#F99C4C"/>
<stop offset="0.55" stop-color="#FDB946"/>
<stop offset="0.68" stop-color="#FFC444"/>
<stop offset="0.8" stop-color="#FEC144"/>
<stop offset="0.87" stop-color="#FDB946"/>
<stop offset="0.92" stop-color="#FBAC49"/>
<stop offset="0.96" stop-color="#F8994D"/>
<stop offset="1" stop-color="#F57E53"/>
</linearGradient>
<linearGradient id="paint17_linear_225_17671" x1="43.1465" y1="9.36121" x2="42.6809" y2="13.8302" gradientUnits="userSpaceOnUse">
<stop stop-color="#FFC444"/>
<stop offset="1" stop-color="#F36F56"/>
</linearGradient>
<linearGradient id="paint18_linear_225_17671" x1="43.3478" y1="31.3557" x2="37.1974" y2="17.1446" gradientUnits="userSpaceOnUse">
<stop stop-color="#444B8C"/>
<stop offset="1" stop-color="#3E4177"/>
</linearGradient>
<linearGradient id="paint19_linear_225_17671" x1="28.8647" y1="52.5549" x2="26.65" y2="52.7545" gradientUnits="userSpaceOnUse">
<stop stop-color="#444B8C"/>
<stop offset="1" stop-color="#26264F"/>
</linearGradient>
<linearGradient id="paint20_linear_225_17671" x1="27.5914" y1="52.6482" x2="26.4782" y2="50.7018" gradientUnits="userSpaceOnUse">
<stop stop-color="#FFC444"/>
<stop offset="1" stop-color="#F36F56"/>
</linearGradient>
<linearGradient id="paint21_linear_225_17671" x1="36.5305" y1="52.1748" x2="34.2228" y2="52.6788" gradientUnits="userSpaceOnUse">
<stop stop-color="#444B8C"/>
<stop offset="1" stop-color="#26264F"/>
</linearGradient>
<linearGradient id="paint22_linear_225_17671" x1="35.0924" y1="52.4712" x2="33.8073" y2="50.5758" gradientUnits="userSpaceOnUse">
<stop stop-color="#FFC444"/>
<stop offset="1" stop-color="#F36F56"/>
</linearGradient>
<linearGradient id="paint23_linear_225_17671" x1="35.9497" y1="48.3062" x2="30.4161" y2="33.7865" gradientUnits="userSpaceOnUse">
<stop stop-color="#444B8C"/>
<stop offset="1" stop-color="#3E4177"/>
</linearGradient>
<linearGradient id="paint24_linear_225_17671" x1="34.9511" y1="48.6868" x2="29.4174" y2="34.167" gradientUnits="userSpaceOnUse">
<stop stop-color="#444B8C"/>
<stop offset="1" stop-color="#3E4177"/>
</linearGradient>
<linearGradient id="paint25_linear_225_17671" x1="32.4095" y1="49.0838" x2="25.1378" y2="35.3515" gradientUnits="userSpaceOnUse">
<stop stop-color="#444B8C"/>
<stop offset="1" stop-color="#3E4177"/>
</linearGradient>
<linearGradient id="paint26_linear_225_17671" x1="21.0249" y1="35.8291" x2="41.6689" y2="16.9073" gradientUnits="userSpaceOnUse">
<stop stop-color="#444B8C"/>
<stop offset="1" stop-color="#3E4177"/>
</linearGradient>
<linearGradient id="paint27_linear_225_17671" x1="23.9433" y1="32.7131" x2="33.5771" y2="10.4524" gradientUnits="userSpaceOnUse">
<stop stop-color="#444B8C"/>
<stop offset="1" stop-color="#3E4177"/>
</linearGradient>
<linearGradient id="paint28_linear_225_17671" x1="22.8306" y1="28.0929" x2="23.2778" y2="29.4578" gradientUnits="userSpaceOnUse">
<stop stop-color="#FFC444"/>
<stop offset="1" stop-color="#F36F56"/>
</linearGradient>
<linearGradient id="paint29_linear_225_17671" x1="16.5608" y1="29.5182" x2="26.1949" y2="7.25754" gradientUnits="userSpaceOnUse">
<stop stop-color="#444B8C"/>
<stop offset="1" stop-color="#3E4177"/>
</linearGradient>
<linearGradient id="paint30_linear_225_17671" x1="25.7137" y1="33.4796" x2="35.3478" y2="11.2187" gradientUnits="userSpaceOnUse">
<stop stop-color="#444B8C"/>
<stop offset="1" stop-color="#3E4177"/>
</linearGradient>
<linearGradient id="paint31_linear_225_17671" x1="27.248" y1="18.7214" x2="30.4237" y2="12.9234" gradientUnits="userSpaceOnUse">
<stop stop-color="#FFC444"/>
<stop offset="1" stop-color="#F36F56"/>
</linearGradient>
<linearGradient id="paint32_linear_225_17671" x1="30.3964" y1="13.8985" x2="27.9141" y2="13.8985" gradientUnits="userSpaceOnUse">
<stop stop-color="#444B8C"/>
<stop offset="1" stop-color="#3E4177"/>
</linearGradient>
<linearGradient id="paint33_linear_225_17671" x1="29.2002" y1="13.9456" x2="29.1948" y2="20.1765" gradientUnits="userSpaceOnUse">
<stop stop-color="#FFC444"/>
<stop offset="1" stop-color="#F36F56"/>
</linearGradient>
<linearGradient id="paint34_linear_225_17671" x1="30.2701" y1="14.7225" x2="28.1743" y2="14.7225" gradientUnits="userSpaceOnUse">
<stop stop-color="#444B8C"/>
<stop offset="1" stop-color="#3E4177"/>
</linearGradient>
<linearGradient id="paint35_linear_225_17671" x1="29.8487" y1="14.6773" x2="29.7226" y2="15.4525" gradientUnits="userSpaceOnUse">
<stop stop-color="#FFC444"/>
<stop offset="1" stop-color="#F36F56"/>
</linearGradient>
<linearGradient id="paint36_linear_225_17671" x1="29.5049" y1="17.747" x2="28.156" y2="17.747" gradientUnits="userSpaceOnUse">
<stop stop-color="#FF9085"/>
<stop offset="1" stop-color="#FB6FBB"/>
</linearGradient>
<linearGradient id="paint37_linear_225_17671" x1="29.6352" y1="17.1833" x2="29.5193" y2="22.7046" gradientUnits="userSpaceOnUse">
<stop stop-color="#FF9085"/>
<stop offset="1" stop-color="#FB6FBB"/>
</linearGradient>
<linearGradient id="paint38_linear_225_17671" x1="30.551" y1="21.2172" x2="28.8989" y2="21.2172" gradientUnits="userSpaceOnUse">
<stop stop-color="#FF9085"/>
<stop offset="1" stop-color="#FB6FBB"/>
</linearGradient>
<linearGradient id="paint39_linear_225_17671" x1="38.2701" y1="16.8178" x2="38.4783" y2="18.2785" gradientUnits="userSpaceOnUse">
<stop stop-color="#444B8C"/>
<stop offset="1" stop-color="#3E4177"/>
</linearGradient>
<linearGradient id="paint40_linear_225_17671" x1="38.3501" y1="17.3484" x2="38.4828" y2="18.2774" gradientUnits="userSpaceOnUse">
<stop stop-color="#444B8C"/>
<stop offset="1" stop-color="#3E4177"/>
</linearGradient>
<linearGradient id="paint41_linear_225_17671" x1="40.8169" y1="17.362" x2="41.783" y2="24.1409" gradientUnits="userSpaceOnUse">
<stop stop-color="#AA80F9"/>
<stop offset="1" stop-color="#6165D7"/>
</linearGradient>
<linearGradient id="paint42_linear_225_17671" x1="43.0933" y1="16.8178" x2="43.3015" y2="18.2785" gradientUnits="userSpaceOnUse">
<stop stop-color="#444B8C"/>
<stop offset="1" stop-color="#3E4177"/>
</linearGradient>
<linearGradient id="paint43_linear_225_17671" x1="43.1734" y1="17.3484" x2="43.3058" y2="18.2774" gradientUnits="userSpaceOnUse">
<stop stop-color="#444B8C"/>
<stop offset="1" stop-color="#3E4177"/>
</linearGradient>
<linearGradient id="paint44_linear_225_17671" x1="45.6399" y1="17.362" x2="46.6063" y2="24.1409" gradientUnits="userSpaceOnUse">
<stop stop-color="#AA80F9"/>
<stop offset="1" stop-color="#6165D7"/>
</linearGradient>
<linearGradient id="paint45_linear_225_17671" x1="47.4485" y1="29.7832" x2="43.0513" y2="24.853" gradientUnits="userSpaceOnUse">
<stop stop-color="#AA80F9"/>
<stop offset="1" stop-color="#6165D7"/>
</linearGradient>
<linearGradient id="paint46_linear_225_17671" x1="34.6821" y1="26.5811" x2="54.6706" y2="26.773" gradientUnits="userSpaceOnUse">
<stop stop-color="#AA80F9"/>
<stop offset="1" stop-color="#6165D7"/>
</linearGradient>
<linearGradient id="paint47_linear_225_17671" x1="40.1303" y1="36.6989" x2="56.9572" y2="46.5487" gradientUnits="userSpaceOnUse">
<stop stop-color="#AA80F9"/>
<stop offset="1" stop-color="#6165D7"/>
</linearGradient>
<linearGradient id="paint48_linear_225_17671" x1="38.458" y1="39.4771" x2="41.6646" y2="39.4771" gradientUnits="userSpaceOnUse">
<stop stop-color="#AA80F9"/>
<stop offset="1" stop-color="#6165D7"/>
</linearGradient>
<linearGradient id="paint49_linear_225_17671" x1="39.4755" y1="56.765" x2="41.9014" y2="52.6189" gradientUnits="userSpaceOnUse">
<stop stop-color="#AA80F9"/>
<stop offset="1" stop-color="#6165D7"/>
</linearGradient>
<linearGradient id="paint50_linear_225_17671" x1="13.9702" y1="42.0127" x2="16.5934" y2="109.08" gradientUnits="userSpaceOnUse">
<stop stop-color="#AA80F9"/>
<stop offset="1" stop-color="#6165D7"/>
</linearGradient>
<linearGradient id="paint51_linear_225_17671" x1="13.4524" y1="60.344" x2="23.0248" y2="74.1614" gradientUnits="userSpaceOnUse">
<stop stop-color="#FF9085"/>
<stop offset="1" stop-color="#FB6FBB"/>
</linearGradient>
<linearGradient id="paint52_linear_225_17671" x1="50.4677" y1="2.17554" x2="69.689" y2="37.0219" gradientUnits="userSpaceOnUse">
<stop stop-color="#FFC444"/>
<stop offset="1" stop-color="#F36F56"/>
</linearGradient>
</defs>
</svg>
