<svg width="18" height="18" viewBox="0 0 18 18" fill="none" xmlns="http://www.w3.org/2000/svg">
<path d="M1.5 8.25L3.60525 5.88225C3.88671 5.56551 4.23207 5.31199 4.61859 5.13838C5.00511 4.96477 5.42403 4.875 5.84775 4.875H6M1.5 14.625H5.625L8.625 12.375C8.625 12.375 9.2325 11.9647 10.125 11.25C12 9.75 10.125 7.3755 8.25 8.625C6.723 9.64275 5.25 10.5 5.25 10.5" stroke="#98E169" stroke-width="1.5" stroke-linecap="round" stroke-linejoin="round"/>
<path d="M6 10.125V5.25C6 4.85218 6.15804 4.47064 6.43934 4.18934C6.72064 3.90804 7.10218 3.75 7.5 3.75H15C15.3978 3.75 15.7794 3.90804 16.0607 4.18934C16.342 4.47064 16.5 4.85218 16.5 5.25V9.75C16.5 10.1478 16.342 10.5294 16.0607 10.8107C15.7794 11.092 15.3978 11.25 15 11.25H10.125" stroke="#98E169" stroke-width="1.5"/>
<path d="M14.625 7.5075L14.6325 7.49925M7.875 7.5075L7.8825 7.49925M11.25 9C10.8522 9 10.4706 8.84196 10.1893 8.56066C9.90804 8.27935 9.75 7.89782 9.75 7.5C9.75 7.10218 9.90804 6.72064 10.1893 6.43934C10.4706 6.15804 10.8522 6 11.25 6C11.6478 6 12.0294 6.15804 12.3107 6.43934C12.592 6.72064 12.75 7.10218 12.75 7.5C12.75 7.89782 12.592 8.27935 12.3107 8.56066C12.0294 8.84196 11.6478 9 11.25 9Z" stroke="#98E169" stroke-width="1.5" stroke-linecap="round" stroke-linejoin="round"/>
</svg>
