<svg width="30" height="30" viewBox="0 0 30 30" fill="none" xmlns="http://www.w3.org/2000/svg">
<g clip-path="url(#clip0_375_3969)">
<path d="M26.6667 4.16667H3.33333C2.44928 4.16667 1.60143 4.51786 0.976311 5.14298C0.35119 5.7681 0 6.61595 0 7.5L0 22.5C0 23.3841 0.35119 24.2319 0.976311 24.857C1.60143 25.4821 2.44928 25.8333 3.33333 25.8333H26.6667C27.5507 25.8333 28.3986 25.4821 29.0237 24.857C29.6488 24.2319 30 23.3841 30 22.5V7.5C30 6.61595 29.6488 5.7681 29.0237 5.14298C28.3986 4.51786 27.5507 4.16667 26.6667 4.16667Z" fill="#006C35"/>
<path d="M7.43253 11.7083C7.9592 11.7583 7.66836 10.8175 7.8592 10.6467C7.89503 10.5625 7.9617 10.5617 7.9667 10.6683V11.4667C7.9617 11.7267 8.13253 11.8025 8.26503 11.8567C8.40336 11.8458 8.49503 11.8508 8.5492 11.985L8.6142 13.3667C8.6142 13.3667 8.9342 13.4583 8.9492 12.5892C8.96503 12.0792 8.84753 11.6525 8.9167 11.5533C8.9192 11.4558 9.04336 11.45 9.13003 11.4975C9.26753 11.5942 9.3292 11.7142 9.54253 11.6667C9.86836 11.5775 10.0634 11.4192 10.0684 11.1692C10.0492 10.9317 10.0225 10.6942 9.92003 10.4567C9.9342 10.4133 9.85753 10.3017 9.8717 10.2583C9.93003 10.35 10.0192 10.3425 10.0392 10.2583C9.9842 10.0758 9.89836 9.90084 9.75836 9.825C9.64336 9.72334 9.47503 9.74417 9.41336 9.95584C9.38503 10.1992 9.5017 10.4892 9.67836 10.725C9.71586 10.8175 9.7692 10.9708 9.74586 11.1092C9.6517 11.1625 9.5567 11.1408 9.47836 11.0575C9.47836 11.0575 9.2192 10.8633 9.2192 10.82C9.28836 10.38 9.23503 10.33 9.1967 10.2083C9.17003 10.04 9.09003 9.98584 9.02503 9.87084C8.96003 9.8025 8.87253 9.8025 8.83086 9.87084C8.71586 10.0692 8.7692 10.4958 8.85253 10.6867C8.9117 10.8617 9.00336 10.9725 8.96003 10.9725C8.9242 11.0717 8.85086 11.0483 8.79753 10.9342C8.72086 10.6975 8.70586 10.345 8.70586 10.1858C8.68253 9.98917 8.65753 9.56834 8.52836 9.46167C8.4492 9.35417 8.3317 9.40584 8.29086 9.505C8.28253 9.7 8.28086 9.89584 8.30336 10.0767C8.3917 10.3925 8.42003 10.6708 8.46336 10.995C8.47503 11.4292 8.21253 11.1833 8.2242 10.9683C8.28503 10.6892 8.2692 10.2492 8.21503 10.1375C8.17253 10.0267 8.1217 9.99834 8.01836 10.0167C7.9367 10.01 7.72503 10.2417 7.66503 10.625C7.66503 10.625 7.6142 10.8225 7.59253 10.9983C7.56336 11.1967 7.43336 11.3367 7.3417 10.9708C7.26253 10.705 7.2142 10.0492 7.0817 10.2025C7.04336 10.715 6.99753 11.6167 7.43253 11.7083Z" fill="white"/>
<path d="M8.22514 12.0825C7.7918 12.0908 7.15764 12.6517 7.14014 12.9625C7.5968 12.7425 8.04597 12.5308 8.51097 12.3042C8.43597 12.1917 8.5068 12.0908 8.22514 12.0825Z" fill="white"/>
<path d="M10.6142 13.7633C10.815 13.0942 10.5817 12.6008 10.6909 12.6033C10.9217 12.8525 11.245 12.6367 11.3159 12.55C11.3467 12.5067 11.4225 12.4783 11.4759 12.535C11.6567 12.665 11.975 12.6033 12.0409 12.375C12.0825 12.1457 12.1081 11.9137 12.1175 11.6808C11.97 11.7267 11.86 11.7575 11.85 11.8183L11.8192 12.0167C11.8067 12.0808 11.6792 12.0833 11.6742 12.0017C11.6184 11.7475 11.3867 11.7142 11.2467 12.1083C11.1525 12.185 10.9825 12.2 10.9642 12.0858C10.9867 11.8217 10.88 11.7858 10.6667 11.91C10.5984 11.3858 10.5292 10.885 10.4609 10.3608C10.55 10.3583 10.6317 10.4242 10.7125 10.3225C10.6234 10.045 10.435 9.47833 10.3309 9.4375C10.28 9.37583 10.2367 9.41417 10.1709 9.43C10.0592 9.46583 9.95502 9.5625 9.98752 9.75C10.12 10.5542 10.2067 11.1667 10.3384 11.9708C10.3584 12.065 10.28 12.1892 10.1784 12.1767C10.0059 12.06 9.96252 11.8233 9.66752 11.8333C9.45336 11.8358 9.20919 12.0675 9.17919 12.2917C9.14336 12.4692 9.13086 12.6625 9.17919 12.8183C9.32919 12.9983 9.51002 12.9808 9.66752 12.94C9.79669 12.8867 9.90419 12.7567 9.94919 12.7875C9.98002 12.825 9.95669 13.2525 9.33919 13.5808C8.96502 13.7483 8.66752 13.7867 8.50752 13.4817C8.40836 13.2908 8.51502 12.5658 8.27086 12.7342C7.54836 14.5967 9.96252 14.855 10.2325 12.8108C10.2584 12.7267 10.36 12.6425 10.3775 12.78C10.3217 14.6317 8.51002 14.7592 8.20252 14.1767C8.12586 14.0392 8.10336 13.7342 8.09586 13.5508C8.05002 13.1867 7.85919 13.3267 7.82919 13.6875C7.79836 13.8883 7.80669 13.945 7.80669 14.1375C7.90252 15.6 10.2359 14.9717 10.6142 13.7633ZM9.71419 12.4983C9.69919 12.5267 9.63336 12.515 9.58502 12.515C9.53002 12.5125 9.50419 12.5033 9.47086 12.4592C9.45586 12.4092 9.50252 12.3617 9.52336 12.3242C9.54919 12.28 9.68836 12.2342 9.73752 12.3575C9.74662 12.3809 9.74926 12.4063 9.74516 12.4311C9.74105 12.4559 9.73035 12.4791 9.71419 12.4983Z" fill="white"/>
<path d="M11.3351 10.8408C11.4801 10.7875 12.1676 10.0017 12.1676 10.0017C12.1318 9.97084 12.1001 9.94834 12.0643 9.9175C12.0259 9.88417 12.0301 9.85084 12.0643 9.81834C12.2343 9.71917 12.1801 9.50167 12.0909 9.4025C12.0333 9.37421 11.9698 9.35978 11.9056 9.36036C11.8413 9.36093 11.7781 9.37651 11.7209 9.40584C11.6018 9.52 11.5734 9.70334 11.6676 9.81834C11.7593 9.86167 11.8509 9.95417 11.7901 10.005C11.5093 10.305 10.7393 10.8225 10.8284 10.8408C10.8476 10.8658 11.3201 10.865 11.3351 10.8408ZM11.8443 9.60667C11.8884 9.59584 11.9451 9.635 11.9718 9.69334C11.9984 9.75167 11.9843 9.8075 11.9409 9.81834H11.9393C11.8959 9.82917 11.8393 9.79 11.8126 9.73167C11.7868 9.6725 11.8009 9.6175 11.8443 9.60667ZM7.38511 14.3817C7.27178 14.6125 7.22428 14.4542 7.21428 14.325C7.20125 14.1081 7.21215 13.8904 7.24678 13.6758C7.27511 13.4925 7.24678 13.5483 7.18844 13.6225C6.93094 14.0325 6.90844 14.6458 7.05094 14.8283C7.12594 14.915 7.25011 14.9533 7.34261 14.925C7.50428 14.855 7.57511 14.5267 7.53678 14.4075C7.48178 14.3233 7.43928 14.31 7.38511 14.3817ZM15.8693 10.0417C16.1659 10.44 16.4476 10.8458 16.7234 11.2592C16.7776 11.6175 16.8168 11.9675 16.8401 12.315C16.8859 12.985 16.8993 13.71 16.8576 14.4158C16.9826 14.4208 17.1851 14.2125 17.2551 13.9083C17.3009 13.4875 17.2384 12.7383 17.2343 12.49C17.2288 12.3344 17.2213 12.1788 17.2118 12.0233C17.5401 12.56 17.8601 13.1217 18.1726 13.7458C18.2868 13.6925 18.2618 13.0542 18.1951 12.9642C17.9451 12.4283 17.6009 11.8983 17.4909 11.695C17.4501 11.62 17.3109 11.4067 17.1451 11.1625C17.1309 10.9676 17.1075 10.7735 17.0751 10.5808C17.0234 10.2242 17.2226 10.62 17.1951 10.4125C17.1309 10.0558 16.9326 9.815 16.7009 9.48834C16.6259 9.3825 16.6284 9.36084 16.5126 9.51417C16.4717 9.60603 16.4528 9.70621 16.4576 9.80667C16.4214 9.75349 16.3828 9.70204 16.3418 9.6525C16.216 9.54399 16.0896 9.43621 15.9626 9.32917C15.8784 9.26917 15.6734 9.16084 15.6368 9.34084C15.6197 9.46701 15.6259 9.59524 15.6551 9.71917C15.6768 9.80834 15.8059 9.95667 15.8693 10.0417ZM16.4859 10.0217C16.5018 10.0908 16.5184 10.16 16.5293 10.2308L16.5418 10.2983C16.5068 10.2495 16.4704 10.2017 16.4326 10.155C16.2959 9.99334 16.4093 10.0283 16.4859 10.0217Z" fill="white"/>
<path d="M18.2661 13.9108C17.9761 14.2133 17.5577 14.5858 17.1027 14.7583C17.0536 14.8133 17.2244 15.0492 17.4444 15.0492C17.8136 15.0058 18.1386 14.7983 18.4394 14.2525C18.5202 14.1258 18.6619 13.8533 18.6652 13.6417C18.6927 12.4033 18.6036 11.4392 18.4177 10.5442C18.4053 10.4724 18.4087 10.3987 18.4277 10.3283C18.4511 10.3 18.5327 10.3283 18.5761 10.2583C18.6386 10.1933 18.4086 9.66 18.2769 9.455C18.2302 9.36333 18.2144 9.30167 18.1369 9.46583C18.0552 9.59917 18.0011 9.83167 18.0077 10.0483C18.1836 11.2675 18.2377 12.335 18.3527 13.5542C18.3619 13.6717 18.3444 13.8433 18.2661 13.9108ZM23.1244 10.8192C23.1119 10.7325 23.0736 10.5308 23.0886 10.505C23.1119 10.4433 23.2327 10.5117 23.2761 10.4408C23.3394 10.3767 22.9644 9.895 22.8336 9.69C22.7861 9.59833 22.7702 9.53667 22.6927 9.70083C22.6111 9.83417 22.5827 10.0733 22.6152 10.2833C22.8111 11.6075 22.9569 12.6025 22.9869 13.7767C22.9694 13.8883 22.9661 13.9483 22.9136 14.0883C22.7977 14.2367 22.6702 14.4217 22.5494 14.5117C22.4294 14.6008 22.1736 14.6867 22.0894 14.7525C21.8252 14.9067 21.8244 15.0825 22.0394 15.0883C22.4077 15.045 22.8444 15.015 23.1452 14.56C23.2261 14.4333 23.3219 14.0892 23.3261 13.8775C23.3536 12.6392 23.3102 11.7142 23.1244 10.8192ZM20.3319 11.85C20.3352 11.68 20.3511 11.455 20.3602 11.3142C20.3644 11.2617 20.3769 11.2025 20.4269 11.1892C20.4777 11.1758 20.5677 11.2408 20.5686 11.1858C20.5586 11.0783 20.5369 10.9183 20.4761 10.8425C20.3927 10.7192 20.1719 10.7492 20.1327 10.9425C20.1336 11.0142 20.1661 11.0525 20.1602 11.1175C20.1502 11.1542 20.1119 11.1792 20.0211 11.1358C20.0361 11.1225 19.9619 11.02 19.9619 11.02C19.8911 10.9767 19.7961 11.0225 19.7352 11.0617C19.7132 11.1037 19.7001 11.1498 19.6966 11.1971C19.6932 11.2444 19.6995 11.2919 19.7152 11.3367C19.8152 11.5258 20.1644 11.8467 20.3319 11.85Z" fill="white"/>
<path d="M20.2144 10.4008C20.4586 10.7 20.7077 11.0033 20.9586 11.3117C21.0127 12 21.0269 12.5633 21.0802 13.2517C21.0727 13.5433 20.9827 13.7975 20.8969 13.8342C20.8969 13.8342 20.7677 13.9092 20.6811 13.8267C20.6177 13.8008 20.3652 13.4058 20.3652 13.4058C20.2361 13.2875 20.1511 13.3208 20.0594 13.4058C19.8061 13.65 19.6919 14.1083 19.5202 14.4233C19.4752 14.4942 19.3502 14.5542 19.2111 14.4183C18.8586 13.9358 19.0652 13.25 19.0219 13.4267C18.7077 13.7808 18.8461 14.3667 18.9169 14.4933C19.0202 14.7 19.1044 14.8333 19.3061 14.9358C19.4894 15.0708 19.6327 14.9858 19.7111 14.8917C19.8961 14.6992 19.8986 14.2117 19.9852 14.1133C20.0452 13.9358 20.1994 13.9658 20.2736 14.045C20.3415 14.1409 20.4315 14.2189 20.5361 14.2725C20.7086 14.425 20.9144 14.4525 21.1169 14.3133C21.2552 14.2358 21.3461 14.135 21.4269 13.9358C21.5169 13.6958 21.4677 12.5925 21.4494 11.9308C21.5786 12.0975 21.7044 12.2717 21.8319 12.4458C21.8877 12.9983 21.9194 13.5483 21.9011 14.11C21.8877 14.2225 22.2927 13.7767 22.2894 13.565C22.2877 13.3942 22.2894 13.2392 22.2894 13.0933C22.4844 13.3867 22.6744 13.6892 22.8527 14.0092C22.9644 13.9508 22.9277 13.3217 22.8569 13.235C22.6511 12.89 22.3769 12.5308 22.1877 12.2742C22.1752 12.2417 22.1686 12.205 22.1536 12.1742C22.0777 11.9983 22.1252 11.8567 22.0894 11.67C22.0544 11.4825 22.0636 11.2025 22.0094 10.98C21.9944 10.8933 21.9494 10.615 21.9627 10.5892C21.9844 10.5267 22.0677 10.5908 22.1086 10.5192C22.1694 10.4525 21.8977 9.74833 21.7594 9.54667C21.7094 9.45667 21.6194 9.4875 21.5077 9.63417C21.4052 9.73083 21.4436 9.95083 21.4827 10.16C21.5802 10.6667 21.6619 11.1525 21.7319 11.6333C21.582 11.4341 21.4306 11.236 21.2777 11.0392L21.2711 11.0025C21.2711 10.9933 21.2486 10.5658 21.2286 10.4642C21.2252 10.4233 21.2152 10.4108 21.2586 10.4158C21.3044 10.4542 21.3102 10.4567 21.3394 10.47C21.3861 10.4783 21.4269 10.3992 21.3994 10.3267L20.9686 9.53333C20.9344 9.49917 20.8894 9.4625 20.8352 9.5425C20.8016 9.57187 20.7747 9.60813 20.7563 9.64882C20.7378 9.68951 20.7284 9.73368 20.7286 9.77833C20.7419 9.96583 20.7744 10.1575 20.7869 10.3458L20.8052 10.4475C20.7861 10.425 20.7627 10.3967 20.7527 10.3867C20.3869 10.0017 20.9211 10.3242 20.6827 10.0267C20.4811 9.805 20.4227 9.73583 20.2494 9.6025C20.1627 9.54667 20.1102 9.44 20.0819 9.62167C20.0676 9.78097 20.0635 9.94101 20.0694 10.1008C20.0694 10.1775 20.1469 10.3175 20.2144 10.4008ZM12.7969 11.3C13.0069 11.3867 13.1411 10.9867 13.2277 10.5483C13.2861 10.425 13.3311 10.4117 13.3611 10.475C13.3536 11.0583 13.4027 11.1875 13.5527 11.365C13.8869 11.6233 14.1636 11.3975 14.1861 11.3758L14.4461 11.1158C14.5036 11.055 14.5811 11.0508 14.6627 11.105C14.7427 11.1767 14.7319 11.3017 14.9019 11.3883C15.0452 11.4458 15.3519 11.4017 15.4227 11.2783C15.5186 11.115 15.5419 11.0583 15.5852 10.9967C15.6536 10.9058 15.7702 10.9467 15.7702 10.975C15.7594 11.0258 15.6911 11.0767 15.7377 11.1675C15.8194 11.2283 15.8377 11.1892 15.8861 11.1758C16.0561 11.0942 16.1827 10.7258 16.1827 10.7258C16.1902 10.5883 16.1136 10.6 16.0636 10.6283C15.9986 10.6675 15.9944 10.6808 15.9294 10.7208C15.8461 10.7333 15.6852 10.7883 15.6061 10.665C15.5244 10.5167 15.5227 10.31 15.4611 10.1608C15.4611 10.15 15.3527 9.925 15.4536 9.91083C15.5044 9.92 15.6119 9.94833 15.6294 9.85833C15.6819 9.77 15.5152 9.51833 15.4019 9.39083C15.3027 9.2825 15.1652 9.26917 15.0327 9.38C14.9394 9.46583 14.9527 9.56083 14.9344 9.65167C14.9193 9.71577 14.9193 9.78251 14.9345 9.8466C14.9497 9.91069 14.9796 9.97035 15.0219 10.0208C15.1144 10.2033 15.2836 10.4392 15.2277 10.7692C15.2277 10.7692 15.1294 10.9258 14.9569 10.9058C14.8852 10.89 14.7686 10.8592 14.7069 10.4008C14.6602 10.0533 14.7186 9.5675 14.5711 9.34C14.5177 9.2025 14.4794 9.07 14.3494 9.305C14.3144 9.3975 14.1644 9.5375 14.2736 9.82667C14.3627 10.0092 14.3986 10.3067 14.3586 10.6383C14.2969 10.7325 14.2836 10.7642 14.2027 10.8583C14.0894 10.98 13.9669 10.9492 13.8727 10.9033C13.7844 10.8442 13.7161 10.8133 13.6761 10.625C13.6836 10.325 13.7002 9.83333 13.6452 9.72917C13.5644 9.5675 13.4311 9.62583 13.3736 9.675C13.0994 9.92583 12.9644 10.3483 12.8819 10.6842C12.8061 10.9292 12.7252 10.8592 12.6686 10.76C12.5302 10.63 12.5211 9.61583 12.3536 9.78333C12.0844 10.545 12.5052 11.3817 12.7969 11.3Z" fill="white"/>
<path d="M16.781 12.9367L16.701 12.8908L15.1335 12.8833C15.0527 12.8525 15.0768 12.8258 15.1335 12.8042C15.5077 12.7533 16.1735 12.645 16.2177 12.0058C16.2102 11.6733 16.0743 11.455 15.666 11.395C15.3668 11.4183 15.1527 11.7092 15.1868 12.0283C15.1727 12.115 15.2152 12.2833 15.1277 12.3025C14.5518 12.355 13.9243 12.715 13.9035 12.9733C13.8685 12.9975 13.7902 12.9275 13.8002 12.8175C13.7724 12.347 13.637 11.8891 13.4043 11.4792C13.2227 11.2975 13.2793 11.3575 13.1577 11.4433C13.0793 11.5333 13.0652 11.595 13.0693 11.7742C13.0693 11.7808 13.216 12.19 13.3402 12.4767C13.4227 12.7708 13.5002 13.1067 13.4443 13.4242C13.251 13.8442 12.8618 14.2208 12.4868 14.425C12.2935 14.4875 12.1277 14.465 12.0868 14.4217C11.9677 14.3417 11.9735 14.1942 11.9827 14.1917C12.2985 13.9708 12.6602 13.7933 12.9435 13.1992C13.0268 12.9725 13.0518 12.835 12.9693 12.4842C12.9464 12.3605 12.8896 12.2457 12.8052 12.1525C12.856 12.1192 13.0018 12.23 13.0243 12.1642C12.9821 11.9721 12.8865 11.7959 12.7485 11.6558C12.636 11.5533 12.5135 11.5417 12.4102 11.6358C12.2935 11.7008 12.2685 11.9325 12.3243 12.1358C12.386 12.2892 12.5535 12.315 12.6735 12.6225C12.6735 12.6292 12.7168 12.8525 12.6552 12.94C12.606 13.0933 11.9685 13.5942 11.9335 13.6167C11.916 13.6383 11.9235 13.6058 11.921 13.5225C11.9168 13.4208 11.9618 13.1808 11.9493 13.1792C11.7418 13.3133 11.6727 13.7242 11.6352 13.8458C11.1102 14.2083 10.516 14.4783 10.1727 14.8467C9.99349 15.1258 11.4043 14.5258 11.5685 14.4533C11.6052 14.48 11.601 14.6058 11.6993 14.7183C11.846 14.9167 12.156 15.0392 12.4602 14.9633C12.9685 14.7792 13.2627 14.4325 13.561 14.0483C13.6035 13.9858 13.6702 13.9383 13.7318 13.9858C13.9368 14.445 14.5293 14.77 15.2935 14.8042C15.471 14.5883 15.3852 14.4842 15.3135 14.4392C15.3135 14.4325 14.936 14.2892 14.8785 14.1458C14.8435 14.0158 14.9285 13.9017 15.0985 13.815C15.5893 13.7558 16.0718 13.69 16.5393 13.54C16.5443 13.3833 16.6352 13.1483 16.6977 13.0467C16.7577 12.9433 16.7902 12.9742 16.781 12.9367ZM15.4918 11.96C15.5152 11.9208 15.5927 11.9225 15.6652 11.965C15.7377 12.0067 15.7785 12.0733 15.7543 12.1125C15.731 12.1525 15.6527 12.15 15.5802 12.1075C15.5077 12.0658 15.4685 12 15.4918 11.96ZM14.861 13.5433C14.6927 13.6008 14.531 13.6458 14.531 13.8892C14.5935 14.2275 14.4452 14.1117 14.3577 14.065C14.2543 13.9908 13.9635 13.8117 13.9218 13.425C13.9152 13.3325 13.9877 13.255 14.1035 13.255C14.2777 13.3025 14.5352 13.3058 14.7585 13.3292C14.941 13.3408 15.0318 13.4842 14.861 13.5433ZM9.05516 9.78917C9.23516 9.87584 9.57516 9.83917 9.56016 9.5475C9.56016 9.52167 9.55349 9.435 9.55099 9.41167C9.51432 9.32583 9.41432 9.34667 9.39099 9.43584C9.38349 9.465 9.40349 9.51167 9.37766 9.52667C9.36266 9.54167 9.30516 9.5325 9.30766 9.4525C9.30766 9.42667 9.28849 9.39917 9.27766 9.38334C9.26599 9.37584 9.25932 9.37334 9.23849 9.37334C9.21349 9.37417 9.21349 9.38084 9.20016 9.4025C9.19432 9.42334 9.18599 9.445 9.18599 9.46917C9.18266 9.4975 9.17182 9.5075 9.15099 9.5125C9.12766 9.5125 9.13266 9.515 9.11432 9.5025C9.10266 9.49 9.08849 9.485 9.08849 9.46417C9.08842 9.43981 9.08448 9.41562 9.07682 9.3925C9.06682 9.37917 9.05099 9.37333 9.03266 9.36833C8.93432 9.36833 8.92766 9.48084 8.93349 9.52417C8.92432 9.53167 8.92099 9.73333 9.05516 9.78917Z" fill="white"/>
<path d="M14.5935 11.6892C14.5935 11.6633 14.5744 11.6367 14.5635 11.62C14.5519 11.6125 14.5452 11.61 14.5244 11.61C14.4994 11.6108 14.5002 11.6175 14.486 11.6392C14.4802 11.6608 14.4719 11.6817 14.4719 11.7058C14.4694 11.735 14.4577 11.745 14.4369 11.7492C14.4135 11.7492 14.4185 11.7517 14.3994 11.74C14.3877 11.7275 14.3735 11.7225 14.3735 11.7017C14.3736 11.6773 14.3696 11.6531 14.3619 11.63C14.3519 11.6167 14.336 11.6108 14.3177 11.6067C14.2194 11.6067 14.2127 11.7192 14.2177 11.7617C14.2102 11.77 14.206 11.9708 14.3402 12.0275C14.521 12.1133 14.9502 12.0633 14.8452 11.7858C14.8435 11.7402 14.8404 11.6946 14.836 11.6492C14.7994 11.5633 14.6985 11.585 14.676 11.6733C14.6694 11.7025 14.6894 11.7492 14.6627 11.7642C14.6494 11.7792 14.591 11.77 14.5935 11.6892ZM17.4244 11.1C17.6044 11.1867 17.9435 11.15 17.9285 10.8592C17.9268 10.8135 17.9237 10.768 17.9194 10.7225C17.8827 10.6367 17.7827 10.6583 17.7602 10.7467C17.7527 10.7758 17.7727 10.8225 17.746 10.8375C17.731 10.8525 17.6735 10.8442 17.6761 10.7633C17.6761 10.7375 17.6569 10.71 17.646 10.6942C17.6344 10.6867 17.6277 10.6842 17.6061 10.6842C17.581 10.6858 17.5819 10.6917 17.5677 10.7133C17.5619 10.735 17.5535 10.7558 17.5535 10.78C17.5502 10.8092 17.5394 10.8192 17.5185 10.8233C17.4952 10.8233 17.5002 10.8258 17.481 10.8142C17.4694 10.8017 17.456 10.7967 17.456 10.7758C17.456 10.7512 17.452 10.7267 17.4444 10.7033C17.4335 10.69 17.4185 10.6842 17.3994 10.68C17.301 10.68 17.2944 10.7925 17.3002 10.835C17.2944 10.8433 17.2902 11.0442 17.4244 11.1ZM17.5461 9.97333C17.6102 10.1533 17.4969 10.325 17.5644 10.35C17.6252 10.3783 17.7119 10.1642 17.7435 9.96667C17.781 9.80667 17.6669 9.47917 17.5052 9.41167C17.4069 9.38833 17.2669 9.44667 17.3119 9.57833C17.2894 9.64167 17.5102 9.85667 17.5461 9.97333ZM19.2085 14.1933C19.3344 14.1942 19.4794 13.9058 19.541 13.62C19.5752 13.2267 19.5177 12.9875 19.5077 12.7558C19.4969 12.525 19.2469 10.7625 19.1952 10.5875C19.1344 10.2567 19.4394 10.5433 19.406 10.3508C19.3002 10.1083 19.0377 9.75583 18.9544 9.545C18.9044 9.455 18.926 9.375 18.8144 9.52167C18.7119 9.85917 18.676 10.1342 18.7152 10.3442C18.9802 11.7275 19.2519 12.8775 19.2085 14.1933ZM22.3385 10.5767C22.3677 10.6667 22.2944 10.9575 22.3552 10.9842C22.411 11.0142 22.4894 10.7833 22.5185 10.5692C22.5344 10.4517 22.4485 10.0417 22.301 9.96833C22.211 9.94333 22.0835 10.0058 22.1252 10.1492C22.1044 10.2183 22.306 10.45 22.3385 10.5767ZM11.406 13.6233C11.4602 13.6458 11.5344 13.4758 11.5627 13.3183C11.5785 13.2317 11.4952 12.9308 11.3544 12.8767C11.2677 12.8583 11.1494 12.8817 11.186 13.01C11.1819 13.0792 11.3777 13.1625 11.3894 13.3233C11.4177 13.39 11.3477 13.6042 11.406 13.6233ZM7.60938 9.7775C7.63688 9.84667 7.58188 10.0675 7.63938 10.0883C7.69188 10.1117 7.76605 9.935 7.79355 9.7725C7.80938 9.6825 7.79688 9.3775 7.58855 9.315C7.50272 9.29583 7.38355 9.34333 7.42272 9.4525C7.40272 9.50417 7.57855 9.68083 7.60938 9.7775ZM11.6944 10.755C11.5352 10.8417 11.4727 11.0983 11.5727 11.2475C11.6652 11.38 11.8119 11.3308 11.8319 11.3308C11.9885 11.35 12.081 11.0375 12.081 11.0375C12.081 11.0375 12.086 10.95 11.9002 11.1158C11.8219 11.1308 11.8119 11.1017 11.7927 11.0567C11.7737 10.9751 11.7822 10.8896 11.8169 10.8133C11.8436 10.7358 11.7835 10.7017 11.6944 10.755ZM12.896 9.79417C12.9217 9.7783 12.9438 9.75717 12.9607 9.73218C12.9777 9.70719 12.9891 9.6789 12.9944 9.64917C13.0185 9.5275 12.8652 9.70667 12.846 9.57083C12.8119 9.445 12.9102 9.39333 13.0035 9.27167C13.0069 9.1875 13.0052 9.12833 12.891 9.19667C12.811 9.25083 12.651 9.41583 12.646 9.60583C12.641 9.71333 12.621 9.7125 12.6919 9.78083C12.7427 9.855 12.7936 9.8475 12.896 9.79417ZM13.9785 9.85917C14.0819 9.57917 14.0819 9.46083 14.0894 9.34167C14.0577 9.16083 13.9352 9.16667 13.8544 9.3675C13.8194 9.44333 13.7785 9.8425 13.7852 9.8425C13.7577 9.96167 13.9094 10.0125 13.9785 9.85917ZM20.7869 11.845C20.7869 11.845 19.951 12.4392 19.931 12.46C19.8477 12.5333 19.8894 12.7933 19.931 12.7633C19.9902 12.7867 20.831 12.2158 20.8144 12.1492C20.8535 12.1508 20.8727 11.815 20.7869 11.845ZM20.6844 13.4567C20.7402 13.4867 20.8877 13.3042 20.8819 13.0767C20.8986 12.9592 20.8394 12.5283 20.6927 12.455C20.6027 12.43 20.4827 12.5067 20.5244 12.6492C20.5035 12.7175 20.6277 12.9567 20.6602 13.0833C20.6894 13.1742 20.6235 13.43 20.6844 13.4567ZM15.951 14.7033C15.951 14.7108 16.0219 14.7717 16.1052 14.7233C16.2802 14.6558 16.3902 14.5908 16.6352 14.5367C16.6994 14.5358 16.6952 14.3633 16.5935 14.3575C16.4611 14.3642 16.3377 14.3708 16.2052 14.4758C16.1235 14.4942 16.1102 14.445 16.0919 14.4C16.0719 14.2892 16.1377 14.2125 16.1235 14.13C16.1285 14.135 16.0477 14.0608 15.9652 14.1025C15.9611 14.1025 15.781 14.2242 15.7235 14.3092C15.6877 14.3367 15.6919 14.36 15.7027 14.4058C15.7302 14.4692 15.7794 14.45 15.8344 14.42C15.9077 14.41 15.9427 14.4583 15.9369 14.5458C15.9019 14.6567 15.951 14.6975 15.951 14.7033ZM21.4102 14.8417C21.3827 14.8892 21.3644 14.9608 21.4494 14.9833C21.606 15.0275 21.9669 14.7925 21.9669 14.7883C22.0252 14.7442 22.006 14.6617 22.001 14.6617C21.9669 14.6225 21.8902 14.645 21.8385 14.6392C21.8144 14.6392 21.7327 14.6267 21.7719 14.555C21.7994 14.5164 21.8213 14.474 21.8369 14.4292C21.861 14.375 21.8402 14.3392 21.7519 14.31C21.6627 14.2933 21.6269 14.3017 21.5277 14.31C21.4744 14.3217 21.456 14.345 21.446 14.41C21.4502 14.5083 21.5094 14.5033 21.571 14.5425C21.6069 14.5883 21.6302 14.63 21.5685 14.7042C21.5102 14.7583 21.4694 14.7883 21.4102 14.8417ZM21.2502 19.1667H20.0002V18.75C20.0002 18.6395 19.9563 18.5335 19.8782 18.4554C19.8 18.3772 19.6941 18.3333 19.5835 18.3333C19.473 18.3333 19.3671 18.3772 19.2889 18.4554C19.2108 18.5335 19.1669 18.6395 19.1669 18.75V19.1667H9.16688C9.16688 19.1667 9.16688 20 11.6669 20H19.1669V20.4167C19.1669 20.5272 19.2108 20.6332 19.2889 20.7113C19.3671 20.7894 19.473 20.8333 19.5835 20.8333C19.6941 20.8333 19.8 20.7894 19.8782 20.7113C19.9563 20.6332 20.0002 20.5272 20.0002 20.4167V20H20.8335V20.4167C20.8335 20.5272 20.8774 20.6332 20.9556 20.7113C21.0337 20.7894 21.1397 20.8333 21.2502 20.8333C21.3607 20.8333 21.4667 20.7894 21.5448 20.7113C21.623 20.6332 21.6669 20.5272 21.6669 20.4167V19.5833C21.6669 19.4728 21.623 19.3668 21.5448 19.2887C21.4667 19.2106 21.3607 19.1667 21.2502 19.1667Z" fill="white"/>
</g>
<defs>
<clipPath id="clip0_375_3969">
<rect width="30" height="30" fill="white"/>
</clipPath>
</defs>
</svg>
