<svg width="145" height="143" viewBox="0 0 145 143" fill="none" xmlns="http://www.w3.org/2000/svg">
<g filter="url(#filter0_d_264_586)">
<ellipse cx="72.5" cy="61" rx="29.5" ry="29" fill="#5B72EE"/>
</g>
<g clip-path="url(#clip0_264_586)">
<path d="M77.6611 61H67.9261V64.335H77.6611V61ZM82.1737 53.1315L77.2098 48.0248C76.9817 47.7903 76.6724 47.66 76.3479 47.66H76.0386V54.33H82.5286V54.0122C82.5286 53.6839 82.4018 53.366 82.1737 53.1315ZM74.4161 54.7469V47.66H64.2755C63.6011 47.66 63.0586 48.2176 63.0586 48.9107V73.0894C63.0586 73.7825 63.6011 74.34 64.2755 74.34H81.3117C81.9861 74.34 82.5286 73.7825 82.5286 73.0894V55.9975H75.633C74.9637 55.9975 74.4161 55.4348 74.4161 54.7469ZM66.3036 51.4119C66.3036 51.1816 66.4851 50.995 66.7092 50.995H70.7655C70.9896 50.995 71.1711 51.1816 71.1711 51.4119V52.2457C71.1711 52.476 70.9896 52.6625 70.7655 52.6625H66.7092C66.4851 52.6625 66.3036 52.476 66.3036 52.2457V51.4119ZM66.3036 54.7469C66.3036 54.5166 66.4851 54.33 66.7092 54.33H70.7655C70.9896 54.33 71.1711 54.5166 71.1711 54.7469V55.5807C71.1711 55.811 70.9896 55.9975 70.7655 55.9975H66.7092C66.4851 55.9975 66.3036 55.811 66.3036 55.5807V54.7469ZM79.2836 70.5882C79.2836 70.8185 79.1021 71.005 78.878 71.005H74.8217C74.5976 71.005 74.4161 70.8185 74.4161 70.5882V69.7544C74.4161 69.5241 74.5976 69.3375 74.8217 69.3375H78.878C79.1021 69.3375 79.2836 69.5241 79.2836 69.7544V70.5882ZM79.2836 60.1663V65.1688C79.2836 65.6294 78.9206 66.0025 78.4723 66.0025H67.1148C66.6666 66.0025 66.3036 65.6294 66.3036 65.1688V60.1663C66.3036 59.7056 66.6666 59.3325 67.1148 59.3325H78.4723C78.9206 59.3325 79.2836 59.7056 79.2836 60.1663Z" fill="white"/>
</g>
<defs>
<filter id="filter0_d_264_586" x="0.750008" y="0.312506" width="143.5" height="142.5" filterUnits="userSpaceOnUse" color-interpolation-filters="sRGB">
<feFlood flood-opacity="0" result="BackgroundImageFix"/>
<feColorMatrix in="SourceAlpha" type="matrix" values="0 0 0 0 0 0 0 0 0 0 0 0 0 0 0 0 0 0 127 0" result="hardAlpha"/>
<feOffset dy="10.5625"/>
<feGaussianBlur stdDeviation="21.125"/>
<feColorMatrix type="matrix" values="0 0 0 0 0.212 0 0 0 0 0.238778 0 0 0 0 0.533333 0 0 0 0.06 0"/>
<feBlend mode="normal" in2="BackgroundImageFix" result="effect1_dropShadow_264_586"/>
<feBlend mode="normal" in="SourceGraphic" in2="effect1_dropShadow_264_586" result="shape"/>
</filter>
<clipPath id="clip0_264_586">
<rect width="19.47" height="26.68" fill="white" transform="translate(63.0586 47.66)"/>
</clipPath>
</defs>
</svg>
