<svg width="24" height="24" viewBox="0 0 24 24" fill="none" xmlns="http://www.w3.org/2000/svg">
<path d="M11.9998 5C4.3668 5 2.0728 11.617 2.0518 11.684L1.9458 12L2.0508 12.316C2.0728 12.383 4.3668 19 11.9998 19C19.6328 19 21.9268 12.383 21.9478 12.316L22.0538 12L21.9488 11.684C21.9268 11.617 19.6328 5 11.9998 5ZM11.9998 16C9.7938 16 7.9998 14.206 7.9998 12C7.9998 9.794 9.7938 8 11.9998 8C14.2058 8 15.9998 9.794 15.9998 12C15.9998 14.206 14.2058 16 11.9998 16Z" fill="#033329"/>
<path d="M12 10C10.916 10 10 10.916 10 12C10 13.084 10.916 14 12 14C13.084 14 14 13.084 14 12C14 10.916 13.084 10 12 10Z" fill="#033329"/>
</svg>
