<svg width="20" height="20" viewBox="0 0 20 20" fill="none" xmlns="http://www.w3.org/2000/svg">
<path d="M10.5 12C10.8978 12 11.2794 12.158 11.5607 12.4393C11.842 12.7206 12 13.1022 12 13.5V14C12 15.971 10.14 18 7 18C3.86 18 2 15.971 2 14V13.5C2 13.1022 2.15804 12.7206 2.43934 12.4393C2.72064 12.158 3.10218 12 3.5 12H10.5ZM7 5.5C7.72935 5.5 8.42882 5.78973 8.94454 6.30546C9.46027 6.82118 9.75 7.52065 9.75 8.25C9.75 8.97935 9.46027 9.67882 8.94454 10.1945C8.42882 10.7103 7.72935 11 7 11C6.27065 11 5.57118 10.7103 5.05546 10.1945C4.53973 9.67882 4.25 8.97935 4.25 8.25C4.25 7.52065 4.53973 6.82118 5.05546 6.30546C5.57118 5.78973 6.27065 5.5 7 5.5ZM16 2C16.5044 2.00009 16.9901 2.19077 17.3599 2.53384C17.7297 2.8769 17.9562 3.34702 17.994 3.85L18 4V6C18.0002 6.50458 17.8096 6.99057 17.4665 7.36055C17.1234 7.73053 16.6532 7.95716 16.15 7.995L16 8H14.499L13.301 9.6C12.771 10.306 11.697 10.02 11.524 9.224L11.507 9.113L11.5 9V7.935L11.422 7.915C11.0626 7.8061 10.741 7.59834 10.494 7.31542C10.2469 7.03251 10.0844 6.68585 10.025 6.315L10.005 6.149L10 6V4C9.99984 3.49542 10.1904 3.00943 10.5335 2.63945C10.8766 2.26947 11.3468 2.04284 11.85 2.005L12 2H16Z" fill="#033329"/>
</svg>
