<svg width="108" height="102" viewBox="0 0 108 102" fill="none" xmlns="http://www.w3.org/2000/svg">
<path d="M19.7867 51.2905L14.4506 52.7834C14.0862 50.9842 12.331 49.5652 10.4948 49.5811C9.51416 49.5881 8.57934 49.9543 7.63747 50.2254C6.69561 50.4965 5.66571 50.6743 4.75202 50.3152C3.84008 49.9578 3.1482 48.8892 3.51438 47.9808C3.85064 47.1498 4.83124 46.8294 5.6886 46.5688C6.54596 46.3083 7.51776 45.8787 7.70965 45.0038C7.89275 44.164 7.19031 43.333 6.37167 43.076C5.55128 42.819 4.66575 42.9898 3.82951 43.1922C2.99504 43.3947 2.13591 43.6288 1.28911 43.4897C0.694065 43.3929 0.0585243 43.0109 0.00394887 42.4088C-0.0647106 41.6535 0.775048 41.1624 1.50389 40.9476C2.05845 40.7838 2.7116 40.6219 3.10595 40.1659C3.53551 39.6695 3.16581 38.8579 2.79786 38.4353C2.42992 38.0111 1.9405 37.7171 1.47925 37.3966C1.018 37.0762 0.563788 36.7083 0.320839 36.203C0.0409199 35.6203 0.084932 34.9126 0.350767 34.3246C0.618363 33.7348 1.09018 33.2577 1.62537 32.8933C2.38062 32.381 3.36826 32.0835 4.2133 32.4285C4.98088 32.7419 5.46502 33.5112 5.74494 34.2911C5.88049 34.6661 5.97908 35.0534 6.08295 35.439C6.1657 35.7435 6.18506 36.1185 6.31534 36.4002C6.56885 36.9424 7.22023 37.2435 7.79944 37.2065C8.50892 37.1607 9.13566 36.7294 9.64268 36.2312C10.1497 35.733 10.5775 35.1555 11.1233 34.6996C11.669 34.2436 12.3767 33.9109 13.0774 34.0341C13.9612 34.189 14.5897 35.0464 14.7428 35.9284C14.896 36.8122 14.6654 37.7135 14.3855 38.5656C14.2974 38.835 14.2041 39.1061 14.1901 39.3895C14.176 39.673 14.2534 39.974 14.4612 40.1659C14.7323 40.4159 15.1566 40.4229 15.5051 40.3068C15.8555 40.1888 16.16 39.9687 16.4875 39.8015C17.2903 39.3931 18.2533 39.3156 19.1159 39.5761C19.9293 39.8226 20.2426 40.8912 20.1071 41.6641C19.9592 42.5074 19.4275 43.2257 18.9328 43.9246C18.4381 44.6235 17.9505 45.3876 17.91 46.2432C17.8272 48.016 19.6863 49.5212 19.7849 51.2923L19.7867 51.2905Z" fill="#00BDAA"/>
<g style="mix-blend-mode:multiply">
<path d="M17.7158 41.6535C17.5873 41.5303 17.413 41.5549 17.2863 41.6606C16.0345 42.7081 15.1684 44.1992 14.8673 45.803C14.4237 45.2766 13.9554 44.7696 13.4765 44.2802C12.1755 42.9528 10.7988 41.7063 9.44147 40.437C9.4626 40.4159 9.48372 40.3948 9.49957 40.3631C10.3605 38.6395 11.8181 37.2347 13.5927 36.4724C13.7441 36.4072 13.8498 36.2717 13.804 36.0974C13.7653 35.9548 13.5804 35.8227 13.429 35.8861C11.5206 36.7047 9.93969 38.1607 8.99782 40.0145C8.3394 39.393 7.68625 38.7645 7.05247 38.1149C5.85533 36.8878 4.69869 35.6238 3.57901 34.3263C3.32374 34.0306 2.90298 34.4689 3.15649 34.7629C4.8272 36.6995 6.58946 38.555 8.43094 40.3296C6.85354 40.4722 5.29902 40.8032 3.80083 41.3243C3.43289 41.4528 3.59485 42.0373 3.96456 41.9088C5.58774 41.3437 7.27606 41.0004 8.99078 40.893C8.99783 40.893 9.00311 40.8877 9.01015 40.8877C9.09641 40.9687 9.17916 41.0532 9.26542 41.1342C10.7689 42.5426 12.3357 43.9105 13.7318 45.4298C11.7213 45.796 9.79181 46.5231 8.04187 47.5811C7.70738 47.7836 8.01899 48.3047 8.35524 48.1022C10.1527 47.016 12.135 46.2977 14.2054 45.9615C14.5804 46.3928 14.9448 46.8329 15.2828 47.2941C16.2282 48.5811 17.0028 49.986 17.4658 51.5176C17.5785 51.8908 18.163 51.7288 18.0503 51.3539C17.4817 49.4701 16.4729 47.7906 15.2546 46.2695C15.3409 46.2343 15.4148 46.1674 15.4307 46.0741C15.6948 44.5126 16.5099 43.0954 17.7246 42.0813C17.8496 41.9757 17.8267 41.7574 17.7176 41.6518L17.7158 41.6535Z" fill="#1BA89A"/>
</g>
<path d="M17.9683 37.7259C17.8961 37.7153 13.9368 37.7189 13.9368 37.7189C14.4139 36.2418 13.4104 34.5887 11.9703 34.0113C11.3594 33.7665 10.6904 33.7208 10.0478 33.5764C9.40526 33.432 8.74507 33.1486 8.40002 32.5905C8.09017 32.0905 8.10073 31.411 8.42466 30.9198C8.7486 30.4286 9.37005 30.1522 9.95102 30.2385C10.3084 30.2913 10.6394 30.4691 10.9968 30.5167C11.3541 30.5642 11.789 30.4181 11.8788 30.0677C11.9985 29.5994 11.4369 29.2456 10.958 29.1752C10.2415 29.0695 9.51441 29.2104 8.79085 29.2649C8.06904 29.3195 7.29266 29.2737 6.7029 28.853C6.11313 28.4322 5.82265 27.5291 6.26805 26.9569C6.60079 26.5291 7.20112 26.4217 7.74335 26.4323C8.28558 26.4429 8.84014 26.5344 9.35949 26.3812C9.87883 26.2281 10.3506 25.7105 10.2116 25.1859C10.1007 24.7651 9.66934 24.531 9.28555 24.3232C8.54438 23.9236 7.81905 23.4377 7.35076 22.737C6.88247 22.0381 6.71522 21.0839 7.12189 20.3463C7.65356 19.3797 9.01443 19.1069 10.0285 19.54C11.0425 19.973 11.7379 20.9378 12.1745 21.9501C12.502 22.7106 12.8206 23.6243 13.6111 23.8708C14.2361 24.0662 14.891 23.744 15.486 23.4711C16.0811 23.1983 16.8117 22.9764 17.3592 23.3356C18.0141 23.7651 17.9771 24.7722 17.5916 25.4535C17.206 26.1348 16.574 26.6488 16.1726 27.3214C15.773 27.9939 15.6885 28.9868 16.3135 29.4586C16.8381 29.8547 17.5775 29.691 18.2095 29.5097C18.8398 29.3266 19.5774 29.1593 20.1073 29.5484C20.6038 29.9128 20.6936 30.6452 20.5087 31.2332C20.3239 31.8212 19.9242 32.3124 19.5809 32.8247C18.5722 34.3299 18.0018 35.9161 17.9666 37.7294L17.9683 37.7259Z" fill="#1BDBC8"/>
<g style="mix-blend-mode:multiply">
<path d="M9.31753 21.2176C10.9689 22.8813 12.3438 24.7932 13.4072 26.8635C13.8825 26.0132 14.6202 25.309 15.4951 24.8829C15.643 24.8108 15.8226 24.8425 15.9106 24.9921C15.9881 25.1259 15.9493 25.3354 15.8015 25.4076C15.342 25.6312 14.9687 25.8952 14.6184 26.2509C14.2698 26.603 14.0057 26.9815 13.7874 27.4427C13.7734 27.4726 13.7505 27.4938 13.7276 27.5149C14.4142 28.9603 14.9476 30.476 15.3226 32.0341C15.9476 31.4197 16.738 30.9778 17.5901 30.7665C17.9686 30.6732 18.1306 31.2577 17.7521 31.3528C16.8754 31.5711 16.0937 32.0517 15.4986 32.7348C15.4934 32.7401 15.4863 32.7418 15.481 32.7471C15.6465 33.5428 15.7733 34.3474 15.8525 35.159C15.8895 35.548 15.2821 35.5445 15.2451 35.159C15.187 34.5551 15.1008 33.9566 14.9934 33.3615C13.6325 32.8281 12.1924 32.557 10.7312 32.5693C10.3404 32.5728 10.3404 31.9654 10.7312 31.9619C12.1343 31.9496 13.5322 32.189 14.8508 32.6644C14.4828 30.9567 13.9124 29.2965 13.1589 27.7226C11.9125 27.5519 10.6414 27.6909 9.45485 28.1029C9.08515 28.2314 8.9267 27.6452 9.29289 27.5167C10.4355 27.1205 11.6414 26.9815 12.8403 27.0818C11.8069 25.0889 10.4759 23.2492 8.88797 21.6489C8.61157 21.3707 9.04114 20.9412 9.31753 21.2193V21.2176Z" fill="#1BA89A"/>
</g>
<path d="M62.2871 3.22705H25.8271V71.5555H62.2871V3.22705Z" fill="#087568"/>
<path d="M37.3831 8.38H28.3359V17.4272H37.3831V8.38Z" fill="white"/>
<path d="M37.0587 8.70398H28.6611V17.1016H37.0587V8.70398Z" fill="#FFC85F"/>
<path d="M31.6622 8.70398H31.1992V17.1016H31.6622V8.70398Z" fill="white"/>
<path d="M48.5804 8.38H39.5332V17.4272H48.5804V8.38Z" fill="white"/>
<path d="M48.255 8.70398H39.8574V17.1016H48.255V8.70398Z" fill="#FFC85F"/>
<path d="M42.8575 8.70398H42.3945V17.1016H42.8575V8.70398Z" fill="white"/>
<path d="M59.7786 8.38H50.7314V17.4272H59.7786V8.38Z" fill="white"/>
<path d="M59.4523 8.70398H51.0547V17.1016H59.4523V8.70398Z" fill="#FFC85F"/>
<path d="M54.0558 8.70398H53.5928V17.1016H54.0558V8.70398Z" fill="white"/>
<path d="M37.3831 26.6222H28.3359V35.6694H37.3831V26.6222Z" fill="white"/>
<path d="M37.0587 26.9463H28.6611V35.3439H37.0587V26.9463Z" fill="#FFC85F"/>
<path d="M31.6622 26.9463H31.1992V35.3439H31.6622V26.9463Z" fill="white"/>
<path d="M48.5804 26.6222H39.5332V35.6694H48.5804V26.6222Z" fill="white"/>
<path d="M48.255 26.9463H39.8574V35.3439H48.255V26.9463Z" fill="#FFC85F"/>
<path d="M42.8575 26.9463H42.3945V35.3439H42.8575V26.9463Z" fill="white"/>
<path d="M59.7786 26.6222H50.7314V35.6694H59.7786V26.6222Z" fill="white"/>
<path d="M59.4523 26.9463H51.0547V35.3439H59.4523V26.9463Z" fill="#FFC85F"/>
<path d="M54.0558 26.9463H53.5928V35.3439H54.0558V26.9463Z" fill="white"/>
<path d="M37.3831 36.8561H28.3359V45.9033H37.3831V36.8561Z" fill="white"/>
<path d="M37.0587 37.1799H28.6611V45.5775H37.0587V37.1799Z" fill="#FFC85F"/>
<path d="M31.6622 37.1799H31.1992V45.5775H31.6622V37.1799Z" fill="white"/>
<path d="M48.5804 36.8561H39.5332V45.9033H48.5804V36.8561Z" fill="white"/>
<path d="M48.255 37.1799H39.8574V45.5775H48.255V37.1799Z" fill="#FFC85F"/>
<path d="M42.8575 37.1799H42.3945V45.5775H42.8575V37.1799Z" fill="white"/>
<path d="M59.7786 36.8561H50.7314V45.9033H59.7786V36.8561Z" fill="white"/>
<path d="M59.4523 37.1799H51.0547V45.5775H59.4523V37.1799Z" fill="#FFC85F"/>
<path d="M54.0558 37.1799H53.5928V45.5775H54.0558V37.1799Z" fill="white"/>
<path d="M37.3831 55.2058H28.3359V64.253H37.3831V55.2058Z" fill="white"/>
<path d="M37.0587 55.5316H28.6611V63.9292H37.0587V55.5316Z" fill="#FFC85F"/>
<path d="M31.6622 55.5316H31.1992V63.9292H31.6622V55.5316Z" fill="white"/>
<path d="M48.5804 55.2058H39.5332V64.253H48.5804V55.2058Z" fill="white"/>
<path d="M48.255 55.5316H39.8574V63.9292H48.255V55.5316Z" fill="#FFC85F"/>
<path d="M42.8575 55.5316H42.3945V63.9292H42.8575V55.5316Z" fill="white"/>
<path d="M59.7786 55.2058H50.7314V64.253H59.7786V55.2058Z" fill="white"/>
<path d="M59.4523 55.5316H51.0547V63.9292H59.4523V55.5316Z" fill="#FFC85F"/>
<path d="M54.0558 55.5316H53.5928V63.9292H54.0558V55.5316Z" fill="white"/>
<path d="M63.2886 18.2423H24.8252V25.3618H63.2886V18.2423Z" fill="#00BDAA"/>
<path d="M63.2886 0H24.8252V7.11946H63.2886V0Z" fill="#00BDAA"/>
<path d="M63.2886 47.09H24.8252V54.2094H63.2886V47.09Z" fill="#00BDAA"/>
<g style="mix-blend-mode:multiply">
<path d="M25.8271 7.11951L62.2871 13.8675V7.11951H25.8271Z" fill="#DDD4B1"/>
</g>
<g style="mix-blend-mode:multiply">
<path d="M25.8271 25.4393L62.2871 32.1873V25.4393H25.8271Z" fill="#C4F2ED"/>
</g>
<g style="mix-blend-mode:multiply">
<path d="M25.8271 54.3291L62.2871 61.0771V54.3291H25.8271Z" fill="#C4F2ED"/>
</g>
<path d="M92.2788 55.697C94.0305 55.8308 95.8262 55.2287 97.1431 54.0668C98.4599 52.9031 99.2786 51.1954 99.3613 49.4402C99.4 48.611 99.2821 47.7818 99.3085 46.9508C99.3349 46.1216 99.525 45.2537 100.085 44.641C101.34 43.2643 103.94 43.6288 104.895 42.0302C105.458 41.0848 105.16 39.8895 105.196 38.7891C105.255 36.9653 106.372 35.2118 108 34.3879C106.486 33.814 104.923 33.2312 103.305 33.2823C101.687 33.3334 99.981 34.1766 99.4124 35.6924C99.1412 36.416 99.136 37.2522 98.687 37.8825C98.099 38.7099 96.96 38.9001 95.9459 38.9317C94.9319 38.9634 93.8369 38.9317 93.0024 39.5092C92.1714 40.0849 91.8088 41.1465 91.7489 42.1552C91.689 43.164 91.8757 44.171 91.8968 45.1798C91.9179 46.1903 91.7419 47.2659 91.0729 48.023C90.3264 48.8698 89.087 49.1796 88.4057 50.0792C87.6135 51.1214 87.8388 52.6689 88.58 53.7481C89.3212 54.8273 90.4673 55.5438 91.5817 56.2304" fill="#00BDAA"/>
<g style="mix-blend-mode:multiply">
<path d="M103.153 35.754C101.354 36.1273 101.896 38.4652 100.872 39.5321C99.6501 40.8067 97.6255 40.6289 96.2241 41.6165C95.6432 42.0267 95.1643 42.6341 95.0464 43.3488C94.9003 44.2467 95.4619 45.0072 95.6309 45.854C95.7928 46.6568 95.571 47.5054 95.0464 48.1321C94.5235 48.7553 93.7806 49.1479 93.1327 49.6233C92.4514 50.1232 91.8916 50.7376 91.6204 51.5528C91.3493 52.3679 91.3775 53.2428 91.6873 54.0403C91.8053 54.3414 92.2577 54.1213 92.1416 53.8203C91.8634 53.1055 91.8704 52.3062 92.1416 51.5915C92.4179 50.8662 92.9602 50.3609 93.5799 49.9208C94.1925 49.4859 94.8492 49.1039 95.3562 48.5388C95.8351 48.0054 96.1291 47.324 96.1784 46.6075C96.2365 45.7449 95.8474 45.06 95.6185 44.2572C95.3932 43.465 95.659 42.7608 96.2664 42.2239C97.4987 41.1359 99.3402 41.2398 100.687 40.3331C101.412 39.8454 101.798 39.1694 101.993 38.3279C102.168 37.5762 102.326 36.4371 103.243 36.247C103.56 36.1818 103.47 35.6854 103.152 35.7523L103.153 35.754Z" fill="#1BA89A"/>
</g>
<path d="M104.794 23.2596C103.141 22.6522 101.236 22.7754 99.6749 23.5905C98.1151 24.4057 96.9233 25.8986 96.4761 27.601C96.2314 28.5305 96.1627 29.5868 95.4779 30.2611C94.1487 31.5691 91.6048 30.4512 90.2034 31.6836C89.3654 32.4212 89.3073 33.6976 89.4341 34.8067C89.5626 35.9158 89.8038 37.0883 89.3602 38.1129C89.0257 38.8858 88.3179 39.5143 88.2352 40.3523C88.1542 41.1691 88.7264 41.9402 89.4411 42.3451C90.1559 42.7501 90.9939 42.8645 91.809 42.9719L92.5343 43.6778C92.8547 41.0107 94.6857 38.5777 97.1592 37.5302C98.0253 37.1622 99.0024 36.9281 99.6362 36.2309C100.545 35.2327 100.407 33.7011 100.229 32.3649C100.052 31.0269 99.9548 29.4812 100.907 28.5252C101.462 27.9689 102.263 27.7453 103.036 27.6098C103.809 27.4742 104.608 27.4038 105.319 27.0728C106.03 26.7418 106.652 26.0693 106.646 25.2841C106.639 24.3088 105.708 23.5941 104.793 23.2578L104.794 23.2596Z" fill="#1BDBC8"/>
<g style="mix-blend-mode:multiply">
<path d="M104.185 25.0906C102.615 25.029 100.971 25.4339 99.8264 26.5677C99.307 27.0835 98.8986 27.7279 98.7084 28.4373C98.4937 29.2366 98.6679 30.0887 98.4303 30.8774C97.918 32.578 95.6505 32.4583 94.2861 32.8738C93.5695 33.0921 92.8988 33.4759 92.4798 34.1149C92.0731 34.7364 92.0872 35.3895 92.3478 36.0603C92.5185 36.4987 92.7245 36.9247 92.5537 37.3965C92.4023 37.8155 92.0626 38.1447 91.7527 38.4528C91.1541 39.0443 90.4975 39.7802 90.7263 40.6904C90.8056 41.0038 91.2967 40.8911 91.2175 40.576C91.0063 39.7345 91.8337 39.1095 92.3407 38.5743C92.802 38.0866 93.2016 37.5074 93.1136 36.8032C93.0185 36.0515 92.4287 35.423 92.765 34.6449C93.0713 33.9354 93.8002 33.5322 94.5097 33.3333C95.8652 32.953 97.5043 33.0023 98.4866 31.8245C98.9743 31.24 99.0412 30.5077 99.0641 29.7753C99.0905 28.9989 99.1943 28.293 99.6186 27.624C100.59 26.0906 102.434 25.5272 104.168 25.5959C104.492 25.6082 104.513 25.1047 104.187 25.0924L104.185 25.0906Z" fill="#1BA89A"/>
</g>
<path d="M95.8736 19.5962H57.7236V71.5556H95.8736V19.5962Z" fill="#FFAF49"/>
<path d="M93.8859 21.4307H59.7129V27.397H93.8859V21.4307Z" fill="white"/>
<path d="M93.5006 21.7793H60.0986V27.0467H93.5006V21.7793Z" fill="#8D4DB6"/>
<path d="M93.8859 28.9655H59.7129V34.9318H93.8859V28.9655Z" fill="white"/>
<path d="M93.5006 29.3157H60.0986V34.5831H93.5006V29.3157Z" fill="#8D4DB6"/>
<path d="M93.8859 36.5005H59.7129V42.4668H93.8859V36.5005Z" fill="white"/>
<path d="M93.5006 36.8507H60.0986V42.1181H93.5006V36.8507Z" fill="#8D4DB6"/>
<path d="M93.8859 44.0372H59.7129V50.0036H93.8859V44.0372Z" fill="white"/>
<path d="M93.5006 44.3875H60.0986V49.6549H93.5006V44.3875Z" fill="#8D4DB6"/>
<path d="M93.8859 51.5721H59.7129V57.5385H93.8859V51.5721Z" fill="white"/>
<path d="M93.5006 51.9224H60.0986V57.1898H93.5006V51.9224Z" fill="#8D4DB6"/>
<path d="M93.8859 59.1089H59.7129V65.0752H93.8859V59.1089Z" fill="white"/>
<path d="M93.5006 59.4591H60.0986V64.7265H93.5006V59.4591Z" fill="#8D4DB6"/>
<path d="M96.6105 14.5294H56.9834V20.6876H96.6105V14.5294Z" fill="#FFC85F"/>
<g style="mix-blend-mode:overlay" opacity="0.3">
<path d="M93.0654 34.5832H93.4985V33.5181L93.0654 34.5832Z" fill="white"/>
<path d="M80.7891 64.7265H83.2362L85.3822 59.4591H82.9334L80.7891 64.7265Z" fill="white"/>
<path d="M83.8574 57.1898H86.3045L88.4506 51.9224H86.0035L83.8574 57.1898Z" fill="white"/>
<path d="M86.9287 49.6531H89.3758L91.5201 44.3875H89.073L86.9287 49.6531Z" fill="white"/>
<path d="M89.9971 42.1181H92.4442L93.4987 39.5267V36.8507H92.1431L89.9971 42.1181Z" fill="white"/>
<path d="M71.0447 59.4591L68.9004 64.7265H71.3475L73.4918 59.4591H71.0447Z" fill="white"/>
<path d="M71.9688 57.1898H74.4158L76.5619 51.9224H74.113L71.9688 57.1898Z" fill="white"/>
<path d="M79.6303 44.3875H77.1832L75.0371 49.6531H77.4842L79.6303 44.3875Z" fill="white"/>
<path d="M80.5555 42.1181L82.6998 36.8507H80.2527L78.1084 42.1181H80.5555Z" fill="white"/>
<path d="M85.7699 29.3157H83.3228L81.1768 34.5831H83.6239L85.7699 29.3157Z" fill="white"/>
<path d="M88.8385 21.7793H86.3931L84.2471 27.0467H86.6942L88.8385 21.7793Z" fill="white"/>
<path d="M72.7871 64.7265H73.8751L76.0194 59.4591H74.9314L72.7871 64.7265Z" fill="white"/>
<path d="M75.8574 57.1898H76.9454L79.0915 51.9224H78.0035L75.8574 57.1898Z" fill="white"/>
<path d="M81.071 44.3875L78.9268 49.6531H80.013L82.159 44.3875H81.071Z" fill="white"/>
<path d="M81.9951 42.1181H83.0831L85.2274 36.8507H84.1394L81.9951 42.1181Z" fill="white"/>
<path d="M88.2975 29.3157H87.2095L85.0635 34.5831H86.1515L88.2975 29.3157Z" fill="white"/>
<path d="M89.2218 27.0467L91.3661 21.7793H90.2781L88.1338 27.0467H89.2218Z" fill="white"/>
<path d="M60.1523 64.7265H61.2386L63.3829 59.4591H62.2984L60.1523 64.7265Z" fill="white"/>
<path d="M63.2236 57.1898H64.3081L66.4559 51.9224H65.3679L63.2236 57.1898Z" fill="white"/>
<path d="M68.4353 44.3875L66.291 49.6531H67.379L69.5233 44.3875H68.4353Z" fill="white"/>
<path d="M72.5934 36.8507H71.5054L69.3594 42.1181H70.4474L72.5934 36.8507Z" fill="white"/>
<path d="M75.6629 29.3157H74.575L72.4307 34.5831H73.5187L75.6629 29.3157Z" fill="white"/>
<path d="M78.7313 21.7793H77.6451L75.499 27.0467H76.587L78.7313 21.7793Z" fill="white"/>
</g>
<g style="mix-blend-mode:multiply">
<path d="M57.7236 20.6876L95.8736 33.0886V20.6876H57.7236Z" fill="#DDD4B1"/>
</g>
<path d="M71.4033 43.4774H30.4629V69.0328H71.4033V43.4774Z" fill="#FFC85F"/>
<path d="M45.2386 44.1852H6.61328L20.6198 30.1787H59.2434L45.2386 44.1852Z" fill="#C83636"/>
<path d="M21.6498 30.7014L8.87207 43.4774V69.0328H34.4275V43.4774L21.6498 30.7014Z" fill="#FFC85F"/>
<g style="mix-blend-mode:multiply">
<path d="M21.0605 31.2893L34.428 46.2377H71.4055V43.4772L21.388 30.9636L21.0605 31.2893Z" fill="#DDD4B1"/>
</g>
<path d="M15.8334 53.3557H10.8213V58.3679H15.8334V53.3557Z" fill="white"/>
<path d="M15.5435 53.646H11.1123V58.0772H15.5435V53.646Z" fill="#8D4DB6"/>
<path d="M15.8334 58.3661H10.8213V63.3782H15.8334V58.3661Z" fill="white"/>
<path d="M15.5435 58.6582H11.1123V63.0894H15.5435V58.6582Z" fill="#8D4DB6"/>
<path d="M32.478 53.3557H27.4658V58.3679H32.478V53.3557Z" fill="white"/>
<path d="M32.187 53.646H27.7559V58.0772H32.187V53.646Z" fill="#8D4DB6"/>
<path d="M32.478 58.3661H27.4658V63.3782H32.478V58.3661Z" fill="white"/>
<path d="M32.187 58.6582H27.7559V63.0894H32.187V58.6582Z" fill="#8D4DB6"/>
<path d="M25.9647 53.3557H17.333V69.3604H25.9647V53.3557Z" fill="white"/>
<path d="M25.6219 53.6813H17.6768V69.0346H25.6219V53.6813Z" fill="#8D4DB6"/>
<path d="M71.405 69.0327H8.87207V71.5537H71.405V69.0327Z" fill="#FFAF49"/>
<path d="M25.0966 62.1667C25.0966 62.4431 24.8731 62.6667 24.5967 62.6667C24.3203 62.6667 24.0967 62.4431 24.0967 62.1667C24.0967 61.8903 24.3203 61.6667 24.5967 61.6667C24.8731 61.6667 25.0966 61.8903 25.0966 62.1667Z" fill="white"/>
<path d="M34.6346 44.1852H73.26L59.2535 30.1787H20.6299L34.6346 44.1852Z" fill="#FE5656"/>
<path d="M60.4073 53.0581H43.1104V63.0965H60.4073V53.0581Z" fill="white"/>
<path d="M59.9461 53.417H43.5752V62.7353H59.9461V53.417Z" fill="#8D4DB6"/>
<path d="M26.5074 69.017H16.793V70.2933H26.5074V69.017Z" fill="#FFC85F"/>
<path d="M27.2693 70.2932H16.0303V71.5696H27.2693V70.2932Z" fill="#FFC85F"/>
<path d="M8.4 61.0225L28.3341 46.9332C28.4943 46.8205 28.5876 46.6339 28.5806 46.4367L28.3711 39.8349C28.3641 39.6007 28.2179 39.393 27.9996 39.3085L21.8449 36.9089C21.6618 36.8367 21.4559 36.8631 21.2957 36.9758L1.36152 51.0651C1.09745 51.2517 1.03583 51.6161 1.22068 51.8802L7.58489 60.8834C7.7715 61.1475 8.13592 61.2091 8.4 61.0242V61.0225ZM24.6987 40.2503C25.3554 39.7856 26.2655 39.9423 26.7303 40.5989C27.1951 41.2556 27.0384 42.1658 26.3817 42.6305C25.7251 43.0953 24.8149 42.9386 24.3501 42.282C23.8853 41.6253 24.042 40.7151 24.6987 40.2503Z" fill="#C83636"/>
<path d="M13.2878 64.7849L8.2509 57.6578L10.6591 55.9559C11.2159 55.5624 11.7401 55.3345 12.2319 55.2722C12.722 55.2076 13.1693 55.2794 13.5738 55.4875C13.9783 55.6956 14.3289 56.0096 14.6257 56.4296C14.9224 56.8495 15.0998 57.2825 15.1576 57.7286C15.2155 58.1748 15.1325 58.6161 14.9087 59.0525C14.6833 59.4867 14.2945 59.8989 13.7424 60.2891L11.7935 61.6664L11.2426 60.8868L13.1636 59.5292C13.5441 59.2603 13.811 58.9882 13.9643 58.7129C14.1199 58.436 14.1778 58.1585 14.1379 57.8806C14.0987 57.5987 13.9782 57.315 13.7766 57.0297C13.5749 56.7443 13.3453 56.5326 13.0877 56.3946C12.8301 56.2566 12.5432 56.2124 12.2269 56.262C11.909 56.3092 11.5574 56.469 11.1723 56.7412L9.65502 57.8135L14.1508 64.1749L13.2878 64.7849ZM14.3799 59.2124L18.3965 61.1744L17.3942 61.8827L13.4055 59.901L14.3799 59.2124ZM21.945 77.0345L16.9081 69.9074L21.2094 66.8676L21.7504 67.6332L18.3122 70.0631L20.0141 72.4713L23.2296 70.1987L23.7707 70.9643L20.5552 73.2369L22.267 75.6589L25.7609 73.1897L26.302 73.9553L21.945 77.0345ZM31.2168 78.1629L36.2537 85.29L35.4185 85.8803L27.58 83.0291L27.5104 83.0783L31.4652 88.6742L30.6022 89.2841L25.5653 82.157L26.4005 81.5668L34.2627 84.422L34.3323 84.3728L30.3677 78.763L31.2168 78.1629ZM34.3738 95.4477L33.8327 94.6821L39.178 90.9044L39.719 91.6701L37.4779 93.2539L41.9737 99.6154L41.1107 100.225L36.6149 93.8639L34.3738 95.4477Z" fill="white"/>
<path d="M35.1072 29.8088C34.3484 27.066 31.896 25.1488 29.007 25.4358C26.1955 25.7139 24.1991 27.7103 23.127 30.1803H25.6427C26.486 28.7631 27.8398 27.6558 29.5845 27.6663C31.9611 27.6804 33.2129 29.9338 33.0826 32.094C32.8361 36.1748 29.2482 39.7046 25.3452 40.4C23.9121 40.6553 24.5195 42.8401 25.9473 42.5848C31.3643 41.62 36.6916 35.5305 35.1072 29.8106V29.8088Z" fill="white"/>
<path d="M68.5929 20.9712H42.909C41.9766 20.9712 41.2207 21.7271 41.2207 22.6595V69.9183C41.2207 70.8508 41.9766 71.6067 42.909 71.6067H68.5929C69.5254 71.6067 70.2813 70.8508 70.2813 69.9183V22.6595C70.2813 21.7271 69.5254 20.9712 68.5929 20.9712Z" fill="#6A3E86"/>
<path d="M67.1867 20.9712H41.5028C40.5703 20.9712 39.8145 21.7271 39.8145 22.6595V69.9183C39.8145 70.8508 40.5703 71.6067 41.5028 71.6067H67.1867C68.1191 71.6067 68.875 70.8508 68.875 69.9183V22.6595C68.875 21.7271 68.1191 20.9712 67.1867 20.9712Z" fill="#8D4DB6"/>
<path d="M66.3879 22.3284H42.3042C41.6859 22.3284 41.1846 22.8297 41.1846 23.448V67.964C41.1846 68.5824 41.6859 69.0837 42.3042 69.0837H66.3879C67.0063 69.0837 67.5075 68.5824 67.5075 67.964V23.448C67.5075 22.8297 67.0063 22.3284 66.3879 22.3284Z" fill="#E2CCFF"/>
<path d="M48.5795 30.4198H42.4072V43.6623H48.5795V30.4198Z" fill="#CDB1F5"/>
<path d="M55.7514 30.4198H49.5791V36.1432H55.7514V30.4198Z" fill="#CDB1F5"/>
<path d="M55.7514 37.49H49.5791V43.6623H55.7514V37.49Z" fill="#CDB1F5"/>
<path d="M53.8298 39.488V38.907H53.8914V38.7239H53.2312V38.907H53.2928V39.0884L52.6661 38.6218L50.7031 40.0795H51.2172V42.5319H52.0869V40.9439H53.2435V42.5319H54.1132V40.0795H54.6273L53.8298 39.488Z" fill="#E2CCFF"/>
<path d="M64.1774 30.4198H57.4629V30.992H64.1774V30.4198Z" fill="#CDB1F5"/>
<path d="M66.3675 31.851H57.4629V32.4231H66.3675V31.851Z" fill="#CDB1F5"/>
<path d="M66.3675 33.2822H57.4629V33.8544H66.3675V33.2822Z" fill="#CDB1F5"/>
<path d="M66.3675 34.7135H57.4629V35.2857H66.3675V34.7135Z" fill="#CDB1F5"/>
<path d="M66.3675 36.1448H57.4629V36.7169H66.3675V36.1448Z" fill="#CDB1F5"/>
<path d="M66.3675 37.5762H57.4629V38.1483H66.3675V37.5762Z" fill="#CDB1F5"/>
<path d="M66.3675 39.0056H57.4629V39.5778H66.3675V39.0056Z" fill="#CDB1F5"/>
<path d="M48.5795 47.8856H42.4072V61.1281H48.5795V47.8856Z" fill="#CDB1F5"/>
<path d="M55.7514 47.8856H49.5791V53.609H55.7514V47.8856Z" fill="#CDB1F5"/>
<path d="M55.7514 54.9558H49.5791V61.1281H55.7514V54.9558Z" fill="#CDB1F5"/>
<path d="M53.8298 56.9541V56.3731H53.8914V56.19H53.2312V56.3731H53.2928V56.5544L52.6661 56.0879L50.7031 57.5456H51.2172V59.998H52.0869V58.41H53.2435V59.998H54.1132V57.5456H54.6273L53.8298 56.9541Z" fill="#E2CCFF"/>
<path d="M64.1774 47.8856H57.4629V48.4578H64.1774V47.8856Z" fill="#CDB1F5"/>
<path d="M66.3675 49.3169H57.4629V49.8891H66.3675V49.3169Z" fill="#CDB1F5"/>
<path d="M66.3675 50.7482H57.4629V51.3203H66.3675V50.7482Z" fill="#CDB1F5"/>
<path d="M66.3675 52.1794H57.4629V52.7516H66.3675V52.1794Z" fill="#CDB1F5"/>
<path d="M66.3675 53.6107H57.4629V54.1829H66.3675V53.6107Z" fill="#CDB1F5"/>
<path d="M66.3675 55.0422H57.4629V55.6144H66.3675V55.0422Z" fill="#CDB1F5"/>
<path d="M66.3675 56.4716H57.4629V57.0437H66.3675V56.4716Z" fill="#CDB1F5"/>
<path d="M62.9687 27.9515H45.7228C44.8848 27.9515 44.207 27.2719 44.207 26.4357C44.207 25.5977 44.8866 24.9199 45.7228 24.9199H62.9687C63.8067 24.9199 64.4845 25.5995 64.4845 26.4357C64.4845 27.2737 63.8049 27.9515 62.9687 27.9515Z" fill="#E7DDF5"/>
<g style="mix-blend-mode:overlay" opacity="0.3">
<path d="M67.5075 23.448V25.1628L41.1846 53.5896V45.4367L62.5852 22.3284H66.3879C67.0076 22.3284 67.5075 22.8301 67.5075 23.448Z" fill="white"/>
<path d="M67.5075 28.5326V32.6081L41.1846 61.0349V56.9576L67.5075 28.5326Z" fill="white"/>
</g>
<path d="M37.9851 71.5186C37.9851 71.5186 37.4411 58.8483 36.4658 51.8151H40.265C40.265 51.8151 40.5009 61.0436 39.5361 71.5221C39.5361 71.5221 39.1928 71.6665 37.9869 71.5186H37.9851Z" fill="#FEBAA3"/>
<path d="M42.8555 73.1859L41.1654 73.1824L38.9455 73.1771C38.9455 73.1771 38.8081 73.1771 38.6286 73.1806C38.2835 73.1806 37.7835 73.1842 37.7818 73.1736C37.7818 73.1701 37.773 73.1102 37.7677 73.0116C37.7642 72.9694 37.7624 72.9218 37.7606 72.8673V72.862C37.7518 72.6437 37.7606 72.3338 37.8293 72.0117C37.8346 71.9835 37.8416 71.9589 37.8487 71.9307C37.8821 71.7916 37.9261 71.6508 37.986 71.517L39.537 71.5205C39.537 71.5205 40.6496 71.9782 41.4964 72.2405C41.7306 72.3127 41.9454 72.3726 42.1091 72.4007C42.4524 72.4624 42.6372 72.6278 42.7376 72.7916C42.7552 72.8197 42.7693 72.8461 42.7816 72.8743C42.7921 72.8937 42.801 72.9166 42.808 72.9342C42.8591 73.0733 42.8573 73.1859 42.8573 73.1859H42.8555Z" fill="#00BDAA"/>
<path d="M42.8561 73.1858L41.166 73.1823C41.1783 72.9886 41.2012 72.795 41.2664 72.6137C41.3121 72.4851 41.3826 72.3619 41.4759 72.2616C41.4811 72.2545 41.4882 72.2475 41.4952 72.2422C41.7294 72.3144 41.9442 72.3742 42.1079 72.4024C42.5093 72.4746 42.6941 72.6876 42.7822 72.876C42.8596 73.0415 42.8579 73.1876 42.8579 73.1876L42.8561 73.1858Z" fill="#087568"/>
<path d="M38.6286 73.1806C38.2835 73.1806 37.7835 73.1841 37.7818 73.1735C37.7818 73.1682 37.7642 73.0468 37.7606 72.8619C37.7518 72.6436 37.7606 72.3338 37.8293 72.0116C37.8399 72.0169 37.8487 72.0239 37.8575 72.0274C37.9191 72.0574 37.9772 72.0943 38.0335 72.1348C38.1585 72.2246 38.2712 72.3338 38.3627 72.4588C38.5141 72.67 38.6057 72.9218 38.6286 73.1806Z" fill="#087568"/>
<path d="M42.8081 72.9358C42.4402 72.9411 42.0722 72.9481 41.7043 72.9534C40.3909 72.9728 39.0794 72.9921 37.7678 73.0133C37.7643 72.971 37.7625 72.9235 37.7607 72.8689C38.1164 72.8654 38.4702 72.8584 38.8258 72.8531C40.1304 72.8337 41.4314 72.8143 42.7359 72.7932C42.7535 72.8214 42.7676 72.8478 42.7799 72.876C42.7905 72.8953 42.7993 72.9182 42.8063 72.9358H42.8081Z" fill="white"/>
<path d="M39.9805 71.5872C39.9682 71.5502 39.9312 71.5256 39.8925 71.5362C39.7534 71.5766 39.6214 71.6383 39.4999 71.7175C39.4682 71.7386 39.4524 71.7826 39.4735 71.8161C39.4929 71.8478 39.5386 71.8654 39.5721 71.8425C39.6284 71.8037 39.6883 71.7703 39.7499 71.7421C39.7569 71.7386 39.764 71.7351 39.771 71.7316C39.771 71.7316 39.7851 71.7263 39.7869 71.7245C39.8009 71.7192 39.8168 71.7122 39.8309 71.7069C39.8626 71.6946 39.896 71.684 39.9295 71.6752C39.9664 71.6647 39.9911 71.6242 39.9805 71.5872Z" fill="white"/>
<path d="M40.4434 71.8144C40.4311 71.7774 40.3941 71.7528 40.3554 71.7633C40.2163 71.8038 40.0843 71.8654 39.9628 71.9447C39.9311 71.9658 39.9153 72.0098 39.9364 72.0432C39.9557 72.0749 40.0015 72.0925 40.035 72.0697C40.0913 72.0309 40.1512 71.9975 40.2128 71.9693C40.2198 71.9658 40.2269 71.9623 40.2339 71.9587C40.2339 71.9587 40.248 71.9535 40.2498 71.9517C40.2638 71.9464 40.2797 71.9394 40.2938 71.9341C40.3255 71.9218 40.3589 71.9112 40.3923 71.9024C40.4293 71.8918 40.454 71.8514 40.4434 71.8144Z" fill="white"/>
<path d="M41.0264 72.0328C41.0141 71.9958 40.9771 71.9711 40.9384 71.9817C40.7993 72.0222 40.6673 72.0838 40.5458 72.163C40.5141 72.1842 40.4983 72.2282 40.5194 72.2616C40.5388 72.2933 40.5845 72.3092 40.618 72.288C40.6743 72.2493 40.7342 72.2159 40.7958 72.1877C40.8028 72.1842 40.8099 72.1806 40.8169 72.1771C40.8169 72.1771 40.831 72.1718 40.8328 72.1701C40.8468 72.1648 40.8627 72.1578 40.8768 72.1525C40.9085 72.1402 40.9419 72.1296 40.9754 72.1208C41.0123 72.1102 41.037 72.0697 41.0264 72.0328Z" fill="white"/>
<path d="M34.9479 71.5186C34.9479 71.5186 35.4919 58.8483 36.4672 51.8151H32.668C32.668 51.8151 32.4321 61.0436 33.3969 71.5221C33.3969 71.5221 33.7402 71.6665 34.9461 71.5186H34.9479Z" fill="#FEBAA3"/>
<path d="M30.076 73.1859L31.7661 73.1824L33.9861 73.1771C33.9861 73.1771 34.1234 73.1771 34.3029 73.1806C34.648 73.1806 35.148 73.1842 35.1497 73.1736C35.1497 73.1701 35.1585 73.1102 35.1638 73.0116C35.1673 72.9694 35.1691 72.9218 35.1709 72.8673V72.862C35.1797 72.6437 35.1709 72.3338 35.1022 72.0117C35.0969 71.9835 35.0899 71.9589 35.0828 71.9307C35.0494 71.7916 35.0054 71.6508 34.9455 71.517L33.3945 71.5205C33.3945 71.5205 32.2819 71.9782 31.4351 72.2405C31.2009 72.3127 30.9862 72.3726 30.8224 72.4007C30.4791 72.4624 30.2943 72.6278 30.1939 72.7916C30.1763 72.8197 30.1623 72.8461 30.1499 72.8743C30.1394 72.8937 30.1306 72.9166 30.1235 72.9342C30.0725 73.0733 30.0742 73.1859 30.0742 73.1859H30.076Z" fill="#00BDAA"/>
<path d="M30.076 73.1858L31.7661 73.1823C31.7537 72.9886 31.7309 72.795 31.6657 72.6137C31.6199 72.4851 31.5495 72.3619 31.4562 72.2616C31.4509 72.2545 31.4439 72.2475 31.4368 72.2422C31.2027 72.3144 30.9879 72.3742 30.8242 72.4024C30.4228 72.4746 30.2379 72.6876 30.1499 72.876C30.0725 73.0415 30.0742 73.1876 30.0742 73.1876L30.076 73.1858Z" fill="#087568"/>
<path d="M34.3037 73.1806C34.6488 73.1806 35.1488 73.1841 35.1505 73.1735C35.1505 73.1682 35.1681 73.0468 35.1716 72.8619C35.1804 72.6436 35.1716 72.3338 35.103 72.0116C35.0924 72.0169 35.0836 72.0239 35.0748 72.0274C35.0132 72.0574 34.9551 72.0943 34.8988 72.1348C34.7738 72.2246 34.6611 72.3338 34.5695 72.4588C34.4181 72.67 34.3266 72.9218 34.3037 73.1806Z" fill="#087568"/>
<path d="M30.125 72.9358C30.4929 72.9411 30.8609 72.9481 31.2288 72.9534C32.5422 72.9728 33.8537 72.9921 35.1653 73.0133C35.1688 72.971 35.1706 72.9235 35.1723 72.8689C34.8167 72.8654 34.4629 72.8584 34.1072 72.8531C32.8027 72.8337 31.5017 72.8143 30.1972 72.7932C30.1796 72.8214 30.1655 72.8478 30.1532 72.876C30.1426 72.8953 30.1338 72.9182 30.1268 72.9358H30.125Z" fill="white"/>
<path d="M32.9536 71.5872C32.966 71.5502 33.0029 71.5256 33.0417 71.5362C33.1807 71.5766 33.3128 71.6383 33.4343 71.7175C33.4659 71.7386 33.4818 71.7826 33.4607 71.8161C33.4413 71.8478 33.3955 71.8654 33.3621 71.8425C33.3057 71.8037 33.2459 71.7703 33.1843 71.7421C33.1772 71.7386 33.1702 71.7351 33.1631 71.7316C33.1631 71.7316 33.149 71.7263 33.1473 71.7245C33.1332 71.7192 33.1174 71.7122 33.1033 71.7069C33.0716 71.6946 33.0381 71.684 33.0047 71.6752C32.9677 71.6647 32.9431 71.6242 32.9536 71.5872Z" fill="white"/>
<path d="M32.4896 71.8144C32.5019 71.7774 32.5389 71.7528 32.5776 71.7633C32.7167 71.8038 32.8487 71.8654 32.9684 71.9447C33.0001 71.9658 33.016 72.0098 32.9948 72.0432C32.9755 72.0749 32.9297 72.0925 32.8962 72.0697C32.8399 72.0309 32.7801 71.9975 32.7184 71.9693C32.7114 71.9658 32.7044 71.9623 32.6973 71.9587C32.6973 71.9587 32.6832 71.9535 32.6815 71.9517C32.6674 71.9464 32.6515 71.9394 32.6375 71.9341C32.6058 71.9218 32.5723 71.9112 32.5389 71.9024C32.5019 71.8918 32.4772 71.8514 32.4878 71.8144H32.4896Z" fill="white"/>
<path d="M31.9068 72.0328C31.9191 71.9958 31.9561 71.9711 31.9948 71.9817C32.1339 72.0222 32.2659 72.0838 32.3874 72.163C32.4191 72.1842 32.4349 72.2282 32.4138 72.2616C32.3944 72.2933 32.3486 72.3092 32.3152 72.288C32.2589 72.2493 32.199 72.2159 32.1374 72.1877C32.1303 72.1842 32.1233 72.1806 32.1163 72.1771C32.1163 72.1771 32.1022 72.1718 32.1004 72.1701C32.0863 72.1648 32.0705 72.1578 32.0564 72.1525C32.0247 72.1402 31.9913 72.1296 31.9578 72.1208C31.9208 72.1102 31.8962 72.0697 31.9068 72.0328Z" fill="white"/>
<path d="M36.4673 51.4473C36.2631 53.6919 35.6575 70.2177 35.6575 70.2177C35.455 70.2441 35.2632 70.2617 35.0836 70.2723C35.0343 70.2758 34.9868 70.2776 34.9392 70.2793C33.6505 70.3374 33.0062 70.0681 33.0062 70.0681C32.4974 57.9893 32.6682 51.8152 32.6682 51.8152L35.8793 51.5036L36.0254 51.4913L36.4691 51.4473H36.4673Z" fill="#6A3E86"/>
<path d="M40.1858 70.0329C40.1858 70.0329 40.022 70.1015 39.7034 70.1684C39.6594 70.1772 39.6101 70.1878 39.5573 70.1966C39.0978 70.2776 38.39 70.3357 37.4587 70.2177C37.4587 70.2177 36.6665 53.6919 36.4658 51.4473L39.2474 51.7166L39.3794 51.7289L40.2615 51.8135C40.2615 51.8135 40.6928 57.9541 40.184 70.0311L40.1858 70.0329Z" fill="#6A3E86"/>
<path d="M36.0247 51.4823V51.4893C35.9349 52.9065 35.8504 54.3237 35.7677 55.7409C35.6233 58.2725 35.4913 60.8041 35.3733 63.334C35.2659 65.6437 35.1691 67.9588 35.0828 70.2703C35.0335 70.2739 34.986 70.2756 34.9385 70.2774C34.9825 69.0749 35.03 67.8708 35.0811 66.6666C35.1885 64.1332 35.3082 61.6034 35.4402 59.0718C35.574 56.5472 35.7184 54.0227 35.8786 51.5016C35.8786 51.4946 35.8786 51.4893 35.8786 51.4823C35.8839 51.3907 36.0282 51.389 36.0229 51.4823H36.0247Z" fill="#6A3E86"/>
<path d="M39.9272 63.2828C39.9202 65.5785 39.848 67.876 39.7054 70.1681C39.6614 70.1769 39.6121 70.1875 39.5593 70.1963C39.635 68.9675 39.6913 67.7369 39.73 66.5063C39.8057 64.0451 39.8005 61.5822 39.7195 59.121C39.6385 56.6598 39.4783 54.2022 39.2441 51.7516C39.2441 51.7392 39.2441 51.7269 39.2494 51.7163C39.2705 51.667 39.3586 51.6723 39.3815 51.7287C39.385 51.7339 39.385 51.741 39.3867 51.7498C39.5188 53.1318 39.6279 54.5155 39.7107 55.8993C39.8603 58.3569 39.9307 60.8199 39.9255 63.2811L39.9272 63.2828Z" fill="#6A3E86"/>
<path d="M32.8945 68.9588L32.9526 70.1031C32.9526 70.1031 33.9297 70.6436 35.7712 70.2281L35.7941 68.957C35.7941 68.957 34.0635 69.1965 32.8945 68.957V68.9588Z" fill="#CDB1F5"/>
<path d="M37.3191 68.9587L37.3896 70.2598C37.3896 70.2598 38.3983 70.552 40.2398 70.1365L40.2891 68.9587C40.2891 68.9587 38.4881 69.1982 37.3174 68.9587H37.3191Z" fill="#CDB1F5"/>
<path d="M37.3848 38.8349L39.1523 39.0989C39.1523 39.0989 43.9655 37.518 44.1733 37.3719C44.3828 37.224 46.8369 31.4672 46.8369 31.4672C46.8369 31.4672 48.1044 31.7946 48.2611 32.1045C48.2611 32.1045 46.4284 38.4669 46.0059 38.8349C45.5816 39.2028 39.1523 41.7432 39.1523 41.7432L37.3848 38.8349Z" fill="#C83636"/>
<path d="M47.0183 31.5395C47.0183 31.5395 46.7542 30.2948 47.3228 30.2667C47.3228 30.2667 47.4971 28.934 47.7647 28.9656C48.0323 28.9973 47.8475 30.2526 47.8475 30.2526C47.8475 30.2526 48.5974 30.4392 48.6291 30.8388C48.6731 31.3934 48.1274 31.9831 48.1274 31.9831L47.0165 31.5395H47.0183Z" fill="#FEBAA3"/>
<path d="M48.419 30.7261C48.3874 30.8582 48.3609 30.992 48.324 31.1222C48.3081 31.1786 48.2852 31.2331 48.2447 31.2754C48.2148 31.3071 48.1567 31.3493 48.111 31.3317C48.0898 31.3229 48.074 31.2983 48.0617 31.2807C48.0441 31.2578 48.03 31.2331 48.0264 31.205C48.0176 31.1434 48.0335 31.0729 48.0441 31.0131C48.0687 30.881 48.1127 30.7543 48.1567 30.6275C48.1743 30.5747 48.0916 30.5536 48.074 30.6046C48.0335 30.7244 47.9912 30.8441 47.9648 30.9691C47.9507 31.0342 47.9349 31.1099 47.9367 31.1803C47.9367 31.1821 47.9349 31.1838 47.9349 31.1856C47.9279 31.2243 47.8856 31.2314 47.8504 31.2349C47.8134 31.2384 47.7782 31.2384 47.7589 31.2015C47.7201 31.1293 47.7166 31.0324 47.7201 30.9532C47.7219 30.9022 47.7307 30.8511 47.7412 30.8018C47.7553 30.7754 47.7641 30.7455 47.7641 30.7138C47.7905 30.624 47.8275 30.5342 47.8627 30.448C47.8838 30.3969 47.8011 30.374 47.78 30.4251C47.7606 30.4744 47.7395 30.5237 47.7219 30.5747C47.692 30.5307 47.6515 30.4955 47.6039 30.4726C47.5018 30.4233 47.3891 30.4233 47.2782 30.4268C47.2237 30.4268 47.2237 30.5149 47.2782 30.5131C47.4138 30.5096 47.6444 30.5061 47.6779 30.6821C47.6779 30.6909 47.6779 30.6979 47.6796 30.7068C47.6743 30.7279 47.6673 30.7472 47.6638 30.7684C47.6427 30.8053 47.6057 30.8317 47.5652 30.8546C47.4948 30.8934 47.4191 30.9268 47.3399 30.9374C47.3082 30.9409 47.2765 30.9849 47.3099 31.0113C47.4455 31.1187 47.4437 31.3212 47.2941 31.4162C47.2483 31.4462 47.2906 31.5201 47.3381 31.4902C47.4349 31.4286 47.486 31.3282 47.4913 31.2261C47.5282 31.2349 47.567 31.2367 47.6057 31.2296C47.6268 31.2261 47.6479 31.2173 47.6691 31.2067C47.6902 31.2648 47.7289 31.3124 47.7976 31.3212C47.8504 31.3282 47.9191 31.3194 47.9648 31.2877C47.9666 31.2912 47.9684 31.2965 47.9701 31.3C47.993 31.3388 48.0265 31.3863 48.0669 31.4074C48.1127 31.4321 48.1691 31.4233 48.2148 31.4021C48.3099 31.3599 48.3662 31.2666 48.3979 31.1715C48.4437 31.036 48.4683 30.8898 48.5018 30.7508C48.5141 30.6979 48.4314 30.6751 48.419 30.7279V30.7261ZM47.6462 31.1152C47.6462 31.1152 47.6462 31.1187 47.6444 31.1187C47.6444 31.1187 47.6391 31.124 47.6374 31.124C47.6339 31.1258 47.6321 31.1275 47.6286 31.1293C47.6286 31.1293 47.6215 31.1328 47.6198 31.1328C47.6163 31.1328 47.6127 31.1346 47.611 31.1363C47.6022 31.1398 47.5916 31.1416 47.581 31.1434C47.5793 31.1434 47.5705 31.1434 47.5705 31.1434C47.5652 31.1434 47.5599 31.1434 47.5546 31.1434C47.5494 31.1434 47.5441 31.1434 47.5388 31.1434C47.5388 31.1434 47.53 31.1434 47.5282 31.1434C47.5177 31.1434 47.5071 31.1398 47.4983 31.1363C47.4948 31.1363 47.4913 31.1346 47.4877 31.1328C47.4772 31.087 47.4578 31.0412 47.4279 31.0025C47.5018 30.9832 47.5722 30.9497 47.6374 30.911C47.6391 30.911 47.6409 30.9074 47.6427 30.9074C47.6374 30.9708 47.6374 31.0324 47.6462 31.0976C47.6462 31.1029 47.6479 31.1081 47.6497 31.1134L47.6462 31.1152Z" fill="#C16B5B"/>
<path d="M32.623 52.0211C32.623 52.0211 36.8271 52.9753 40.4344 52.2077C40.4344 52.2077 38.9538 39.3649 38.952 39.3473L37.9486 39.0198L37.7267 38.9476L37.3817 38.835H35.8395L35.6247 38.9054L35.3994 38.9793L34.6159 39.2364L34.498 39.2751L34.2797 39.3473C34.2797 39.3473 32.6248 52.0141 32.6248 52.0211H32.623Z" fill="#C83636"/>
<path d="M36.5296 48.3135C37.5039 48.3135 38.2937 47.0153 38.2937 45.4139C38.2937 43.8126 37.5039 42.5144 36.5296 42.5144C35.5554 42.5144 34.7656 43.8126 34.7656 45.4139C34.7656 47.0153 35.5554 48.3135 36.5296 48.3135Z" fill="#FE5656"/>
<path d="M32.4306 51.4452C32.4306 51.4452 33.1683 52.2586 33.0978 52.711C33.0274 53.1652 31.5275 53.5543 31.3232 53.299C31.119 53.0455 31.2634 51.7128 31.2634 51.7128L32.4306 51.4435V51.4452Z" fill="#FEBAA3"/>
<path d="M34.2784 39.3473C33.1165 39.7698 30.5849 44.6957 30.4053 45.553C30.2257 46.4104 31.0215 51.8345 31.0215 51.8345C31.9739 51.7694 32.5918 51.4454 32.5918 51.4454C32.5918 51.4454 32.2521 45.9861 32.3119 45.8259C32.3718 45.6657 33.7238 43.8806 33.9844 43.4897C35.7942 40.7821 34.2784 39.3473 34.2784 39.3473Z" fill="#C83636"/>
<path d="M34.3977 42.6305C34.1266 42.9809 33.9065 43.3646 33.7428 43.7748C33.7199 43.8329 33.815 43.8593 33.8379 43.8013C33.9945 43.4069 34.2076 43.0354 34.4664 42.7009C34.5051 42.6516 34.4347 42.5812 34.3959 42.6305H34.3977Z" fill="#FE5656"/>
<path d="M34.5384 42.9579C34.4082 42.9579 34.2814 42.9879 34.1617 43.0389C34.1371 43.0495 34.1318 43.0847 34.1441 43.1058C34.1582 43.1305 34.1863 43.134 34.211 43.1234C34.3149 43.0794 34.4258 43.0565 34.5384 43.0548C34.5649 43.0548 34.5877 43.0319 34.5877 43.0055C34.5877 42.9791 34.5649 42.9562 34.5384 42.9562V42.9579Z" fill="#FE5656"/>
<path d="M39.1284 40.5531C39.1161 40.4915 39.021 40.5179 39.0333 40.5795C39.0932 40.8859 39.1478 41.194 39.1988 41.502C39.2094 41.5637 39.3044 41.5373 39.2939 41.4756C39.2428 41.1676 39.1882 40.8595 39.1284 40.5531Z" fill="#FE5656"/>
<path d="M34.4723 34.0939C34.46 33.8457 34.4969 33.557 34.6976 33.4302C34.6272 33.4179 34.5709 33.3422 34.5761 33.2665C34.5814 33.1908 34.6501 33.1257 34.7223 33.1274C34.7645 32.807 34.9582 32.5218 35.2011 32.3264C35.4458 32.131 35.7398 32.013 36.0356 31.9285C36.6359 31.7578 37.2679 31.7102 37.8859 31.7894C38.0566 31.8106 38.2309 31.844 38.3771 31.9408C38.5232 32.0377 38.6341 32.2102 38.6182 32.3915C38.6939 32.3158 38.8313 32.3299 38.8929 32.4179C38.9545 32.506 38.9263 32.6486 38.8365 32.7031C39.2714 32.675 39.6605 33.0728 39.7502 33.5235C39.84 33.9742 39.6834 34.446 39.4334 34.8228C39.0795 35.358 38.5337 35.7453 37.9317 35.8932C37.9686 35.8668 38.0074 35.8403 38.0443 35.8139C38.0021 35.8421 37.8489 35.8157 37.7961 35.8175C37.7063 35.8192 37.6165 35.8227 37.525 35.8263C37.3489 35.8333 37.1746 35.8421 37.0003 35.8544C36.6482 35.8791 36.2962 35.916 35.9458 35.9636C35.7715 35.9882 35.599 36.0146 35.4247 36.0446C35.3015 36.0657 35.224 36.0727 35.1448 35.9636C34.9617 35.7189 34.8085 35.4442 34.6959 35.1555C34.5656 34.8193 34.4864 34.4601 34.4688 34.0957L34.4723 34.0939Z" fill="#1A0F24"/>
<path d="M39.1608 36.0199C39.0745 36.6414 38.8404 37.0199 38.5218 37.2892C38.3263 37.4547 38.1503 37.5674 37.9989 37.6713C37.6169 37.9353 37.388 38.1466 37.388 39.0233C37.1292 39.6747 36.1328 39.7627 35.8123 39.0233C35.8264 37.8649 35.5465 36.9072 35.3863 36.453C35.337 36.3139 35.2983 36.2224 35.2824 36.1872C35.2772 36.1748 35.2754 36.1695 35.2754 36.1695C35.2754 36.1695 35.2789 35.9829 35.293 35.7083C35.293 35.6748 35.2965 35.6396 35.2983 35.6044C35.3335 34.9618 35.4162 33.9531 35.6099 33.5975C36.3211 32.2947 38.8246 32.7383 39.02 33.7753C39.2048 34.7629 39.24 35.4812 39.1626 36.0181L39.1608 36.0199Z" fill="#FEBAA3"/>
<path d="M39.2912 33.3563C39.263 33.5113 39.1609 33.6451 39.0341 33.7366C38.9074 33.8282 38.7577 33.8845 38.6063 33.9268C37.8335 34.1486 36.9796 34.0676 36.2613 33.7067C36.2754 33.976 35.999 34.2296 35.7297 34.2049C35.7807 34.7929 35.5413 35.3985 35.1047 35.7946C34.9938 35.3228 34.9181 34.8334 34.9903 34.3528C35.0836 33.7349 35.4304 33.1574 35.9356 32.7877C36.4391 32.4162 37.0941 32.256 37.712 32.3529C38.3299 32.4479 38.925 32.8511 39.2929 33.3581L39.2912 33.3563Z" fill="#1A0F24"/>
<path d="M38.2714 34.9813C38.4739 34.8405 38.7344 34.8493 38.9246 35.013C38.9598 35.0429 38.9668 35.1063 38.9386 35.145C38.9105 35.1855 38.8594 35.1926 38.8224 35.1626C38.745 35.0958 38.6446 35.0641 38.5478 35.0711C38.4985 35.0746 38.451 35.0887 38.4052 35.1098C38.3647 35.1292 38.326 35.1644 38.282 35.138C38.2714 35.1327 38.2626 35.1222 38.2556 35.1116C38.2309 35.0746 38.2327 35.006 38.2714 34.9796V34.9813Z" fill="#1A0F24"/>
<path d="M37.6473 34.9813C37.4167 34.8405 37.1156 34.8493 36.8973 35.013C36.8569 35.0429 36.8498 35.1063 36.8797 35.145C36.9114 35.1855 36.9713 35.1926 37.0118 35.1626C37.1016 35.0958 37.2142 35.0658 37.3269 35.0729C37.3832 35.0764 37.4378 35.0887 37.4906 35.1116C37.5364 35.131 37.5822 35.1644 37.6332 35.1398C37.6456 35.1345 37.6561 35.1239 37.6649 35.1134C37.6931 35.0764 37.6913 35.0077 37.6473 34.9813Z" fill="#1A0F24"/>
<path d="M37.9824 36.5233C38.0704 36.5233 38.1602 36.504 38.2482 36.4582C38.2887 36.4371 38.3045 36.386 38.2834 36.3455C38.2623 36.305 38.2112 36.2892 38.1707 36.3103C37.9577 36.4212 37.7218 36.3068 37.6532 36.2153C37.6267 36.1783 37.5739 36.1695 37.5352 36.1976C37.4982 36.2258 37.4894 36.2769 37.5176 36.3156C37.5968 36.4248 37.7799 36.5269 37.9806 36.5269L37.9824 36.5233Z" fill="#C16B5B"/>
<path d="M38.1805 36.0446C38.1893 36.0446 38.1981 36.0393 38.1999 36.0287C38.2404 35.8914 38.1929 35.8456 38.1471 35.8298C38.0996 35.8157 38.045 35.8262 37.9816 35.8667C37.971 35.872 37.9693 35.8861 37.9746 35.8949C37.9816 35.9055 37.9939 35.9072 38.0027 35.902C38.0555 35.8703 38.0996 35.8579 38.1348 35.8703C38.1753 35.8843 38.1841 35.9336 38.1594 36.0164C38.1559 36.0269 38.1629 36.0393 38.1735 36.0428C38.1753 36.0428 38.177 36.0428 38.1788 36.0428L38.1805 36.0446Z" fill="#C16B5B"/>
<path d="M38.7334 35.7065C38.7334 35.7065 38.7352 35.7065 38.737 35.7065C38.7599 35.7048 38.7775 35.6837 38.7757 35.6608C38.7687 35.5675 38.7088 35.3896 38.5398 35.3896C38.3708 35.3896 38.318 35.5622 38.3145 35.6537C38.3145 35.6766 38.3321 35.696 38.3549 35.6977C38.3796 35.6977 38.3972 35.6801 38.399 35.6572C38.399 35.6502 38.4095 35.4742 38.5398 35.4742C38.6701 35.4742 38.6912 35.666 38.6912 35.6678C38.693 35.6907 38.7123 35.7065 38.7334 35.7065Z" fill="black"/>
<path d="M37.4971 35.7065C37.4971 35.7065 37.4989 35.7065 37.5006 35.7065C37.5235 35.7048 37.5411 35.6837 37.5394 35.6608C37.5323 35.5675 37.4725 35.3896 37.3035 35.3896C37.1345 35.3896 37.0816 35.5622 37.0781 35.6537C37.0781 35.6766 37.0957 35.696 37.1186 35.6977C37.1433 35.6977 37.1609 35.6801 37.1626 35.6572C37.1626 35.6502 37.1732 35.4742 37.3035 35.4742C37.4337 35.4742 37.4549 35.666 37.4549 35.6678C37.4566 35.6907 37.476 35.7065 37.4971 35.7065Z" fill="black"/>
<path d="M34.7258 36.2171C34.9406 36.4724 35.2786 36.5428 35.4828 36.372C35.6853 36.2013 35.6765 35.8562 35.4617 35.6009C35.2469 35.3457 34.9089 35.2752 34.7047 35.446C34.5022 35.6168 34.511 35.9618 34.7258 36.2171Z" fill="#FEBAA3"/>
<path d="M34.8455 35.571C34.9371 35.5235 35.0586 35.5253 35.1712 35.5781C35.2276 35.6045 35.2681 35.6362 35.2962 35.6749C35.3332 35.726 35.3438 35.7911 35.3226 35.8439C35.305 35.8915 35.2663 35.9214 35.2328 35.9496C35.2082 35.9689 35.1853 35.9883 35.173 36.0094C35.1536 36.0429 35.1589 36.0904 35.1853 36.1203C35.2117 36.1503 35.2592 36.1591 35.2945 36.1414C35.3156 36.1309 35.3402 36.1414 35.3508 36.1626C35.3596 36.1837 35.3508 36.2083 35.3297 36.2189C35.3068 36.2295 35.2821 36.2348 35.2575 36.2348C35.2082 36.2348 35.1571 36.2154 35.1237 36.1767C35.0726 36.1203 35.0638 36.0323 35.1026 35.9672C35.1237 35.932 35.1536 35.9055 35.1818 35.8844C35.21 35.8615 35.2364 35.8404 35.2452 35.814C35.2557 35.7876 35.2487 35.7524 35.2293 35.7225C35.2205 35.7101 35.21 35.7013 35.1976 35.6908C35.1554 35.6908 35.1043 35.7031 35.0779 35.7313C35.048 35.7629 35.0339 35.8105 35.0409 35.8545C35.0445 35.8774 35.0286 35.8985 35.0057 35.902C35.004 35.902 35.0005 35.902 34.9987 35.902C34.9793 35.902 34.96 35.8879 34.9582 35.8668C34.9476 35.7982 34.9688 35.726 35.0163 35.6732C35.0339 35.6538 35.0568 35.6415 35.0797 35.6309C35.011 35.6115 34.9424 35.6151 34.8895 35.6432C34.8244 35.6784 34.7751 35.7682 34.8086 35.8404C34.8174 35.8615 34.8086 35.8862 34.7874 35.8967C34.7663 35.9055 34.7417 35.8967 34.7311 35.8756C34.6818 35.77 34.7364 35.6291 34.8491 35.5693L34.8455 35.571Z" fill="#C16B5B"/>
<path d="M63.0624 55.9357L61.1689 57.8291L65.4152 62.0753L67.3086 60.1819L63.0624 55.9357Z" fill="#8D4DB6"/>
<g style="mix-blend-mode:multiply">
<path d="M65.792 58.6635L63.8995 60.556L61.1689 57.8273L65.4153 62.0718L67.3078 60.1793L65.792 58.6635Z" fill="#CDB1F5"/>
</g>
<path d="M64.0894 61.7762L67.0099 58.8557C67.1169 58.7487 67.2912 58.7487 67.3983 58.8557L76.3887 67.8461C76.9376 68.3951 76.9364 69.2852 76.3887 69.8329L75.0679 71.1537C74.5189 71.7027 73.6288 71.7014 73.0811 71.1537L64.0907 62.1633C63.9836 62.0563 63.9836 61.882 64.0907 61.7749L64.0894 61.7762Z" fill="#6A3E86"/>
<g style="mix-blend-mode:multiply">
<path d="M76.3862 67.8428L67.3971 58.8537C67.2897 58.7463 67.1172 58.7463 67.0098 58.8537L65.9834 59.8801C66.0908 59.7727 66.2633 59.7727 66.3707 59.8801L75.3598 68.8692C75.9091 69.4185 75.9091 70.3075 75.3598 70.8568L76.3862 69.8304C76.9355 69.2812 76.9355 68.3921 76.3862 67.8428Z" fill="#CDB1F5"/>
</g>
<path d="M62.3733 39.0196C57.377 34.025 49.2505 34.025 44.256 39.0196C39.2597 44.0159 39.2597 52.1423 44.256 57.1369C49.2505 62.1332 57.3788 62.1332 62.3733 57.1369C67.3678 52.1423 67.3678 44.0141 62.3733 39.0196ZM46.2876 55.1053C42.4128 51.2304 42.4128 44.9261 46.2876 41.0512C50.1625 37.1763 56.4668 37.1763 60.3417 41.0512C64.2165 44.9261 64.2165 51.2304 60.3417 55.1053C56.4668 58.9801 50.1625 58.9801 46.2876 55.1053Z" fill="#087568"/>
<path d="M61.0247 40.3683C56.7731 36.1167 49.8561 36.1167 45.6028 40.3683C41.3512 44.6199 41.3512 51.5369 45.6028 55.7902C49.8544 60.0418 56.7731 60.0418 61.0247 55.7902C65.2763 51.5386 65.2763 44.6199 61.0247 40.3683ZM60.3417 55.1054C56.4668 58.9803 50.1625 58.9803 46.2876 55.1054C42.4127 51.2305 42.4127 44.9262 46.2876 41.0513C50.1625 37.1765 56.4668 37.1765 60.3417 41.0513C64.2165 44.9262 64.2165 51.2305 60.3417 55.1054Z" fill="#00BDAA"/>
<g style="mix-blend-mode:overlay" opacity="0.3">
<path d="M53.5176 39.1131C50.0565 38.68 47.2168 41.2046 45.613 44.0179C44.9739 45.1375 46.6728 46.2185 47.3154 45.09C48.5829 42.8647 50.6551 40.7768 53.4261 41.1218C53.9648 41.1887 54.4524 40.6747 54.4753 40.1624C54.5017 39.5832 54.0563 39.18 53.5159 39.1131H53.5176Z" fill="white"/>
</g>
<path d="M92.8276 62.2776L76.7437 67.1753L76.249 71.0836L79.3774 72.0765L81.6432 69.39L84.7258 70.4463L86.731 67.7105L90.0654 68.9516L91.8805 66.0398L93.7959 65.457L92.8276 62.2776Z" fill="#6A3E86"/>
<path d="M90.4933 64.5504L79.9955 67.7475C79.8088 67.8038 79.6117 67.6982 79.5553 67.5116C79.499 67.325 79.6029 67.1278 79.7912 67.0715L90.2891 63.8744C90.4757 63.8181 90.6729 63.9237 90.7292 64.1103C90.7856 64.2969 90.6817 64.4941 90.4933 64.5504Z" fill="#8D4DB6"/>
<path d="M94.0637 57.6493C90.7364 58.6634 88.8597 62.1826 89.872 65.5099C90.886 68.8373 94.4053 70.714 97.7326 69.7017C101.06 68.6876 102.937 65.1684 101.924 61.8411C100.91 58.5137 97.3911 56.637 94.0637 57.6493ZM97.3611 62.1861C96.5848 62.422 95.7644 61.9854 95.5267 61.209C95.2908 60.4327 95.7274 59.6123 96.5038 59.3746C97.2801 59.1387 98.1005 59.5753 98.3382 60.3517C98.5741 61.1281 98.1375 61.9485 97.3611 62.1861Z" fill="#C83636"/>
<path d="M97.4723 68.848C94.6203 69.7159 91.594 68.1033 90.7261 65.2513C89.8582 62.3993 91.4708 59.373 94.3228 58.505C97.1748 57.6371 100.201 59.2497 101.069 62.1017C101.937 64.9537 100.324 67.98 97.4723 68.848ZM94.4865 59.0402C91.9303 59.8184 90.4849 62.5313 91.2631 65.0875C92.0412 67.6438 94.7541 69.0891 97.3104 68.311C99.8666 67.5329 101.312 64.8199 100.534 62.2637C99.7557 59.7074 97.0428 58.2621 94.4865 59.0402Z" fill="#FE5656"/>
<path d="M69.4048 68.8638H52.2012V72.6488H69.4048V68.8638Z" fill="#FFAF49"/>
<g style="mix-blend-mode:multiply">
<path d="M59.0471 68.8638H54.1406V72.6488H59.0471V68.8638Z" fill="#DDD4B1"/>
</g>
<g style="mix-blend-mode:overlay" opacity="0.3">
<path d="M62.7018 68.8638H61.7529V72.6488H62.7018V68.8638Z" fill="white"/>
</g>
<g style="mix-blend-mode:overlay" opacity="0.3">
<path d="M66.1139 68.8638H63.3887V72.6488H66.1139V68.8638Z" fill="white"/>
</g>
<path d="M63.7856 65.0804H46.582V68.8655H63.7856V65.0804Z" fill="#FFAF49"/>
<g style="mix-blend-mode:multiply">
<path d="M53.429 65.0804H48.5225V68.8655H53.429V65.0804Z" fill="#DDD4B1"/>
</g>
<g style="mix-blend-mode:overlay" opacity="0.3">
<path d="M57.0817 65.0804H56.1328V68.8655H57.0817V65.0804Z" fill="white"/>
</g>
<g style="mix-blend-mode:overlay" opacity="0.3">
<path d="M60.4928 65.0804H57.7676V68.8655H60.4928V65.0804Z" fill="white"/>
</g>
<path d="M71.9888 61.3359H54.7852V65.121H71.9888V61.3359Z" fill="#FFAF49"/>
<g style="mix-blend-mode:multiply">
<path d="M61.6301 61.3359H56.7236V65.121H61.6301V61.3359Z" fill="#DDD4B1"/>
</g>
<g style="mix-blend-mode:overlay" opacity="0.3">
<path d="M65.2848 61.3359H64.3359V65.121H65.2848V61.3359Z" fill="white"/>
</g>
<g style="mix-blend-mode:overlay" opacity="0.3">
<path d="M68.6969 61.3359H65.9717V65.121H68.6969V61.3359Z" fill="white"/>
</g>
</svg>
