<svg width="80" height="96" viewBox="0 0 80 96" fill="none" xmlns="http://www.w3.org/2000/svg">
<g filter="url(#filter0_d_225_17775)">
<path d="M5.9999 64.6585L6.00956 67.5609C6.02243 72.2396 9.09865 76.9118 15.2414 80.4836C27.6106 87.6722 47.7251 87.6722 60.1748 80.4836C66.4398 76.8668 69.5675 72.1205 69.5546 67.3807L69.545 64.4783C69.5579 69.2181 66.4302 73.9643 60.1651 77.5811C47.7187 84.7665 27.601 84.7665 15.2318 77.5811C9.08899 74.0094 6.01278 69.3371 5.9999 64.6585Z" fill="url(#paint0_linear_225_17775)"/>
<path d="M15.3792 51.5556C2.93276 58.741 2.86519 70.3958 15.2312 77.5812C27.6004 84.7698 47.7149 84.7698 60.1645 77.5812C72.611 70.3958 72.6785 58.741 60.3093 51.5556C47.9433 44.3703 27.8256 44.3703 15.3792 51.5556Z" fill="url(#paint1_linear_225_17775)"/>
<path d="M18.0889 53.1323C7.14841 59.4489 7.09049 69.6879 17.9602 76.0045C28.8299 82.321 46.5117 82.321 57.449 76.0045C68.3896 69.6879 68.4475 59.4489 57.5778 53.1291C46.708 46.8126 29.0294 46.8126 18.0889 53.1291V53.1323Z" fill="url(#paint2_linear_225_17775)"/>
</g>
<path d="M40.3662 4.25715L36.7623 2.16236L26.8128 0L30.4168 2.09157L40.3662 4.25715Z" fill="url(#paint3_linear_225_17775)"/>
<path d="M21.8994 14.9177L18.2987 12.8229L18.3534 66.3477L21.9541 68.4425L21.8994 14.9177Z" fill="url(#paint4_linear_225_17775)"/>
<path d="M30.417 2.09157L26.8131 0L16.9055 13.6274L20.5094 15.7189L30.417 2.09157Z" fill="url(#paint5_linear_225_17775)"/>
<path d="M21.8993 14.9177L21.954 68.4426L39.0276 58.5864L38.9761 5.06158L40.3662 4.25713L30.4168 2.09155L20.5092 15.7189L21.8993 14.9177Z" fill="url(#paint6_linear_225_17775)"/>
<path d="M40.3662 4.25713L30.4168 2.09155L20.5092 15.7189L21.8993 14.9177L21.954 68.4426L39.0276 58.5864L38.9761 5.06158L40.3662 4.25713Z" fill="url(#paint7_linear_225_17775)"/>
<path d="M33.6736 14.5766L33.6832 18.6921L37.2646 16.6263L37.255 12.5107L33.6736 14.5766Z" fill="url(#paint8_linear_225_17775)"/>
<path d="M33.6577 9.74026L33.6705 13.8558L37.252 11.79L37.2391 7.67444L33.6577 9.74026Z" fill="url(#paint9_linear_225_17775)"/>
<path d="M29.1108 17.212L29.1205 21.3276L32.7051 19.2585L32.6922 15.1429L29.1108 17.212Z" fill="url(#paint10_linear_225_17775)"/>
<path d="M29.0974 12.3757L29.1071 16.4913L32.6885 14.4222L32.6788 10.3066L29.0974 12.3757Z" fill="url(#paint11_linear_225_17775)"/>
<path d="M57.0957 16.4945L53.4918 14.3997L43.5423 12.2373L47.1463 14.3321L57.0957 16.4945Z" fill="url(#paint12_linear_225_17775)"/>
<path d="M38.6318 27.155L35.0279 25.0602L35.0826 72.7029L38.6865 74.7977L38.6318 27.155Z" fill="url(#paint13_linear_225_17775)"/>
<path d="M47.1465 14.3321L43.5425 12.2373L33.6382 25.8647L37.2421 27.9595L47.1465 14.3321Z" fill="url(#paint14_linear_225_17775)"/>
<path d="M38.632 27.155L38.6867 74.7977L55.7603 64.9384L55.7056 17.2988L57.0957 16.4944L47.1463 14.332L37.2419 27.9594L38.632 27.155Z" fill="url(#paint15_linear_225_17775)"/>
<path d="M57.0957 16.4944L47.1463 14.332L37.2419 27.9594L38.632 27.155L38.6867 74.7977L55.7603 64.9384L55.7056 17.2988L57.0957 16.4944Z" fill="url(#paint16_linear_225_17775)"/>
<path d="M50.4028 26.8171L50.4124 30.9327L53.9971 28.8636L53.9842 24.748L50.4028 26.8171Z" fill="url(#paint17_linear_225_17775)"/>
<path d="M50.3894 21.9808L50.3991 26.0964L53.9805 24.0273L53.9708 19.9117L50.3894 21.9808Z" fill="url(#paint18_linear_225_17775)"/>
<path d="M45.8393 29.4492L45.8522 33.5648L49.4336 31.499L49.4207 27.3834L45.8393 29.4492Z" fill="url(#paint19_linear_225_17775)"/>
<path d="M45.8266 24.6129L45.8363 28.7285L49.4209 26.6627L49.408 22.5471L45.8266 24.6129Z" fill="url(#paint20_linear_225_17775)"/>
<path d="M45.7559 34.9067L42.1551 32.8151L32.2057 30.6495L35.8064 32.7443L45.7559 34.9067Z" fill="url(#paint21_linear_225_17775)"/>
<path d="M27.292 45.5673L23.688 43.4757L23.7427 76.6062L27.3467 78.6977L27.292 45.5673Z" fill="url(#paint22_linear_225_17775)"/>
<path d="M35.8066 32.7443L32.2059 30.6495L22.2983 44.2769L25.9023 46.3717L35.8066 32.7443Z" fill="url(#paint23_linear_225_17775)"/>
<path d="M27.2921 45.5672L27.3468 78.6976L44.4205 68.8415L44.3658 35.7111L45.7559 34.9066L35.8064 32.7443L25.902 46.3716L27.2921 45.5672Z" fill="url(#paint24_linear_225_17775)"/>
<path d="M45.7559 34.9066L35.8064 32.7443L25.902 46.3716L27.2921 45.5672L27.3468 78.6976L44.4205 68.8415L44.3658 35.7111L45.7559 34.9066Z" fill="url(#paint25_linear_225_17775)"/>
<path d="M39.0629 45.2293L39.0758 49.3449L42.6572 47.2758L42.6476 43.1603L39.0629 45.2293Z" fill="url(#paint26_linear_225_17775)"/>
<path d="M39.0503 40.393L39.0631 44.5086L42.6445 42.4395L42.6317 38.324L39.0503 40.393Z" fill="url(#paint27_linear_225_17775)"/>
<path d="M34.5034 47.8615L34.513 51.977L38.0977 49.9112L38.0848 45.7957L34.5034 47.8615Z" fill="url(#paint28_linear_225_17775)"/>
<path d="M34.4868 43.0252L34.4996 47.1407L38.0811 45.0749L38.0714 40.9594L34.4868 43.0252Z" fill="url(#paint29_linear_225_17775)"/>
<path d="M58.3281 46.42L54.7242 44.3284L44.7748 42.1628L48.3787 44.2576L58.3281 46.42Z" fill="url(#paint30_linear_225_17775)"/>
<path d="M39.8642 57.0806L36.2603 54.989L36.315 74.1832L39.9189 76.278L39.8642 57.0806Z" fill="url(#paint31_linear_225_17775)"/>
<path d="M48.3789 44.2576L44.775 42.1628L34.8706 55.7902L38.4745 57.885L48.3789 44.2576Z" fill="url(#paint32_linear_225_17775)"/>
<path d="M39.8644 57.0805L39.9191 76.2779L56.9927 66.4185L56.938 47.2244L58.3281 46.4199L48.3787 44.2576L38.4743 57.8849L39.8644 57.0805Z" fill="url(#paint33_linear_225_17775)"/>
<path d="M58.3281 46.4199L48.3787 44.2576L38.4743 57.8849L39.8644 57.0805L39.9191 76.2779L56.9927 66.4185L56.938 47.2244L58.3281 46.4199Z" fill="url(#paint34_linear_225_17775)"/>
<path d="M51.6352 56.7426L51.6481 60.8582L55.2295 58.7892L55.2166 54.6736L51.6352 56.7426Z" fill="url(#paint35_linear_225_17775)"/>
<path d="M51.6225 51.9063L51.6354 56.0219L55.2168 53.9528L55.2039 49.8373L51.6225 51.9063Z" fill="url(#paint36_linear_225_17775)"/>
<path d="M47.0727 59.3748L47.0856 63.4903L50.667 61.4245L50.6573 57.309L47.0727 59.3748Z" fill="url(#paint37_linear_225_17775)"/>
<path d="M47.059 54.5385L47.0719 58.654L50.6533 56.5882L50.6404 52.4727L47.059 54.5385Z" fill="url(#paint38_linear_225_17775)"/>
<defs>
<filter id="filter0_d_225_17775" x="0" y="40.1666" width="79.5547" height="55.7084" filterUnits="userSpaceOnUse" color-interpolation-filters="sRGB">
<feFlood flood-opacity="0" result="BackgroundImageFix"/>
<feColorMatrix in="SourceAlpha" type="matrix" values="0 0 0 0 0 0 0 0 0 0 0 0 0 0 0 0 0 0 127 0" result="hardAlpha"/>
<feOffset dx="2" dy="2"/>
<feGaussianBlur stdDeviation="4"/>
<feColorMatrix type="matrix" values="0 0 0 0 0.705882 0 0 0 0 0.764706 0 0 0 0 0.8 0 0 0 1 0"/>
<feBlend mode="normal" in2="BackgroundImageFix" result="effect1_dropShadow_225_17775"/>
<feBlend mode="normal" in="SourceGraphic" in2="effect1_dropShadow_225_17775" result="shape"/>
</filter>
<linearGradient id="paint0_linear_225_17775" x1="111.582" y1="151.677" x2="30.8542" y2="60.4013" gradientUnits="userSpaceOnUse">
<stop stop-color="white"/>
<stop offset="1" stop-color="#B1CFE3"/>
</linearGradient>
<linearGradient id="paint1_linear_225_17775" x1="112.711" y1="112.353" x2="-4.2011" y2="37.806" gradientUnits="userSpaceOnUse">
<stop stop-color="white"/>
<stop offset="1" stop-color="#B1CFE3"/>
</linearGradient>
<linearGradient id="paint2_linear_225_17775" x1="-65.2553" y1="111.616" x2="68.9334" y2="50.3393" gradientUnits="userSpaceOnUse">
<stop stop-color="white"/>
<stop offset="1" stop-color="#B1CFE3"/>
</linearGradient>
<linearGradient id="paint3_linear_225_17775" x1="27.5304" y1="5.68585" x2="51.3872" y2="-8.31801" gradientUnits="userSpaceOnUse">
<stop stop-color="#35B8AE"/>
<stop offset="1" stop-color="#1B6575"/>
</linearGradient>
<linearGradient id="paint4_linear_225_17775" x1="30.8771" y1="68.8512" x2="2.92404" y2="-4.51462" gradientUnits="userSpaceOnUse">
<stop stop-color="#35B8AE"/>
<stop offset="1" stop-color="#1B6575"/>
</linearGradient>
<linearGradient id="paint5_linear_225_17775" x1="35.9162" y1="-2.56459" x2="5.83944" y2="23.0201" gradientUnits="userSpaceOnUse">
<stop stop-color="#35B8AE"/>
<stop offset="1" stop-color="#1B6575"/>
</linearGradient>
<linearGradient id="paint6_linear_225_17775" x1="40.3662" y1="35.2671" x2="20.5092" y2="35.2671" gradientUnits="userSpaceOnUse">
<stop stop-color="#35B8AE"/>
<stop offset="1" stop-color="#1B6575"/>
</linearGradient>
<linearGradient id="paint7_linear_225_17775" x1="9.39168" y1="14.5283" x2="50.7468" y2="55.9865" gradientUnits="userSpaceOnUse">
<stop stop-color="#35B8AE"/>
<stop offset="1" stop-color="#1B6575"/>
</linearGradient>
<linearGradient id="paint8_linear_225_17775" x1="37.8857" y1="18.7307" x2="32.1162" y2="11.259" gradientUnits="userSpaceOnUse">
<stop stop-color="#C0D9ED"/>
<stop offset="1" stop-color="#E5ECF1"/>
</linearGradient>
<linearGradient id="paint9_linear_225_17775" x1="40.2155" y1="16.932" x2="34.4493" y2="9.46031" gradientUnits="userSpaceOnUse">
<stop stop-color="#C0D9ED"/>
<stop offset="1" stop-color="#E5ECF1"/>
</linearGradient>
<linearGradient id="paint10_linear_225_17775" x1="33.7509" y1="21.9228" x2="27.9846" y2="14.4479" gradientUnits="userSpaceOnUse">
<stop stop-color="#C0D9ED"/>
<stop offset="1" stop-color="#E5ECF1"/>
</linearGradient>
<linearGradient id="paint11_linear_225_17775" x1="36.0833" y1="20.1241" x2="30.3137" y2="12.6492" gradientUnits="userSpaceOnUse">
<stop stop-color="#C0D9ED"/>
<stop offset="1" stop-color="#E5ECF1"/>
</linearGradient>
<linearGradient id="paint12_linear_225_17775" x1="38.0109" y1="18.6697" x2="69.9669" y2="7.4975" gradientUnits="userSpaceOnUse">
<stop stop-color="#F9B238"/>
<stop offset="1" stop-color="#DE711F"/>
</linearGradient>
<linearGradient id="paint13_linear_225_17775" x1="46.4993" y1="75.2353" x2="21.4295" y2="9.44099" gradientUnits="userSpaceOnUse">
<stop stop-color="#F9B238"/>
<stop offset="1" stop-color="#DE711F"/>
</linearGradient>
<linearGradient id="paint14_linear_225_17775" x1="52.6457" y1="9.67272" x2="22.5722" y2="35.2574" gradientUnits="userSpaceOnUse">
<stop stop-color="#F9B238"/>
<stop offset="1" stop-color="#DE711F"/>
</linearGradient>
<linearGradient id="paint15_linear_225_17775" x1="57.0957" y1="44.5632" x2="37.2419" y2="44.5632" gradientUnits="userSpaceOnUse">
<stop stop-color="#F9B238"/>
<stop offset="1" stop-color="#DE711F"/>
</linearGradient>
<linearGradient id="paint16_linear_225_17775" x1="1.44387" y1="10.4063" x2="101.45" y2="86.282" gradientUnits="userSpaceOnUse">
<stop stop-color="#F9B238"/>
<stop offset="1" stop-color="#DE711F"/>
</linearGradient>
<linearGradient id="paint17_linear_225_17775" x1="53.952" y1="29.4235" x2="47.2815" y2="23.4062" gradientUnits="userSpaceOnUse">
<stop stop-color="#C0D9ED"/>
<stop offset="1" stop-color="#E5ECF1"/>
</linearGradient>
<linearGradient id="paint18_linear_225_17775" x1="56.352" y1="26.7624" x2="49.6815" y2="20.7452" gradientUnits="userSpaceOnUse">
<stop stop-color="#C0D9ED"/>
<stop offset="1" stop-color="#E5ECF1"/>
</linearGradient>
<linearGradient id="paint19_linear_225_17775" x1="50.5952" y1="33.1433" x2="43.9247" y2="27.126" gradientUnits="userSpaceOnUse">
<stop stop-color="#C0D9ED"/>
<stop offset="1" stop-color="#E5ECF1"/>
</linearGradient>
<linearGradient id="paint20_linear_225_17775" x1="52.9959" y1="30.4854" x2="46.3254" y2="24.4649" gradientUnits="userSpaceOnUse">
<stop stop-color="#C0D9ED"/>
<stop offset="1" stop-color="#E5ECF1"/>
</linearGradient>
<linearGradient id="paint21_linear_225_17775" x1="26.6711" y1="37.0819" x2="58.6271" y2="25.9097" gradientUnits="userSpaceOnUse">
<stop stop-color="#B82340"/>
<stop offset="1" stop-color="#61071B"/>
</linearGradient>
<linearGradient id="paint22_linear_225_17775" x1="32.4244" y1="79.2094" x2="14.469" y2="32.0911" gradientUnits="userSpaceOnUse">
<stop stop-color="#B82340"/>
<stop offset="1" stop-color="#61071B"/>
</linearGradient>
<linearGradient id="paint23_linear_225_17775" x1="41.3091" y1="28.085" x2="11.2323" y2="53.6697" gradientUnits="userSpaceOnUse">
<stop stop-color="#B82340"/>
<stop offset="1" stop-color="#61071B"/>
</linearGradient>
<linearGradient id="paint24_linear_225_17775" x1="45.7559" y1="55.7226" x2="25.902" y2="55.7226" gradientUnits="userSpaceOnUse">
<stop stop-color="#B82340"/>
<stop offset="1" stop-color="#61071B"/>
</linearGradient>
<linearGradient id="paint25_linear_225_17775" x1="19.8301" y1="39.9779" x2="54.2991" y2="74.6625" gradientUnits="userSpaceOnUse">
<stop stop-color="#B82340"/>
<stop offset="1" stop-color="#61071B"/>
</linearGradient>
<linearGradient id="paint26_linear_225_17775" x1="43.8317" y1="49.1679" x2="35.858" y2="41.3454" gradientUnits="userSpaceOnUse">
<stop stop-color="#C0D9ED"/>
<stop offset="1" stop-color="#E5ECF1"/>
</linearGradient>
<linearGradient id="paint27_linear_225_17775" x1="46.2452" y1="46.7096" x2="38.2683" y2="38.8871" gradientUnits="userSpaceOnUse">
<stop stop-color="#C0D9ED"/>
<stop offset="1" stop-color="#E5ECF1"/>
</linearGradient>
<linearGradient id="paint28_linear_225_17775" x1="40.2793" y1="52.7911" x2="32.3056" y2="44.9687" gradientUnits="userSpaceOnUse">
<stop stop-color="#C0D9ED"/>
<stop offset="1" stop-color="#E5ECF1"/>
</linearGradient>
<linearGradient id="paint29_linear_225_17775" x1="42.6889" y1="50.3328" x2="34.7152" y2="42.5103" gradientUnits="userSpaceOnUse">
<stop stop-color="#C0D9ED"/>
<stop offset="1" stop-color="#E5ECF1"/>
</linearGradient>
<linearGradient id="paint30_linear_225_17775" x1="39.2434" y1="48.5952" x2="71.1993" y2="37.423" gradientUnits="userSpaceOnUse">
<stop stop-color="#A03FD9"/>
<stop offset="1" stop-color="#5D1E82"/>
</linearGradient>
<linearGradient id="paint31_linear_225_17775" x1="42.3677" y1="76.8572" x2="31.247" y2="47.6717" gradientUnits="userSpaceOnUse">
<stop stop-color="#A03FD9"/>
<stop offset="1" stop-color="#5D1E82"/>
</linearGradient>
<linearGradient id="paint32_linear_225_17775" x1="53.8813" y1="39.5983" x2="23.8046" y2="65.183" gradientUnits="userSpaceOnUse">
<stop stop-color="#A03FD9"/>
<stop offset="1" stop-color="#5D1E82"/>
</linearGradient>
<linearGradient id="paint33_linear_225_17775" x1="58.3281" y1="60.2661" x2="38.4743" y2="60.2661" gradientUnits="userSpaceOnUse">
<stop stop-color="#A03FD9"/>
<stop offset="1" stop-color="#5D1E82"/>
</linearGradient>
<linearGradient id="paint34_linear_225_17775" x1="23.7078" y1="42.0662" x2="77.8055" y2="83.1093" gradientUnits="userSpaceOnUse">
<stop stop-color="#A03FD9"/>
<stop offset="1" stop-color="#5D1E82"/>
</linearGradient>
<linearGradient id="paint35_linear_225_17775" x1="55.6285" y1="59.6966" x2="49.2766" y2="54.1137" gradientUnits="userSpaceOnUse">
<stop stop-color="#C0D9ED"/>
<stop offset="1" stop-color="#E5ECF1"/>
</linearGradient>
<linearGradient id="paint36_linear_225_17775" x1="58.0227" y1="56.9744" x2="51.6708" y2="51.3915" gradientUnits="userSpaceOnUse">
<stop stop-color="#C0D9ED"/>
<stop offset="1" stop-color="#E5ECF1"/>
</linearGradient>
<linearGradient id="paint37_linear_225_17775" x1="52.337" y1="63.4453" x2="45.9819" y2="57.8624" gradientUnits="userSpaceOnUse">
<stop stop-color="#C0D9ED"/>
<stop offset="1" stop-color="#E5ECF1"/>
</linearGradient>
<linearGradient id="paint38_linear_225_17775" x1="54.7271" y1="60.7231" x2="48.3751" y2="55.1402" gradientUnits="userSpaceOnUse">
<stop stop-color="#C0D9ED"/>
<stop offset="1" stop-color="#E5ECF1"/>
</linearGradient>
</defs>
</svg>
