<svg width="20" height="20" viewBox="0 0 20 20" fill="none" xmlns="http://www.w3.org/2000/svg">
<path d="M8.33341 3.33325C7.44936 3.33325 6.60151 3.68444 5.97639 4.30956C5.35127 4.93468 5.00008 5.78253 5.00008 6.66659C5.00008 7.55064 5.35127 8.39849 5.97639 9.02361C6.60151 9.64873 7.44936 9.99992 8.33341 9.99992C9.21747 9.99992 10.0653 9.64873 10.6904 9.02361C11.3156 8.39849 11.6667 7.55064 11.6667 6.66659C11.6667 5.78253 11.3156 4.93468 10.6904 4.30956C10.0653 3.68444 9.21747 3.33325 8.33341 3.33325ZM14.1667 9.99992C14.1158 9.99897 14.0662 10.016 14.0266 10.048C13.9869 10.08 13.9599 10.1249 13.9501 10.1749L13.7917 11.2749C13.5417 11.3833 13.3001 11.5166 13.0834 11.6666L12.0501 11.2499C11.9584 11.2499 11.8501 11.2499 11.7917 11.3583L10.9584 12.7999C10.9084 12.8916 10.9251 12.9999 11.0084 13.0666L11.8917 13.7499C11.8585 14.0267 11.8585 14.3065 11.8917 14.5833L11.0084 15.2666C10.971 15.2987 10.9456 15.3426 10.9365 15.3911C10.9274 15.4396 10.9351 15.4898 10.9584 15.5333L11.7917 16.9749C11.8417 17.0833 11.9501 17.0833 12.0501 17.0833L13.0834 16.6666C13.3001 16.8166 13.5334 16.9583 13.7917 17.0583L13.9501 18.1583C13.9667 18.2583 14.0501 18.3333 14.1667 18.3333H15.8334C15.9251 18.3333 16.0167 18.2583 16.0334 18.1583L16.1917 17.0583C16.4417 16.9499 16.6667 16.8166 16.8917 16.6666L17.9167 17.0833C18.0251 17.0833 18.1334 17.0833 18.1917 16.9749L19.0251 15.5333C19.0483 15.4898 19.0561 15.4396 19.047 15.3911C19.0379 15.3426 19.0125 15.2987 18.9751 15.2666L18.0834 14.5833C18.1001 14.4416 18.1167 14.3083 18.1167 14.1666C18.1167 14.0249 18.1084 13.8916 18.0834 13.7499L18.9667 13.0666C19.0042 13.0345 19.0296 12.9905 19.0387 12.942C19.0477 12.8936 19.04 12.8434 19.0167 12.7999L18.1834 11.3583C18.1334 11.2499 18.0251 11.2499 17.9167 11.2499L16.8917 11.6666C16.6667 11.5166 16.4417 11.3749 16.1834 11.2749L16.0251 10.1749C16.0198 10.1274 15.9975 10.0835 15.9622 10.0513C15.9269 10.0191 15.8812 10.0008 15.8334 9.99992H14.1667ZM8.33341 11.6666C4.65008 11.6666 1.66675 13.1583 1.66675 14.9999V16.6666H9.73341C9.3615 15.8856 9.16793 15.0316 9.16675 14.1666C9.16844 13.3293 9.35034 12.5023 9.70008 11.7416C9.25841 11.6916 8.80008 11.6666 8.33341 11.6666ZM15.0001 12.9166C15.6917 12.9166 16.2501 13.4749 16.2501 14.1666C16.2501 14.8583 15.6917 15.4166 15.0001 15.4166C14.3001 15.4166 13.7501 14.8583 13.7501 14.1666C13.7501 13.4749 14.3084 12.9166 15.0001 12.9166Z" fill="#033329"/>
</svg>
