<svg width="20" height="20" viewBox="0 0 20 20" fill="none" xmlns="http://www.w3.org/2000/svg">
<path d="M16.6667 16.6667C16.6667 17.1088 16.4912 17.5327 16.1786 17.8453C15.866 18.1578 15.4421 18.3334 15.0001 18.3334H3.33341C2.89139 18.3334 2.46746 18.1578 2.1549 17.8453C1.84234 17.5327 1.66675 17.1088 1.66675 16.6667V5.00008C1.66675 4.55805 1.84234 4.13413 2.1549 3.82157C2.46746 3.50901 2.89139 3.33341 3.33341 3.33341H7.91675C7.66675 4.00008 7.50008 4.66675 7.50008 5.41675C7.50008 8.41675 9.91675 10.8334 12.9167 10.8334C13.5834 10.8334 14.1667 10.7501 14.6667 10.5001L16.6667 12.5001V16.6667ZM16.0834 7.41675C16.4167 6.83341 16.6667 6.16675 16.6667 5.41675C16.6667 3.33341 15.0001 1.66675 12.9167 1.66675C10.8334 1.66675 9.16675 3.33341 9.16675 5.41675C9.16675 7.50008 10.8334 9.16675 12.9167 9.16675C13.6667 9.16675 14.3334 8.91675 14.9167 8.58341L17.5001 11.1667L18.6667 10.0001L16.0834 7.41675ZM12.9167 7.50008C11.7501 7.50008 10.8334 6.58341 10.8334 5.41675C10.8334 4.25008 11.7501 3.33341 12.9167 3.33341C14.0834 3.33341 15.0001 4.25008 15.0001 5.41675C15.0001 6.58341 14.0834 7.50008 12.9167 7.50008Z" fill="#033329"/>
</svg>
