<svg width="47" height="47" viewBox="0 0 47 47" fill="none" xmlns="http://www.w3.org/2000/svg">
<path d="M21.1945 0.0374718C15.0663 0.767509 10.4187 2.87536 6.66571 6.6078C3.09779 10.1757 0.794578 15.0701 0.229057 20.3551C0.085106 21.6404 0.085106 24.3754 0.229057 25.6607C0.887118 31.7375 3.83811 37.2899 8.34171 40.9298C12.3209 44.1378 17.935 46.04 23.4051 46.04C33.0498 46.0298 41.8823 39.5828 44.9258 30.3494C45.7484 27.8611 46.0774 25.7944 46.0774 23.0079C46.0774 20.2214 45.7484 18.1136 44.9258 15.6561C44.4117 14.1035 43.5068 12.191 43.1881 11.9751C42.8591 11.7386 42.4581 11.7592 42.129 12.0162C41.7383 12.3247 41.7794 12.736 42.3347 13.9184C44.3808 18.3295 44.8435 22.8228 43.7536 27.7377C42.6226 32.7966 39.9081 37.1254 36.0522 39.9735C33.2658 42.0403 30.4382 43.233 26.644 43.9528C25.2354 44.2098 20.8552 44.2098 19.4465 43.9528C14.6755 43.0479 10.974 41.1868 7.92014 38.133C4.58871 34.8016 2.60425 30.5448 1.90506 25.27C1.65828 23.3781 1.75082 20.4271 2.1107 18.7099C3.60162 11.6358 8.60905 5.82635 15.5598 3.12213C21.1431 0.942307 27.1479 1.19936 32.4226 3.84189C33.2863 4.27374 33.749 4.2943 34.0369 3.92414C34.3248 3.55399 34.3146 3.05016 34.0266 2.78282C33.1629 1.99109 29.6053 0.726379 26.8497 0.232834C25.914 0.0580368 22.089 -0.0653496 21.1945 0.0374718Z" fill="#033329"/>
<path d="M35.7232 4.42793L32.5049 7.63598L32.5151 8.30432C32.5151 8.67448 32.5768 9.64101 32.6488 10.4636L32.7722 11.9545L27.4974 17.2498C22.2741 22.504 22.2227 22.5555 22.2227 22.9667C22.2227 23.522 22.5414 23.8304 23.0966 23.8304C23.4976 23.8304 23.6108 23.7173 28.8033 18.5557L34.0986 13.2809L35.5895 13.4043C36.4121 13.4763 37.3786 13.538 37.7488 13.538L38.4171 13.5482L41.6252 10.3299C44.6995 7.26582 44.8435 7.10131 44.8435 6.73115C44.8435 6.30958 44.5967 5.98055 44.206 5.88801C44.0723 5.85716 43.1881 5.7749 42.2215 5.71321L40.4736 5.57954L40.3399 3.83157C40.2782 2.86504 40.1959 1.98077 40.1651 1.8471C40.0726 1.45638 39.7435 1.2096 39.322 1.2096C38.9518 1.2096 38.7873 1.35356 35.7232 4.42793ZM38.7153 5.41502C38.7873 6.59748 38.9107 6.95735 39.3014 7.14243C39.4453 7.21441 40.052 7.30695 40.6381 7.3378C41.2242 7.37893 41.7691 7.44062 41.8308 7.47146C41.9131 7.51259 41.1728 8.32489 39.8258 9.67185L37.6871 11.8106L36.0831 11.6872L34.4893 11.5638L34.3659 9.97004L34.2425 8.36602L36.3812 6.22732C37.7282 4.88035 38.5405 4.14003 38.5816 4.22229C38.6125 4.28398 38.6742 4.82894 38.7153 5.41502Z" fill="#033329"/>
<path d="M20.8868 7.5228C18.7995 7.85183 17.3292 8.32481 15.5298 9.23993C14.0389 10.0111 12.8564 10.8954 11.6637 12.1395C6.0496 18.0106 6.0496 28.0049 11.6637 33.8761C14.152 36.4775 17.432 38.0609 21.3392 38.5442C22.8302 38.719 25.1848 38.6162 26.542 38.2871C29.565 37.5777 31.8785 36.2821 34.0994 34.0612C36.3615 31.8094 37.6879 29.393 38.3871 26.2878C38.5928 25.3521 38.6236 24.9511 38.6236 23.0078C38.6236 21.0645 38.5928 20.6634 38.3871 19.7175C37.9758 17.8975 36.9887 15.4915 36.4952 15.1522C36.1765 14.926 35.7754 14.9465 35.4464 15.2036C35.0454 15.5121 35.0968 15.9542 35.6418 17.075C36.5672 19.008 36.9579 20.6737 36.9579 22.8021C36.9579 24.437 36.7625 25.7017 36.2587 27.1926C34.7164 31.8094 31.0148 35.3464 26.5112 36.5186C21.4009 37.845 15.6121 35.9325 12.2909 31.8094C10.4298 29.5061 9.37076 26.8328 9.17539 23.9538C8.87721 19.6969 10.3064 16.0365 13.4117 13.0649C17.1544 9.49698 22.5423 8.18086 27.2309 9.70262C27.6731 9.84657 28.4545 10.1653 28.9789 10.4121C30.0997 10.9571 30.5418 11.0085 30.8503 10.6075C31.1073 10.2784 31.1279 9.87742 30.9017 9.55867C30.5727 9.08569 28.3209 8.13973 26.542 7.71816C25.1951 7.39941 22.3058 7.30687 20.8868 7.5228Z" fill="#033329"/>
<path d="M21.2446 14.9569C19.363 15.3579 17.5122 16.4993 16.4634 17.9285C15.9184 18.6585 15.3735 19.7793 15.1061 20.715C14.7771 21.8666 14.7771 24.1492 15.1061 25.3008C15.7642 27.6143 17.2037 29.3417 19.291 30.3597C20.566 30.9766 21.2241 31.1411 22.787 31.2028C24.4424 31.2748 25.3781 31.0691 26.8484 30.3391C27.6813 29.9278 27.9692 29.7016 28.8534 28.8173C29.7377 27.9331 29.9639 27.6452 30.3752 26.8123C31.0333 25.4859 31.2698 24.4988 31.2698 23.0593C31.2698 21.373 31.023 20.3037 30.5603 19.9541C30.2827 19.7382 29.6863 19.7896 29.4395 20.0569C29.1722 20.3345 29.1619 20.6841 29.3676 21.4656C29.5629 22.1956 29.5629 23.6968 29.3573 24.5502C29.1105 25.6196 28.5655 26.6375 27.8047 27.4292C27.0129 28.2724 26.2829 28.7454 25.1519 29.1361C24.4218 29.3931 24.1853 29.424 23.044 29.424C21.9232 29.424 21.6662 29.3931 20.9773 29.1567C19.8462 28.7556 19.0545 28.2518 18.2833 27.4395C17.0495 26.1234 16.5148 24.6119 16.5868 22.648C16.6279 21.6918 16.6896 21.3936 16.9569 20.6944C17.7178 18.7613 19.4555 17.2087 21.4503 16.6843C22.2317 16.4787 23.8357 16.4787 24.5863 16.6843C25.3883 16.9003 25.7482 16.8797 26.0053 16.6021C26.2623 16.3347 26.3035 15.7589 26.0978 15.4916C25.9025 15.2346 25.4089 15.0186 24.7406 14.8952C23.8974 14.741 22.1083 14.7719 21.2446 14.9569Z" fill="#033329"/>
</svg>
