<svg width="29" height="32" viewBox="0 0 29 32" fill="none" xmlns="http://www.w3.org/2000/svg">
<path d="M1.2663 30.7934L1.1776 30.7085C0.830201 30.3409 0.625 29.77 0.625 29.0308V29.2048V2.79762V2.97252C0.625 2.17202 0.8642 1.56908 1.2649 1.20752L16.0587 16.0009L1.2663 30.7934Z" fill="url(#paint0_linear_593_1718)"/>
<path d="M20.9906 20.9335L16.0586 16.0007L20.9901 11.0688L26.9439 14.4512C27.7 14.8808 28.1244 15.4345 28.1954 16.0002C28.1954 16.0007 28.1954 16.0017 28.1954 16.0025C28.1244 16.5669 27.7 17.1211 26.9439 17.5506L20.9906 20.9335Z" fill="url(#paint1_linear_593_1718)"/>
<path d="M2.32175 31.1819C1.90855 31.1823 1.54795 31.0475 1.26675 30.7938L16.059 16.001L20.991 20.9337L3.65945 30.7813C3.17995 31.0532 2.72555 31.1819 2.32175 31.1819ZM1.26255 30.9655C1.23635 30.9418 1.21075 30.9166 1.18555 30.8904L1.26255 30.9655Z" fill="url(#paint2_linear_593_1718)"/>
<path d="M16.0594 16.0007L1.26562 1.20729C1.54682 0.954044 1.90693 0.819714 2.31973 0.819714C2.72463 0.819714 3.17933 0.948904 3.65983 1.22126L20.9909 11.0688L16.0594 16.0007ZM3.65983 1.04693C3.17933 0.774453 2.72463 0.645264 2.31973 0.645264C2.31783 0.645264 2.31652 0.645264 2.31462 0.645264C2.31702 0.645264 2.31872 0.645264 2.32162 0.645264C2.72562 0.645264 3.17983 0.774453 3.65983 1.04693Z" fill="url(#paint3_linear_593_1718)"/>
<path d="M1.26408 30.9687L1.26038 30.9655C1.26168 30.9664 1.26308 30.9677 1.26408 30.9687ZM1.18338 30.8903L1.17578 30.8829C1.17868 30.8856 1.18098 30.888 1.18338 30.8903Z" fill="black"/>
<path d="M2.32008 31.3568C1.90678 31.3568 1.54568 31.222 1.26458 30.9683C1.26358 30.9674 1.26168 30.9665 1.26038 30.9655L1.18338 30.8904C1.18098 30.888 1.17868 30.8853 1.17578 30.8825L1.26458 30.7938C1.54568 31.0475 1.90628 31.1823 2.31958 31.1819C2.72338 31.1819 3.17768 31.0532 3.65728 30.7813L20.9889 20.9338L21.0999 21.0448L20.9874 21.1087L3.65728 30.9557C3.22028 31.2034 2.80458 31.3326 2.42918 31.354C2.39228 31.3558 2.35588 31.3568 2.32008 31.3568Z" fill="url(#paint4_linear_593_1718)"/>
<path d="M1.1776 30.8825C0.830201 30.5148 0.625 29.9444 0.625 29.2047V29.0308C0.625 29.77 0.830201 30.3409 1.1776 30.7085L1.2663 30.7934L1.1776 30.8825Z" fill="url(#paint5_linear_593_1718)"/>
<path d="M21.1013 21.0448L20.9902 20.9337L26.9435 17.5508C27.6996 17.1213 28.1241 16.5672 28.195 16.0027C28.195 16.2099 28.1488 16.4169 28.057 16.6185C27.8718 17.0247 27.5006 17.4086 26.9435 17.7252L21.1013 21.0448Z" fill="url(#paint6_linear_593_1718)"/>
<path d="M28.1958 16.0008C28.1954 15.3762 27.7779 14.7512 26.9444 14.2773C27.7789 14.7512 28.1968 15.3762 28.1958 16.0008Z" fill="#404040"/>
<path d="M28.1936 16.0005C28.1227 15.4347 27.6982 14.8811 26.9421 14.4514L20.9883 11.069L21.0994 10.958L26.9421 14.2775C27.7757 14.7514 28.1931 15.3759 28.1936 16.0005Z" fill="url(#paint7_linear_593_1718)"/>
<path d="M0.630501 2.58483C0.699601 1.35822 1.3666 0.649688 2.3102 0.645508C1.9011 0.647898 1.5448 0.782217 1.2659 1.03357L1.2625 1.03643C1.2331 1.06294 1.2052 1.091 1.1776 1.11989C0.864201 1.45148 0.666501 1.94819 0.630501 2.58483Z" fill="#404040"/>
<path d="M0.625 2.97239V2.79799C0.625 2.79559 0.625 2.79369 0.625 2.79139V2.78999C0.625 2.72419 0.6268 2.65979 0.6302 2.59739V2.59449L0.630501 2.59179V2.58619V2.58469C0.666501 1.94807 0.864201 1.45135 1.1776 1.11977L1.2649 1.20741C0.8642 1.56896 0.625 2.17199 0.625 2.97239ZM1.2625 1.0363L1.2659 1.03296L1.2625 1.0363Z" fill="url(#paint8_linear_593_1718)"/>
<path d="M20.9884 11.0688L3.65728 1.22126C3.17678 0.948904 2.72208 0.819704 2.31718 0.819704C1.90438 0.819704 1.54428 0.954034 1.26308 1.20729L1.17578 1.11964C1.20338 1.09075 1.23138 1.06269 1.26068 1.03618C1.26168 1.03523 1.26308 1.03427 1.26408 1.03332C1.54298 0.781974 1.89928 0.647644 2.30838 0.645264C2.30928 0.645264 2.31058 0.645264 2.31208 0.645264C2.31398 0.645264 2.31528 0.645264 2.31718 0.645264C2.72208 0.645264 3.17678 0.774454 3.65728 1.04693L21.0999 10.9574L20.9884 11.0688Z" fill="url(#paint9_linear_593_1718)"/>
<defs>
<linearGradient id="paint0_linear_593_1718" x1="14.7469" y1="2.51902" x2="-5.29187" y2="22.5578" gradientUnits="userSpaceOnUse">
<stop stop-color="#00A0FF"/>
<stop offset="0.00657445" stop-color="#00A1FF"/>
<stop offset="0.2601" stop-color="#00BEFF"/>
<stop offset="0.5122" stop-color="#00D2FF"/>
<stop offset="0.7604" stop-color="#00DFFF"/>
<stop offset="1" stop-color="#00E3FF"/>
</linearGradient>
<linearGradient id="paint1_linear_593_1718" x1="29.1166" y1="16.0014" x2="0.224593" y2="16.0014" gradientUnits="userSpaceOnUse">
<stop stop-color="#FFE000"/>
<stop offset="0.4087" stop-color="#FFBD00"/>
<stop offset="0.7754" stop-color="#FFA500"/>
<stop offset="1" stop-color="#FF9C00"/>
</linearGradient>
<linearGradient id="paint2_linear_593_1718" x1="18.3618" y1="18.7416" x2="-8.81221" y2="45.9157" gradientUnits="userSpaceOnUse">
<stop stop-color="#FF3A44"/>
<stop offset="1" stop-color="#C31162"/>
</linearGradient>
<linearGradient id="paint3_linear_593_1718" x1="-2.56874" y1="-7.67044" x2="9.56563" y2="4.46392" gradientUnits="userSpaceOnUse">
<stop stop-color="#32A071"/>
<stop offset="0.0685" stop-color="#2DA771"/>
<stop offset="0.4762" stop-color="#15CF74"/>
<stop offset="0.8009" stop-color="#06E775"/>
<stop offset="1" stop-color="#00F076"/>
</linearGradient>
<linearGradient id="paint4_linear_593_1718" x1="18.3597" y1="18.7416" x2="-8.81439" y2="45.9157" gradientUnits="userSpaceOnUse">
<stop stop-color="#CC2E36"/>
<stop offset="1" stop-color="#9C0E4E"/>
</linearGradient>
<linearGradient id="paint5_linear_593_1718" x1="14.747" y1="2.51897" x2="-5.29186" y2="22.5578" gradientUnits="userSpaceOnUse">
<stop stop-color="#008DE0"/>
<stop offset="0.00657445" stop-color="#008DE0"/>
<stop offset="0.2601" stop-color="#00A7E0"/>
<stop offset="0.5122" stop-color="#00B8E0"/>
<stop offset="0.7604" stop-color="#00C4E0"/>
<stop offset="1" stop-color="#00C7E0"/>
</linearGradient>
<linearGradient id="paint6_linear_593_1718" x1="29.1162" y1="16.0017" x2="0.224336" y2="16.0017" gradientUnits="userSpaceOnUse">
<stop stop-color="#E0C500"/>
<stop offset="0.4087" stop-color="#E0A600"/>
<stop offset="0.7754" stop-color="#E09100"/>
<stop offset="1" stop-color="#E08900"/>
</linearGradient>
<linearGradient id="paint7_linear_593_1718" x1="29.1148" y1="16.0017" x2="0.222883" y2="16.0017" gradientUnits="userSpaceOnUse">
<stop stop-color="#FFE840"/>
<stop offset="0.4087" stop-color="#FFCE40"/>
<stop offset="0.7754" stop-color="#FFBC40"/>
<stop offset="1" stop-color="#FFB540"/>
</linearGradient>
<linearGradient id="paint8_linear_593_1718" x1="14.7469" y1="2.51889" x2="-5.29186" y2="22.5577" gradientUnits="userSpaceOnUse">
<stop stop-color="#40B8FF"/>
<stop offset="0.00657445" stop-color="#40B9FF"/>
<stop offset="0.2601" stop-color="#40CEFF"/>
<stop offset="0.5122" stop-color="#40DDFF"/>
<stop offset="0.7604" stop-color="#40E7FF"/>
<stop offset="1" stop-color="#40EAFF"/>
</linearGradient>
<linearGradient id="paint9_linear_593_1718" x1="-2.57129" y1="-7.67044" x2="9.56308" y2="4.46391" gradientUnits="userSpaceOnUse">
<stop stop-color="#65B895"/>
<stop offset="0.0685" stop-color="#62BD95"/>
<stop offset="0.4762" stop-color="#50DB97"/>
<stop offset="0.8009" stop-color="#44ED98"/>
<stop offset="1" stop-color="#40F498"/>
</linearGradient>
</defs>
</svg>
