<svg width="20" height="20" viewBox="0 0 20 20" fill="none" xmlns="http://www.w3.org/2000/svg">
<path d="M18.125 14.1667C18.125 13.9833 18.1 13.8167 18.075 13.6417L18.775 13.0333C18.925 12.9 18.9583 12.6833 18.8583 12.5083L18.3667 11.6583C18.3196 11.5746 18.2444 11.5103 18.1544 11.4768C18.0644 11.4432 17.9654 11.4426 17.875 11.475L16.9917 11.775C16.725 11.55 16.425 11.375 16.0917 11.25L15.9083 10.3417C15.8887 10.2478 15.8374 10.1634 15.7631 10.1028C15.6888 10.0421 15.5959 10.0088 15.5 10.0083H14.5167C14.3167 10.0083 14.15 10.15 14.1083 10.3417L13.925 11.25C13.5917 11.375 13.2917 11.55 13.025 11.775L12.1417 11.475C12.0512 11.4439 11.9527 11.4452 11.863 11.4786C11.7733 11.5121 11.6981 11.5756 11.65 11.6583L11.1583 12.5083C11.0583 12.6833 11.0917 12.9 11.2417 13.0333L11.9417 13.6417C11.9167 13.8167 11.8917 13.9833 11.8917 14.1667C11.8917 14.35 11.9167 14.5167 11.9417 14.6917L11.2417 15.3C11.0917 15.4333 11.0583 15.65 11.1583 15.825L11.65 16.675C11.75 16.85 11.9583 16.925 12.1417 16.8583L13.025 16.5583C13.2917 16.7833 13.5917 16.9583 13.925 17.0833L14.1083 17.9917C14.15 18.1833 14.3167 18.325 14.5167 18.325H15.5C15.7 18.325 15.8667 18.1833 15.9083 17.9917L16.0917 17.0833C16.425 16.9583 16.725 16.7833 16.9917 16.5583L17.875 16.8583C18.0667 16.925 18.2667 16.8417 18.3667 16.675L18.8583 15.825C18.9583 15.65 18.925 15.4333 18.775 15.3L18.075 14.6917C18.1 14.5167 18.125 14.35 18.125 14.1667ZM15 15.8333C14.0833 15.8333 13.3333 15.0833 13.3333 14.1667C13.3333 13.25 14.0833 12.5 15 12.5C15.9167 12.5 16.6667 13.25 16.6667 14.1667C16.6667 15.0833 15.9167 15.8333 15 15.8333ZM11.6667 9.38333V5H14.1667V8.33333H15.8333V4.16667C15.8333 3.70833 15.4583 3.33333 15 3.33333H11.6667C11.6667 2.875 11.2917 2.5 10.8333 2.5H5C4.54167 2.5 4.16667 2.875 4.16667 3.33333V15.8333H3.33333C2.875 15.8333 2.5 16.2083 2.5 16.6667C2.5 17.125 2.875 17.5 3.33333 17.5H10.2167C9.53243 16.5232 9.16579 15.3593 9.16667 14.1667C9.16667 12.1833 10.1583 10.4417 11.6667 9.38333ZM8.33333 10C8.33333 9.54167 8.70833 9.16667 9.16667 9.16667C9.625 9.16667 10 9.54167 10 10C10 10.4583 9.625 10.8333 9.16667 10.8333C8.70833 10.8333 8.33333 10.4583 8.33333 10Z" fill="#033329"/>
</svg>
