<svg width="129" height="128" viewBox="0 0 129 128" fill="none" xmlns="http://www.w3.org/2000/svg">
<mask id="mask0_225_17418" style="mask-type:luminance" maskUnits="userSpaceOnUse" x="0" y="0" width="70" height="90">
<path d="M69.542 0H0V89.9956H69.542V0Z" fill="white"/>
</mask>
<g mask="url(#mask0_225_17418)">
<g style="mix-blend-mode:soft-light">
<path d="M67.6515 98.2285C68.7045 98.2889 71.0485 97.4918 71.574 97.0323C75.0701 93.9729 81.9883 88.6705 82.6101 83.7992C82.7161 82.9671 79.1824 81.5119 78.8089 80.6599C76.7811 79.1851 75.9858 78.7995 74.7469 76.4504C71.088 69.5155 84.1481 60.2393 72.1791 53.8667C63.4118 49.1986 54.9407 50.9288 58.6609 36.6557C62.3811 22.3827 55.8667 -6.12523 38.7003 1.09244C28.8484 5.2345 35.4336 19.2043 29.2191 27.4279C23.3139 35.2423 25.6342 43.0251 33.8188 49.9195C42.0034 56.8135 36.3642 59.871 32.1636 67.5621C27.1174 76.801 41.9262 81.3891 48.9434 82.9244C54.5942 84.1606 68.1496 91.121 67.6515 98.229V98.2285Z" fill="url(#paint0_linear_225_17418)"/>
<mask id="mask1_225_17418" style="mask-type:luminance" maskUnits="userSpaceOnUse" x="25" y="-1" width="58" height="100">
<path d="M67.6515 98.2285C68.7045 98.2889 71.0485 97.4918 71.574 97.0323C75.0701 93.9729 81.9883 88.6705 82.6101 83.7992C82.7161 82.9671 79.1824 81.5119 78.8089 80.6599C76.7811 79.1851 75.9858 78.7995 74.7469 76.4504C71.088 69.5155 84.1481 60.2393 72.1791 53.8667C63.4118 49.1986 54.9407 50.9288 58.6609 36.6557C62.3811 22.3827 55.8667 -6.12523 38.7003 1.09244C28.8484 5.2345 35.4336 19.2043 29.2191 27.4279C23.3139 35.2423 25.6342 43.0251 33.8188 49.9195C42.0034 56.8135 36.3642 59.871 32.1636 67.5621C27.1174 76.801 41.9262 81.3891 48.9434 82.9244C54.5942 84.1606 68.1496 91.121 67.6515 98.229V98.2285Z" fill="white"/>
</mask>
<g mask="url(#mask1_225_17418)">
<path d="M76.8855 90.8063L77.0194 90.6263C49.2942 70.016 36.8015 35.1899 43.6016 -2.53325L43.3806 -2.57324C40.1581 15.3051 41.3338 33.2137 46.7813 49.2174C52.508 66.0419 62.918 80.4233 76.8855 90.8063Z" fill="#FCFDFE"/>
<path d="M29.625 71.1607C38.9928 69.924 53.7662 72.6192 62.5568 77.1682L62.6601 76.9692C53.8346 72.402 39.0021 69.6966 29.5957 70.9384L29.625 71.1607Z" fill="#FCFDFE"/>
<path d="M71.4885 86.6984L71.6671 86.5625C68.5506 82.4689 67.6227 76.9567 68.9106 70.1794C69.8547 65.21 71.9457 59.6885 75.1255 53.7684L74.9278 53.6624C71.7374 59.6024 69.6384 65.1458 68.6901 70.1376C67.3902 76.9799 68.3315 82.5521 71.4885 86.6984Z" fill="#FCFDFE"/>
<path d="M46.0958 46.9158L46.2809 46.7893C40.8026 38.7708 31.2697 35.1096 24.2372 33.4502L24.1855 33.6688C31.1795 35.3189 40.658 38.9573 46.0958 46.9163V46.9158Z" fill="#FCFDFE"/>
<path d="M41.8662 25.0915L42.089 25.1171C43.327 14.2471 51.2735 5.95737 55.9002 1.98321L55.7541 1.81299C51.1028 5.80854 43.1131 14.1461 41.8662 25.0919V25.0915Z" fill="#FCFDFE"/>
</g>
</g>
<g style="mix-blend-mode:soft-light">
<path d="M67.1852 104.277C68.1861 103.943 70.0692 102.336 70.3874 101.715C72.5049 97.58 76.972 90.0954 75.7489 85.3394C75.54 84.5269 71.7184 84.4818 71.0562 83.8279C68.6265 83.2075 67.7452 83.1428 65.7253 81.4187C59.762 76.3279 68.467 62.8809 54.9897 61.3847C45.1178 60.2889 37.8867 65.0286 36.0663 50.3914C34.246 35.7542 17.6531 11.6753 4.37162 24.728C-3.25068 32.2191 8.03278 42.7645 5.299 52.7025C2.7015 62.1465 7.73513 68.52 17.8884 71.8993C28.0422 75.2787 23.9331 80.2044 22.8732 88.9038C21.6003 99.3534 37.056 98.1418 44.1439 96.9735C49.8515 96.0327 65.0198 97.4884 67.1848 104.277H67.1852Z" fill="#FE8794"/>
<mask id="mask2_225_17418" style="mask-type:luminance" maskUnits="userSpaceOnUse" x="1" y="20" width="75" height="85">
<path d="M67.1852 104.277C68.1861 103.943 70.0692 102.336 70.3874 101.715C72.5049 97.58 76.972 90.0954 75.7489 85.3394C75.54 84.5269 71.7184 84.4818 71.0562 83.8279C68.6265 83.2075 67.7452 83.1428 65.7253 81.4187C59.762 76.3279 68.467 62.8809 54.9897 61.3847C45.1178 60.2889 37.8867 65.0286 36.0663 50.3914C34.246 35.7542 17.6531 11.6753 4.37162 24.728C-3.25068 32.2191 8.03278 42.7645 5.299 52.7025C2.7015 62.1465 7.73513 68.52 17.8884 71.8993C28.0422 75.2787 23.9331 80.2044 22.8732 88.9038C21.6003 99.3534 37.056 98.1418 44.1439 96.9735C49.8515 96.0327 65.0198 97.4884 67.1848 104.277H67.1852Z" fill="white"/>
</mask>
<g mask="url(#mask2_225_17418)">
<path d="M73.0195 93.9665L73.0772 93.7497C39.6966 84.8508 15.2131 57.1112 7.58424 19.5466L7.36426 19.5913C10.9798 37.3943 18.6938 53.5993 29.6721 66.4548C41.2137 79.9702 56.203 89.4835 73.0195 93.9665Z" fill="#FCFDFE"/>
<path d="M21.8451 93.1865C30.092 88.5742 44.8148 85.6163 54.6648 86.593L54.6867 86.3697C44.798 85.3893 30.0162 88.3594 21.7354 92.9907L21.8446 93.1865H21.8451Z" fill="#FCFDFE"/>
<path d="M66.4874 92.1445L66.6027 91.9524C62.1932 89.301 59.2934 84.5227 57.9842 77.7496C57.0242 72.7835 56.9257 66.8801 57.6912 60.2038L57.4684 60.1782C56.7001 66.8773 56.7996 72.8035 57.7642 77.792C59.086 84.6301 62.0211 89.4591 66.4874 92.145V92.1445Z" fill="#FCFDFE"/>
<path d="M28.1851 64.5698L28.3102 64.3838C20.2558 58.959 10.0444 59.0818 2.89648 60.1398L2.92951 60.3617C10.0383 59.3092 20.1903 59.185 28.1851 64.5698Z" fill="#FCFDFE"/>
<path d="M16.1864 45.8554L16.4027 45.7963C13.5345 35.2389 17.8528 24.5986 20.682 19.1952L20.4834 19.0911C17.6389 24.5233 13.2978 35.224 16.1864 45.8549V45.8554Z" fill="#FCFDFE"/>
</g>
</g>
</g>
<path d="M105.868 48.3586V89.1625L97.8506 88.5891V52.2612L104.942 48.7047L105.662 48.401L105.868 48.3586Z" fill="#97A6B7"/>
<path d="M125.83 48.4174V87.3768L105.867 89.1627V48.3188L125.83 48.4174Z" fill="white"/>
<path d="M112.251 85.9349L109.796 86.1512V52.8068L112.251 52.7915V85.9349Z" fill="#CED3DB"/>
<path d="M117.649 85.4848L115.031 85.7039V52.7772L117.649 52.7637V85.4848Z" fill="#CED3DB"/>
<path d="M122.885 85.0546L120.267 85.269V52.7507L122.885 52.7349V85.0546Z" fill="#CED3DB"/>
<g style="mix-blend-mode:multiply" opacity="0.5">
<path d="M112.25 85.9349L111.432 86.0066V52.7966L112.25 52.7915V85.9349Z" fill="#97A6B7"/>
</g>
<g style="mix-blend-mode:multiply" opacity="0.5">
<path d="M117.649 85.4848L116.831 85.5546V52.7679L117.649 52.7637V85.4848Z" fill="#97A6B7"/>
</g>
<g style="mix-blend-mode:multiply" opacity="0.5">
<path d="M123.049 85.0463L122.067 85.1142V52.7391L123.049 52.7349V85.0463Z" fill="#97A6B7"/>
</g>
<g style="mix-blend-mode:multiply" opacity="0.1">
<path d="M125.831 87.3745V87.3769L105.653 89.1623L97.8506 88.5894V84.364C101.45 79.4211 100.343 77.5528 101.118 74.0396C101.872 70.6221 100.311 52.8368 104.975 48.705C105.142 48.5557 105.332 48.4259 105.516 48.3157C105.541 48.344 105.575 48.3719 105.601 48.4003C105.63 48.4319 105.663 48.464 105.692 48.4957C108.072 51.1122 109.156 52.3522 109.669 53.6679C110.167 54.9469 110.131 56.304 110.212 59.0596C110.313 62.4473 110.292 65.3974 111.414 67.3837C111.648 67.8014 111.933 68.1744 112.281 68.5C112.953 69.1325 113.857 69.5822 115.073 69.8129C115.207 69.8389 115.345 69.8627 115.486 69.8822C115.957 69.9487 116.422 70.0654 116.879 70.2264C117.164 70.3259 117.446 70.4431 117.723 70.5784C118.652 71.0254 119.534 71.6551 120.341 72.4313C121.02 73.0838 121.647 73.8396 122.205 74.6754C122.46 75.0567 122.701 75.4553 122.926 75.8692C122.961 75.9325 122.995 75.9962 123.029 76.0609C124.283 78.4398 125.046 81.2973 124.981 84.2617C124.953 85.5528 125.29 86.563 125.831 87.3741V87.3745Z" fill="#97A6B7"/>
</g>
<path d="M101.286 28.5954V89.5422L65.9424 92.7094V26.822L101.286 28.5954Z" fill="url(#paint1_linear_225_17418)"/>
<path d="M98.9952 38.1302L68.7236 37.2837V33.1826L98.9952 34.2918V38.1302Z" fill="#CED3DB"/>
<path d="M98.9952 44.9408L68.7236 44.5599V40.4587L98.9952 41.102V44.9408Z" fill="#CED3DB"/>
<path d="M98.9952 51.7509L68.7236 51.836V47.7349L98.9952 47.9125V51.7509Z" fill="#CED3DB"/>
<path d="M98.9952 58.562L68.7236 59.1126V55.0115L98.9952 54.7231V58.562Z" fill="#CED3DB"/>
<path d="M98.9952 65.372L68.7236 66.3887V62.2876L98.9952 61.5337V65.372Z" fill="#CED3DB"/>
<path d="M98.9952 72.1831L68.7236 73.6653V69.5642L98.9952 68.3442V72.1831Z" fill="#CED3DB"/>
<path d="M98.9952 78.9931L68.7236 80.9414V76.8403L98.9952 75.1548V78.9931Z" fill="#CED3DB"/>
<path d="M65.9422 26.822V92.7094L55.3066 91.6095V32.6877L65.5446 26.9857L65.8511 26.8439L65.9422 26.822Z" fill="#97A6B7"/>
<g style="mix-blend-mode:multiply" opacity="0.5">
<path d="M98.9952 35.0346L68.7236 33.9761V33.1826L98.9952 34.2918V35.0346Z" fill="#97A6B7"/>
</g>
<g style="mix-blend-mode:multiply" opacity="0.5">
<path d="M98.9952 41.8452L68.7236 41.2522V40.4587L98.9952 41.102V41.8452Z" fill="#97A6B7"/>
</g>
<g style="mix-blend-mode:multiply" opacity="0.5">
<path d="M98.9952 48.6553L68.7236 48.5283V47.7349L98.9952 47.9125V48.6553Z" fill="#97A6B7"/>
</g>
<g style="mix-blend-mode:multiply" opacity="0.5">
<path d="M98.9952 55.4664L68.7236 55.8049V55.0115L98.9952 54.7231V55.4664Z" fill="#97A6B7"/>
</g>
<g style="mix-blend-mode:multiply" opacity="0.5">
<path d="M98.9952 62.2764L68.7236 63.081V62.2876L98.9952 61.5337V62.2764Z" fill="#97A6B7"/>
</g>
<g style="mix-blend-mode:multiply" opacity="0.5">
<path d="M98.9952 69.0875L68.7236 70.3576V69.5642L98.9952 68.3442V69.0875Z" fill="#97A6B7"/>
</g>
<g style="mix-blend-mode:multiply" opacity="0.5">
<path d="M98.9952 75.8975L68.7236 77.6337V76.8403L98.9952 75.1548V75.8975Z" fill="#97A6B7"/>
</g>
<g style="mix-blend-mode:multiply" opacity="0.1">
<path d="M100.322 89.6398L65.845 92.7089L55.3066 91.6089V78.5605C55.6341 77.7224 56.1359 76.9257 56.6219 76.1895C61.1165 69.3797 59.6366 66.7575 60.5723 61.9118C61.4923 57.147 59.4682 31.6258 65.5055 26.9852C65.5841 26.9252 65.6557 26.8689 65.7371 26.8159C65.7436 26.8243 65.7474 26.8341 65.7539 26.842C65.7683 26.8615 65.7813 26.8792 65.7948 26.8973C68.1328 29.9594 69.442 31.7109 70.1903 33.236C70.3247 33.5085 70.4401 33.775 70.5391 34.0396C70.9214 35.0447 71.0838 36.0372 71.1679 37.352C71.2224 38.2287 71.2442 39.2491 71.2717 40.5127C71.2768 40.7652 71.2833 41.0285 71.2898 41.3024C71.2935 41.4606 71.2977 41.6224 71.3014 41.7866C71.3261 42.7502 71.3442 43.6869 71.3703 44.5924C71.4014 45.6952 71.4442 46.7518 71.5205 47.7504C71.5414 48.0173 71.5647 48.2806 71.5902 48.5396C71.7107 49.7349 71.8944 50.8362 72.1883 51.825C72.5539 53.0654 73.0901 54.1225 73.8873 54.9601C74.1566 55.2452 74.4566 55.5034 74.79 55.735C75.5365 56.2545 76.4485 56.6363 77.5638 56.8628C78.9642 57.1465 80.3213 57.8483 81.5784 58.8757C82.5779 59.691 83.5141 60.7123 84.3606 61.8946C84.5345 62.1383 84.7061 62.3908 84.8726 62.6485C85.4959 63.6117 86.0614 64.6632 86.5562 65.786C86.9785 66.7422 87.3492 67.7505 87.6613 68.7965C87.7362 69.0448 87.8064 69.296 87.8738 69.5494C88.1454 70.5666 88.3613 71.6181 88.5129 72.6911C88.6547 73.684 88.744 74.6951 88.7714 75.7183C88.7789 75.9699 88.7821 76.223 88.7821 76.4778C88.7821 76.6336 88.7808 76.7894 88.7775 76.9466C88.7584 77.9535 88.8724 78.8395 89.0924 79.6246C90.8257 85.8251 98.9927 85.6689 100.322 89.6388V89.6398Z" fill="#97A6B7"/>
</g>
<path d="M25.6905 35.0691V95.8489L13.0908 95.061V40.605L25.6905 35.0691Z" fill="#97A6B7"/>
<path d="M61.0342 36.2659V92.7236L25.6904 95.849V35.2139L61.0342 36.2659Z" fill="white"/>
<path d="M39.599 42.6482V51.9183L32.3994 51.9392V42.5356L39.599 42.6482Z" fill="#CED3DB"/>
<path d="M49.4167 42.8032V51.8929L42.3809 51.912V42.6912L49.4167 42.8032Z" fill="#CED3DB"/>
<path d="M58.4171 42.9446V51.8645L52.0352 51.8854V42.8423L58.4171 42.9446Z" fill="#CED3DB"/>
<path d="M39.599 54.8677V64.1382L32.3994 64.334V54.9309L39.599 54.8677Z" fill="#CED3DB"/>
<path d="M49.4167 54.7852V63.8753L42.3809 64.0669V54.8461L49.4167 54.7852Z" fill="#CED3DB"/>
<path d="M58.4171 54.7031V63.623L52.0352 63.8058V54.7627L58.4171 54.7031Z" fill="#CED3DB"/>
<path d="M39.599 67.0879V76.358L32.3994 76.7296V67.326L39.599 67.0879Z" fill="#CED3DB"/>
<path d="M49.4167 66.7681V75.8577L42.3809 76.2223V67.0011L49.4167 66.7681Z" fill="#CED3DB"/>
<path d="M58.4171 66.4614V75.3813L52.0352 75.7259V66.6828L58.4171 66.4614Z" fill="#CED3DB"/>
<path d="M39.599 79.3074V88.5775L32.3994 89.1249V79.7213L39.599 79.3074Z" fill="#CED3DB"/>
<path d="M49.4167 78.75V87.8401L42.3809 88.3768V79.156L49.4167 78.75Z" fill="#CED3DB"/>
<path d="M58.4171 78.2192V87.1396L52.0352 87.6461V78.6034L58.4171 78.2192Z" fill="#CED3DB"/>
<g style="mix-blend-mode:multiply" opacity="0.1">
<path d="M61.1983 91.7864V92.7235L25.7201 95.8489L13.2549 95.061V85.8458C14.073 83.8264 15.151 81.8549 16.3654 80.2108C20.9688 73.9759 19.4856 71.6067 20.4442 67.1922C21.3995 62.7938 19.2764 39.0642 25.7629 35.2114C31.683 41.9989 31.2784 41.7064 31.4816 48.7543C31.59 52.5215 31.5835 55.8533 32.5499 58.3123C33.3852 60.4414 34.9474 61.9013 37.9203 62.4022C38.5407 62.5073 39.1523 62.6822 39.7504 62.9222C41.6507 63.6798 43.4246 65.0816 44.918 66.9168C46.8685 69.3097 48.3545 72.4476 49.0433 75.8786C49.2326 76.8152 49.3623 77.777 49.4246 78.7514C49.446 79.0751 49.46 79.4021 49.466 79.7295C49.4716 80.0141 49.4716 80.2992 49.466 80.5848C49.4632 80.6857 49.4632 80.7848 49.466 80.8824C49.493 83.3516 50.5432 84.9812 52.0124 86.1784C52.6323 86.6834 53.2937 87.1104 54.0178 87.4913C56.8883 89.0014 60.3798 89.7725 61.1978 91.7864H61.1983Z" fill="#97A6B7"/>
</g>
<g style="mix-blend-mode:multiply" opacity="0.5">
<path d="M32.3994 42.5356L39.599 42.6482V43.6314L32.3994 43.5333V42.5356Z" fill="#97A6B7"/>
</g>
<g style="mix-blend-mode:multiply" opacity="0.5">
<path d="M32.3994 54.9309L39.599 54.8677V55.8509L32.3994 55.9281V54.9309Z" fill="#97A6B7"/>
</g>
<g style="mix-blend-mode:multiply" opacity="0.5">
<path d="M32.3994 67.326L39.599 67.0879V68.0711L32.3994 68.3236V67.326Z" fill="#97A6B7"/>
</g>
<g style="mix-blend-mode:multiply" opacity="0.5">
<path d="M32.3994 79.7213L39.599 79.3074V80.2906L32.3994 80.7184V79.7213Z" fill="#97A6B7"/>
</g>
<g style="mix-blend-mode:multiply" opacity="0.5">
<path d="M42.3809 42.6912L49.4167 42.8032V43.7674L42.3809 43.6692V42.6912Z" fill="#97A6B7"/>
</g>
<g style="mix-blend-mode:multiply" opacity="0.5">
<path d="M42.3809 54.8461L49.4167 54.7852V55.7493L42.3809 55.8242V54.8461Z" fill="#97A6B7"/>
</g>
<g style="mix-blend-mode:multiply" opacity="0.5">
<path d="M42.3809 67.0011L49.4167 66.7681V67.7322L42.3809 67.9791V67.0011Z" fill="#97A6B7"/>
</g>
<g style="mix-blend-mode:multiply" opacity="0.5">
<path d="M42.3809 79.156L49.4167 78.75V79.7141L42.3809 80.1341V79.156Z" fill="#97A6B7"/>
</g>
<g style="mix-blend-mode:multiply" opacity="0.5">
<path d="M58.4171 42.9446V43.8906L52.0352 43.8013V42.8423L58.4171 42.9446Z" fill="#97A6B7"/>
</g>
<g style="mix-blend-mode:multiply" opacity="0.5">
<path d="M58.4171 54.7031V55.6491L52.0352 55.7217V54.7627L58.4171 54.7031Z" fill="#97A6B7"/>
</g>
<g style="mix-blend-mode:multiply" opacity="0.5">
<path d="M58.4171 66.4614V67.4074L52.0352 67.6423V66.6828L58.4171 66.4614Z" fill="#97A6B7"/>
</g>
<g style="mix-blend-mode:multiply" opacity="0.5">
<path d="M58.4171 78.2192V79.1657L52.0352 79.5624V78.6034L58.4171 78.2192Z" fill="#97A6B7"/>
</g>
<path d="M46.248 66.9019C49.6102 67.9181 53.9117 71.8746 56.1614 74.0437C61.3494 79.0462 71.0897 95.9246 65.4147 101.952C61.554 106.053 54.7689 104.33 51.7775 100.195C49.5771 97.1539 50.9096 94.3861 51.3728 88.9116C51.8709 83.0203 49.7599 72.7224 46.248 66.9019Z" fill="url(#paint2_linear_225_17418)"/>
<path d="M49.0807 68.5248C51.3987 71.2777 52.2122 71.0479 54.0186 74.8374C56.7402 80.5468 54.7357 87.0734 54.4502 94.106C54.1367 101.82 54.445 116.179 58.3225 123.599C58.3899 123.728 58.4229 123.755 58.4201 123.949C58.3015 131.816 21.1305 126.304 21.1895 123.432C21.4821 109.164 30.7754 77.9186 28.4732 67.5844C29.5183 67.5654 31.5856 66.4743 32.4269 66.2389C36.0369 65.2292 39.2963 65.059 42.71 65.5236C43.9588 65.6934 44.5871 65.9808 45.4986 66.331C46.979 66.8998 47.9338 67.7449 49.0812 68.5244L49.0807 68.5248Z" fill="url(#paint3_linear_225_17418)"/>
<path d="M35.8516 57.6513C35.9004 60.0461 35.1144 63.4975 34.8047 65.6452C34.4949 67.793 38.8849 67.8837 40.3197 66.8875C41.6372 65.9727 40.6452 63.4928 39.3741 62.1911C38.1031 60.8893 37.1496 58.9834 35.8516 57.6509V57.6513Z" fill="url(#paint4_linear_225_17418)"/>
<path d="M42.455 56.9021C44.4786 55.1161 44.8498 48.7793 42.7992 47.539C41.8048 46.9371 40.071 50.0625 38.9427 50.6653C37.4279 51.475 33.3161 52.3759 32.5017 53.9995C31.8874 55.224 33.1217 57.7625 33.617 58.6699C34.1774 59.6968 34.2439 59.3456 34.9169 60.0744C35.8503 61.0851 37.094 62.2678 38.0418 63.4012C38.2469 62.5399 38.193 62.5403 38.5553 61.4269C38.6943 60.999 39.8115 59.1898 40.3547 58.4917C40.6998 58.048 42.2076 57.1207 42.4555 56.9021H42.455Z" fill="url(#paint5_linear_225_17418)"/>
<path d="M35.9668 61.8295C37.5234 63.269 38.2839 65.0205 41.1069 64.4959C43.6342 64.0261 44.0579 57.7154 41.7594 55.8541C40.9925 55.2332 39.8726 55.2397 38.9201 55.5234C38.3573 55.6909 37.7695 56.0657 37.2072 56.281C36.6886 56.4796 36.2505 56.2383 35.7743 56.7643C35.1785 57.4224 35.5826 59.1009 35.924 59.9124C35.6631 59.6836 35.3687 59.3608 35.0269 59.2543C34.7855 59.1795 34.3664 58.779 34.139 59.126C33.7674 59.6925 34.5729 60.7719 35.0459 61.2161C35.2622 61.4193 35.7017 61.6691 35.9663 61.8305L35.9668 61.8295Z" fill="url(#paint6_linear_225_17418)"/>
<path d="M35.5922 56.3601C35.9383 56.56 35.3225 57.1991 35.415 57.8316C35.5946 59.0594 35.9866 61.276 37.7786 61.4909C38.8381 61.6179 39.9482 60.6719 41.0589 60.5584C41.7463 60.4882 42.5053 60.5254 43.1894 60.7095C43.6317 62.0318 43.6499 64.1121 42.5034 64.9311C41.2686 65.8134 40.4594 65.3544 39.1483 64.9762C38.2711 64.7232 37.3028 63.9656 36.7512 63.1052C36.1764 62.2085 35.7546 61.2667 35.1844 60.3231C34.8695 59.8022 34.4881 59.1496 34.1175 58.6032C34.017 58.4548 33.8631 58.2171 33.79 58.0204C34.0877 57.7344 35.0918 56.0708 35.5927 56.3601H35.5922Z" fill="url(#paint7_linear_225_17418)"/>
<path d="M41.7933 61.6145C41.2719 61.9056 40.6603 61.9033 40.0929 61.9112C40.0655 61.9112 39.9431 61.8633 39.9901 61.9665C40.1673 62.3544 40.9347 62.4884 41.3245 62.3758C41.6012 62.2963 42.0691 61.9586 42.0188 61.6558C41.9979 61.5279 41.8454 61.641 41.7933 61.614V61.6145Z" fill="white"/>
<path style="mix-blend-mode:multiply" opacity="0.3" d="M45.8182 114.015C46.8162 112.888 48.4026 111.097 48.4966 108.596C48.7384 102.164 38.7907 99.6599 39.1823 94.4263C39.4865 90.3582 45.5763 90.8168 49.0417 83.5958C49.6365 82.3559 51.8136 77.6441 50.2346 72.3082C49.604 70.1772 48.5682 68.601 47.7943 67.6108C48.2217 67.9122 48.6371 68.2234 49.0807 68.5247C51.3987 71.2776 52.2122 71.0478 54.0186 74.8373C56.7402 80.5467 54.7357 87.0733 54.4502 94.1059C54.1367 101.82 54.445 116.179 58.3225 123.599C58.3899 123.728 58.4355 123.812 58.4201 123.949C57.5532 131.769 21.1305 126.304 21.1895 123.431C21.2249 121.711 21.3918 119.742 21.6528 117.595C22.9438 117.951 38.6744 122.082 45.8182 114.015Z" fill="url(#paint8_linear_225_17418)"/>
<path d="M56.2592 89.3116C58.2925 89.2098 56.888 87.9801 57.5037 88.1591C57.8893 88.2712 67.3245 97.5474 64.3512 102.441C61.5156 107.109 49.7363 103.944 45.5859 102.464C43.2791 101.641 36.4283 99.0938 32.2677 92.4672C31.8938 91.8719 31.6138 91.358 31.4277 91.0008C40.5206 89.8079 44.8757 89.5223 47.1565 89.5093C48.6196 89.5014 50.0958 89.6204 56.2587 89.3116H56.2592Z" fill="url(#paint9_linear_225_17418)"/>
<path d="M52.8229 88.3693C52.5661 90.4176 51.5085 96.7414 46.1684 101.923C45.1066 102.953 37.9048 109.707 27.8073 108.005C19.9171 106.675 12.8906 100.63 11.266 93.0811C8.09505 78.3435 26.9264 65.3415 31.2512 67.5711C34.1543 69.0678 34.9826 79.7294 30.6378 85.117C29.6937 86.2881 27.938 87.9131 28.21 89.9534C28.4714 91.9124 30.4545 93.1495 31.5782 93.829C36.8774 97.0353 48.4864 88.76 51.5578 88.081C51.7792 88.074 51.9462 87.8643 52.8233 88.3693H52.8229Z" fill="url(#paint10_linear_225_17418)"/>
<path style="mix-blend-mode:multiply" opacity="0.3" d="M24.6504 85.0482C26.4801 83.1948 28.5999 82.2186 30.984 81.4856C31.5793 81.3247 32.1746 81.175 32.7639 81.0215C32.2764 82.5363 31.5788 83.9506 30.6379 85.1175C29.6934 86.2886 27.9377 87.9136 28.2097 89.9539C28.4711 91.9129 30.4542 93.15 31.5779 93.8295C36.8771 97.0358 48.4861 88.7605 51.5575 88.0815C51.7789 88.0745 51.9459 87.8648 52.8226 88.3698C52.7584 88.8833 52.6435 89.666 52.4235 90.6316C48.0661 89.2363 43.339 93.6077 39.5713 95.7447C34.7288 98.4836 28.7032 100.255 23.9812 96.6368C20.4423 93.9867 21.7255 88.0899 24.6504 85.0482Z" fill="url(#paint11_linear_225_17418)"/>
<path style="mix-blend-mode:multiply" opacity="0.3" d="M22.3355 70.6738C23.1615 73.4513 23.2615 76.2646 21.6058 78.9477C19.2199 82.7298 16.5541 85.8877 15.5839 90.12C14.7146 93.7128 15.2407 97.2484 16.2736 100.764C16.5736 101.699 17.0373 102.51 17.607 103.239C14.4472 100.572 12.1162 97.0335 11.266 93.0817C9.26894 83.8 15.9987 75.2075 22.3355 70.6738Z" fill="url(#paint12_linear_225_17418)"/>
<path d="M32.2682 92.4667C32.0161 93.069 30.7716 93.6866 30.1674 93.6169C29.1545 93.4997 28.4396 92.8095 27.8048 92.5086C27.2374 92.2397 25.9709 91.8751 25.8951 91.4249C25.7514 90.5719 27.1351 90.3315 27.9466 90.2492C29.0847 90.1338 30.2986 90.4659 31.4287 91.0003C31.7096 91.4938 32.025 91.9779 32.2687 92.4667H32.2682Z" fill="url(#paint13_linear_225_17418)"/>
<path d="M54.6443 89.3874C50.6701 89.9455 49.7516 89.6716 49.6414 89.3209C49.5009 88.874 50.5715 87.9699 51.7152 87.8141C52.8756 87.6564 54.0532 88.2773 54.6438 89.387L54.6443 89.3874Z" fill="url(#paint14_linear_225_17418)"/>
<path d="M39.3185 67.3232C39.1771 67.6423 39.0185 67.9725 38.8399 68.3111C38.7623 68.4585 38.6837 68.6022 38.6046 68.7413C38.2804 68.7859 37.9567 68.8306 37.6326 68.8752C37.4251 68.4032 37.2182 67.9306 37.0107 67.4586C37.3321 67.5009 37.7288 67.527 38.1804 67.5C38.6237 67.4735 39.0078 67.4018 39.318 67.3232H39.3185Z" fill="url(#paint15_linear_225_17418)"/>
<path d="M38.5955 68.6506C38.5955 68.6506 39.7099 79.5592 43.1422 81.2633C43.0594 81.614 43.1836 84.4543 43.1836 84.4543C43.1836 84.4543 39.9931 83.5385 39.8127 83.6041C39.6322 83.6697 35.8855 77.6375 37.6333 68.8753L38.5955 68.6506Z" fill="url(#paint16_linear_225_17418)"/>
<path d="M112.009 26.3218C112.009 35.1863 105.078 42.1598 96.2184 41.8878C86.9985 41.6045 79.2441 33.6418 79.2441 24.1131C79.2441 14.5844 86.9985 7.66672 96.2184 8.62713C105.078 9.54939 112.009 17.4577 112.009 26.3223V26.3218Z" fill="url(#paint17_linear_225_17418)"/>
<path d="M114.404 25.5579C114.404 34.4224 107.472 41.3959 98.6129 41.1239C89.3931 40.8406 81.6387 32.8779 81.6387 23.3492C81.6387 13.8205 89.3931 6.90281 98.6129 7.86321C107.472 8.78594 114.404 16.6938 114.404 25.5583V25.5579Z" fill="url(#paint18_linear_225_17418)"/>
<path d="M113.709 25.5108C113.709 33.9851 107.076 40.64 98.6128 40.3661C89.8208 40.0815 82.4395 32.4819 82.4395 23.403C82.4395 14.324 89.8213 7.71982 98.6128 8.62023C107.076 9.48715 113.709 17.0364 113.709 25.5108Z" fill="url(#paint19_linear_225_17418)"/>
<path d="M113.211 25.4774C113.211 33.6722 106.793 40.0997 98.6129 39.8248C90.1265 39.5397 83.0098 32.2002 83.0098 23.4412C83.0098 14.6823 90.1265 8.30222 98.6129 9.16124C106.793 9.98956 113.211 17.2826 113.211 25.4774Z" fill="url(#paint20_linear_225_17418)"/>
<path style="mix-blend-mode:multiply" opacity="0.3" d="M95.9713 27.4843C96.4642 22.613 100.941 20.5508 100.357 16.0701C99.997 13.3084 97.9037 10.9812 95.569 9.16406C88.4866 9.90681 83.0098 15.7711 83.0098 23.4417C83.0098 32.2007 90.1265 39.5407 98.6129 39.8253C99.4371 39.8528 100.242 39.81 101.024 39.7077C97.6539 36.3539 95.548 31.6696 95.9717 27.4843H95.9713Z" fill="url(#paint21_linear_225_17418)"/>
<path d="M127.259 52.2498C127.259 58.6242 122.275 63.6383 115.904 63.443C109.274 63.2393 103.698 57.5136 103.698 50.6615C103.698 43.8094 109.274 38.8353 115.904 39.526C122.275 40.1892 127.259 45.8758 127.259 52.2502V52.2498Z" fill="url(#paint22_linear_225_17418)"/>
<path d="M128.981 51.6997C128.981 58.0742 123.996 63.0883 117.626 62.893C110.996 62.6893 105.42 56.9636 105.42 50.1115C105.42 43.2594 110.996 38.2853 117.626 38.9759C123.996 39.6391 128.981 45.3257 128.981 51.7002V51.6997Z" fill="url(#paint23_linear_225_17418)"/>
<path d="M128.48 51.666C128.48 57.7595 123.711 62.5453 117.625 62.3481C111.303 62.1434 105.995 56.6791 105.995 50.1503C105.995 43.6214 111.303 38.8728 117.625 39.5202C123.711 40.1439 128.48 45.5724 128.48 51.666Z" fill="url(#paint24_linear_225_17418)"/>
<path d="M128.123 51.6418C128.123 57.5345 123.508 62.1565 117.626 61.9588C111.524 61.7537 106.406 56.4764 106.406 50.1777C106.406 43.8791 111.524 39.2915 117.626 39.9096C123.508 40.5053 128.123 45.7492 128.123 51.6418Z" fill="url(#paint25_linear_225_17418)"/>
<path style="mix-blend-mode:multiply" opacity="0.3" d="M115.727 53.0849C116.081 49.5824 119.3 48.0992 118.88 44.8776C118.621 42.8917 117.116 41.2183 115.437 39.9114C110.345 40.4453 106.406 44.6622 106.406 50.1782C106.406 56.4768 111.524 61.7546 117.626 61.9593C118.219 61.9793 118.797 61.9486 119.36 61.8746C116.936 59.4631 115.422 56.0945 115.727 53.0849Z" fill="url(#paint26_linear_225_17418)"/>
<path d="M100.185 64.1038C100.185 68.9635 96.3845 72.7865 91.5281 72.6372C86.4735 72.4819 82.2227 68.1166 82.2227 62.8927C82.2227 57.6689 86.4735 53.8766 91.5281 54.4031C96.385 54.9086 100.185 59.2441 100.185 64.1038Z" fill="url(#paint27_linear_225_17418)"/>
<path d="M101.497 63.6849C101.497 68.5446 97.697 72.3676 92.8406 72.2183C87.786 72.0629 83.5352 67.6976 83.5352 62.4738C83.5352 57.2499 87.786 53.4576 92.8406 53.9841C97.6975 54.4897 101.497 58.8252 101.497 63.6849Z" fill="url(#paint28_linear_225_17418)"/>
<path d="M101.116 63.6594C101.116 68.3051 97.4797 71.9533 92.84 71.803C88.0203 71.6468 83.9736 67.481 83.9736 62.5036C83.9736 57.5263 88.0203 53.906 92.84 54.3995C97.4797 54.8748 101.116 59.0136 101.116 63.6594Z" fill="url(#paint29_linear_225_17418)"/>
<path d="M100.843 63.6406C100.843 68.1329 97.3244 71.6569 92.84 71.5062C88.1877 71.3499 84.2861 67.3264 84.2861 62.5244C84.2861 57.7224 88.1877 54.225 92.84 54.6961C97.3244 55.15 100.843 59.1484 100.843 63.6406Z" fill="url(#paint30_linear_225_17418)"/>
<path style="mix-blend-mode:multiply" opacity="0.3" d="M91.3917 64.7406C91.6619 62.07 94.1162 60.9399 93.7962 58.4833C93.599 56.9694 92.4512 55.6932 91.1713 54.697C87.2887 55.104 84.2861 58.3191 84.2861 62.524C84.2861 67.326 88.1877 71.3494 92.84 71.5057C93.2916 71.521 93.733 71.4973 94.1618 71.4411C92.314 69.6026 91.1596 67.0344 91.3917 64.7401V64.7406Z" fill="url(#paint31_linear_225_17418)"/>
<path d="M106.069 74.2371C106.069 74.2371 108.822 75.1658 109.115 79.9651C108.664 79.9274 107.615 79.9651 107.615 79.9651C107.615 79.9651 107.81 76.4746 105.852 75.7965C106.009 75.3895 106.07 74.2371 106.07 74.2371H106.069Z" fill="url(#paint32_linear_225_17418)"/>
<path d="M95.9688 73.9487C96.0376 74.8226 96.106 75.6965 96.1748 76.5704C97.5352 76.1778 99.0225 75.7225 100.622 75.6388C102.701 75.53 104.607 75.7723 106.304 76.1932C106.38 76.0829 106.54 75.8174 106.614 75.3853C106.733 74.6891 106.534 74.1114 106.496 74.0082C105.632 73.6873 104.694 73.4185 103.69 73.2352C100.809 72.7101 98.2053 73.231 95.9688 73.9482V73.9487Z" fill="url(#paint33_linear_225_17418)"/>
<path d="M95.8409 74.706C95.8451 74.3897 95.8679 73.9953 95.9693 73.9488C96.0647 73.9051 96.193 74.1911 96.2484 74.3497C96.2711 74.4158 96.3218 74.5762 96.3539 75.086C96.3949 75.7436 96.347 76.0659 96.3037 76.265C96.2777 76.3845 96.2367 76.5659 96.1753 76.5705C96.1265 76.5742 96.0837 76.4598 96.0205 76.238C95.9349 75.9394 95.8321 75.4413 95.8414 74.706H95.8409Z" fill="url(#paint34_linear_225_17418)"/>
<path d="M93.3335 80.2278C93.9037 80.3408 95.2906 80.679 95.2906 80.679C95.2906 80.679 94.3864 77.6089 96.091 76.1923C96.1352 75.9602 96.1798 75.5923 96.1259 75.1495C96.084 74.8072 95.997 74.5338 95.9221 74.3445C95.1985 74.777 93.6228 76.2327 93.333 80.2278H93.3335Z" fill="url(#paint35_linear_225_17418)"/>
<path d="M81.5381 81.0366C81.5381 81.0366 81.6079 79.4246 83.9863 79.4246C84.3607 79.7185 84.3798 81.0366 84.3798 81.0366H81.5381Z" fill="url(#paint36_linear_225_17418)"/>
<path d="M79.4261 112.729L85.935 116.978L89.8789 101.373L83.3807 80.4543L81.5381 81.0371L78.7424 111.081C78.6792 111.761 78.9526 112.42 79.4266 112.729L79.4261 112.729Z" fill="url(#paint37_linear_225_17418)"/>
<path style="mix-blend-mode:multiply" opacity="0.3" d="M89.8789 101.373L83.3808 80.4543L81.5381 81.0371C81.992 82.8835 82.2092 85.8898 82.3115 87.5636C82.7473 94.686 84.1937 96.6682 83.4928 101.637C82.9101 105.768 81.6376 106.329 81.7488 109.108C81.8702 112.136 83.5077 114.671 85.4546 116.664L85.935 116.978L89.8789 101.373Z" fill="url(#paint38_linear_225_17418)"/>
<path d="M83.3809 80.4539H119.12L124.747 113.613L85.9351 116.977L83.3809 80.4539Z" fill="url(#paint39_linear_225_17418)"/>
<g style="mix-blend-mode:multiply" opacity="0.2">
<path d="M119.12 80.4539H107.081C106.859 81.1333 106.52 82.0733 106.025 83.1369C100.641 94.7115 88.3148 96.17 88.5376 98.0722C88.8706 100.915 116.319 96.8798 117.019 100.786C117.358 102.672 111.562 106.96 105.505 108.583C98.2528 110.526 92.9238 108.077 89.3794 112.444C88.1795 113.922 87.6493 115.655 87.3916 116.826L124.748 113.613L119.121 80.4539H119.12Z" fill="url(#paint40_linear_225_17418)"/>
</g>
<path d="M83.9865 79.4247C83.5838 79.4247 83.021 79.3707 82.4089 79.7582C82.2783 79.8409 82.1629 79.9321 82.0615 80.0242L82.3434 79.9163C82.7968 79.773 83.4219 79.9637 83.6554 80.4544C83.9423 81.0571 84.0456 82.4519 84.1084 83.143C84.287 85.1085 85.3836 97.3379 85.3836 97.3379C85.466 98.369 86.192 99.1499 87.05 99.1299L120.295 97.2654C120.547 97.2593 120.797 97.1747 121.005 97.0026C121.44 96.6431 121.636 96.0199 121.535 95.4278L119.851 80.8627C119.709 80.0256 119.098 79.4247 118.39 79.4247H83.987H83.9865Z" fill="url(#paint41_linear_225_17418)"/>
<path d="M84.3419 79.4246C83.9392 79.4246 83.4615 79.3651 82.9295 79.5195C82.7858 79.5609 82.5565 79.6372 82.4551 79.7297C82.4551 79.7297 83.5834 79.439 84.0108 80.4543C84.2717 81.0743 84.401 82.4519 84.4638 83.143C84.6424 85.1084 85.7391 97.3379 85.7391 97.3379C85.8214 98.369 86.5474 99.1498 87.4055 99.1298L121.025 98.3504C121.277 98.3443 121.527 98.2597 121.735 98.0876C122.17 97.7281 122.366 97.1049 122.265 96.5128L120.206 80.8627C120.064 80.0255 119.453 79.4246 118.745 79.4246H84.3419Z" fill="url(#paint42_linear_225_17418)"/>
<path style="mix-blend-mode:multiply" opacity="0.1" d="M122.265 96.5128L120.206 80.8627C120.064 80.0255 119.453 79.4246 118.745 79.4246H84.3419C83.9392 79.4246 83.4615 79.3651 82.9295 79.5195C82.7858 79.5609 82.5565 79.6372 82.4551 79.7297C82.4551 79.7297 83.5834 79.439 84.0108 80.4543C84.0517 80.552 84.0894 80.6701 84.1243 80.7999C87.3915 80.9394 90.6587 80.8389 93.926 81.0664C100.385 81.5045 106.916 81.5045 113.012 84.3071C114.961 85.2038 116.298 88.4245 115.769 89.9128C115.388 90.9857 114.086 90.9006 113.632 92.3089C113.154 93.7897 114.3 94.7957 113.82 95.8352C113.316 96.9244 111.787 96.4054 109.311 97.183C107.947 97.6113 106.9 98.2434 106.247 98.6936L121.025 98.3508C121.278 98.3448 121.527 98.2601 121.735 98.0881C122.17 97.7285 122.366 97.1053 122.266 96.5133L122.265 96.5128Z" fill="url(#paint43_linear_225_17418)"/>
<path d="M106.176 101.264L101.966 102.353L101.522 102.392C101.074 102.431 100.688 102.015 100.669 101.468L100.484 96.2884C100.465 95.7406 100.819 95.2862 101.268 95.2792L101.715 95.2722L105.947 95.8503C106.351 95.8438 106.692 95.6127 106.71 96.1266L106.884 100.984C106.902 101.498 106.58 101.23 106.177 101.265L106.176 101.264Z" fill="url(#paint44_linear_225_17418)"/>
<path d="M106.497 101.982L101.832 102.392C101.384 102.431 100.999 102.016 100.979 101.468L100.795 96.2885C100.775 95.7406 101.13 95.2863 101.579 95.2793L106.255 95.2039C106.659 95.1974 107.002 95.6127 107.021 96.1262L107.194 100.984C107.212 101.497 106.9 101.947 106.497 101.982L106.497 101.982Z" fill="url(#paint45_linear_225_17418)"/>
<path d="M96.8664 27.1819H98.1027V28.4546H96.8664V27.1819ZM98.7209 27.1819H99.9573V28.4546H98.7209V27.1819ZM95.63 18.9092H96.8664V25.9092C96.8664 26.5843 96.6059 27.2317 96.1421 27.7091C95.6784 28.1865 95.0495 28.4546 94.3936 28.4546H93.1573C92.6654 28.4546 92.1937 28.2535 91.8459 27.8955C91.4981 27.5375 91.3027 27.0519 91.3027 26.5456V24.0001H92.5391V26.5456C92.5391 26.7143 92.6042 26.8762 92.7202 26.9955C92.8361 27.1149 92.9933 27.1819 93.1573 27.1819H94.3936C95.0798 27.1819 95.63 26.6156 95.63 25.9092V18.9092ZM97.4846 18.9092H98.7209V24.6365H100.575V21.4546H101.812V24.6365C101.812 25.3428 101.262 25.9092 100.575 25.9092H98.7209C98.0347 25.9092 97.4846 25.3428 97.4846 24.6365V18.9092ZM102.43 22.7274H103.666V27.1819C103.666 27.6882 103.471 28.1738 103.123 28.5318C102.775 28.8899 102.304 29.091 101.812 29.091H100.575V27.8183H101.812C101.976 27.8183 102.133 27.7512 102.249 27.6319C102.365 27.5126 102.43 27.3507 102.43 27.1819V22.7274Z" fill="white"/>
<path d="M116.649 53.0454H117.595V54.0454H116.649V53.0454ZM118.067 53.0454H119.013V54.0454H118.067V53.0454ZM115.704 46.5454H116.649V52.0454C116.649 52.5758 116.45 53.0846 116.095 53.4596C115.741 53.8347 115.26 54.0454 114.758 54.0454H113.813C113.437 54.0454 113.076 53.8874 112.81 53.6061C112.544 53.3248 112.395 52.9432 112.395 52.5454V50.5454H113.34V52.5454C113.34 52.678 113.39 52.8052 113.478 52.899C113.567 52.9927 113.687 53.0454 113.813 53.0454H114.758C115.283 53.0454 115.704 52.6004 115.704 52.0454V46.5454ZM117.122 46.5454H118.067V51.0454H119.485V48.5454H120.431V51.0454C120.431 51.6004 120.01 52.0454 119.485 52.0454H118.067C117.543 52.0454 117.122 51.6004 117.122 51.0454V46.5454ZM120.904 49.5454H121.849V53.0454C121.849 53.4432 121.7 53.8248 121.434 54.1061C121.168 54.3874 120.807 54.5454 120.431 54.5454H119.485V53.5454H120.431C120.556 53.5454 120.677 53.4927 120.765 53.399C120.854 53.3052 120.904 53.178 120.904 53.0454V49.5454Z" fill="white"/>
<path d="M92.7941 64.3638H93.4486V65.091H92.7941V64.3638ZM93.7759 64.3638H94.4305V65.091H93.7759V64.3638ZM92.1395 59.6365H92.7941V63.6365C92.7941 64.0222 92.6562 64.3922 92.4107 64.665C92.1652 64.9378 91.8322 65.091 91.485 65.091H90.8305C90.5701 65.091 90.3203 64.9761 90.1362 64.7715C89.9521 64.5669 89.8486 64.2894 89.8486 64.0001V62.5456H90.5032V64.0001C90.5032 64.0966 90.5377 64.1891 90.599 64.2572C90.6604 64.3254 90.7437 64.3638 90.8305 64.3638H91.485C91.8483 64.3638 92.1395 64.0401 92.1395 63.6365V59.6365ZM93.1214 59.6365H93.7759V62.9092H94.7577V61.091H95.4123V62.9092C95.4123 63.3128 95.121 63.6365 94.7577 63.6365H93.7759C93.4126 63.6365 93.1214 63.3128 93.1214 62.9092V59.6365ZM95.7395 61.8183H96.3941V64.3638C96.3941 64.6531 96.2907 64.9306 96.1065 65.1351C95.9224 65.3397 95.6727 65.4547 95.4123 65.4547H94.7577V64.7274H95.4123C95.4991 64.7274 95.5823 64.6891 95.6437 64.6209C95.7051 64.5527 95.7395 64.4602 95.7395 64.3638V61.8183Z" fill="white"/>
<defs>
<linearGradient id="paint0_linear_225_17418" x1="45.1255" y1="2.58677" x2="74.865" y2="192.708" gradientUnits="userSpaceOnUse">
<stop stop-color="#E38DDD"/>
<stop offset="1" stop-color="#9571F6"/>
</linearGradient>
<linearGradient id="paint1_linear_225_17418" x1="65.9424" y1="59.7655" x2="101.286" y2="59.7655" gradientUnits="userSpaceOnUse">
<stop offset="0.49" stop-color="#EBEFF2"/>
<stop offset="1" stop-color="white"/>
</linearGradient>
<linearGradient id="paint2_linear_225_17418" x1="31.6878" y1="110.048" x2="61.469" y2="78.4567" gradientUnits="userSpaceOnUse">
<stop stop-color="#AA80F9"/>
<stop offset="1" stop-color="#6165D7"/>
</linearGradient>
<linearGradient id="paint3_linear_225_17418" x1="33.1398" y1="136.385" x2="50.097" y2="69.8128" gradientUnits="userSpaceOnUse">
<stop stop-color="#AA80F9"/>
<stop offset="1" stop-color="#6165D7"/>
</linearGradient>
<linearGradient id="paint4_linear_225_17418" x1="34.7893" y1="62.5757" x2="40.9429" y2="62.5757" gradientUnits="userSpaceOnUse">
<stop stop-color="#FCB148"/>
<stop offset="0.05" stop-color="#FDB946"/>
<stop offset="0.14" stop-color="#FEC144"/>
<stop offset="0.32" stop-color="#FFC444"/>
<stop offset="0.48" stop-color="#FDB946"/>
<stop offset="0.78" stop-color="#F99C4C"/>
<stop offset="0.87" stop-color="#F8924F"/>
<stop offset="1" stop-color="#F8924F"/>
</linearGradient>
<linearGradient id="paint5_linear_225_17418" x1="40.5784" y1="47.0943" x2="31.0148" y2="75.0614" gradientUnits="userSpaceOnUse">
<stop stop-color="#444B8C"/>
<stop offset="1" stop-color="#26264F"/>
</linearGradient>
<linearGradient id="paint6_linear_225_17418" x1="38.4866" y1="55.3658" x2="39.3866" y2="78.5191" gradientUnits="userSpaceOnUse">
<stop stop-color="#FCB148"/>
<stop offset="0.05" stop-color="#FDB946"/>
<stop offset="0.14" stop-color="#FEC144"/>
<stop offset="0.32" stop-color="#FFC444"/>
<stop offset="0.48" stop-color="#FDB946"/>
<stop offset="0.78" stop-color="#F99C4C"/>
<stop offset="0.87" stop-color="#F8924F"/>
<stop offset="1" stop-color="#F8924F"/>
</linearGradient>
<linearGradient id="paint7_linear_225_17418" x1="42.9778" y1="47.915" x2="33.4138" y2="75.882" gradientUnits="userSpaceOnUse">
<stop stop-color="#444B8C"/>
<stop offset="1" stop-color="#26264F"/>
</linearGradient>
<linearGradient id="paint8_linear_225_17418" x1="35.3879" y1="137.218" x2="53.8999" y2="71.801" gradientUnits="userSpaceOnUse">
<stop stop-color="#AA80F9"/>
<stop offset="1" stop-color="#6165D7"/>
</linearGradient>
<linearGradient id="paint9_linear_225_17418" x1="35.0296" y1="110.434" x2="62.5727" y2="81.2175" gradientUnits="userSpaceOnUse">
<stop stop-color="#AA80F9"/>
<stop offset="1" stop-color="#6165D7"/>
</linearGradient>
<linearGradient id="paint10_linear_225_17418" x1="36.7078" y1="137.897" x2="29.2777" y2="63.4864" gradientUnits="userSpaceOnUse">
<stop stop-color="#AA80F9"/>
<stop offset="1" stop-color="#6165D7"/>
</linearGradient>
<linearGradient id="paint11_linear_225_17418" x1="38.8287" y1="110.843" x2="36.5011" y2="79.0894" gradientUnits="userSpaceOnUse">
<stop stop-color="#AA80F9"/>
<stop offset="1" stop-color="#6165D7"/>
</linearGradient>
<linearGradient id="paint12_linear_225_17418" x1="20.1645" y1="126.576" x2="15.8781" y2="68.097" gradientUnits="userSpaceOnUse">
<stop stop-color="#AA80F9"/>
<stop offset="1" stop-color="#6165D7"/>
</linearGradient>
<linearGradient id="paint13_linear_225_17418" x1="25.8844" y1="91.9244" x2="32.2682" y2="91.9244" gradientUnits="userSpaceOnUse">
<stop stop-color="#FCB148"/>
<stop offset="0.05" stop-color="#FDB946"/>
<stop offset="0.14" stop-color="#FEC144"/>
<stop offset="0.32" stop-color="#FFC444"/>
<stop offset="0.48" stop-color="#FDB946"/>
<stop offset="0.78" stop-color="#F99C4C"/>
<stop offset="0.87" stop-color="#F8924F"/>
<stop offset="1" stop-color="#F8924F"/>
</linearGradient>
<linearGradient id="paint14_linear_225_17418" x1="49.6288" y1="88.7484" x2="54.6443" y2="88.7484" gradientUnits="userSpaceOnUse">
<stop stop-color="#FCB148"/>
<stop offset="0.05" stop-color="#FDB946"/>
<stop offset="0.14" stop-color="#FEC144"/>
<stop offset="0.32" stop-color="#FFC444"/>
<stop offset="0.48" stop-color="#FDB946"/>
<stop offset="0.78" stop-color="#F99C4C"/>
<stop offset="0.87" stop-color="#F8924F"/>
<stop offset="1" stop-color="#F8924F"/>
</linearGradient>
<linearGradient id="paint15_linear_225_17418" x1="38.4136" y1="62.698" x2="37.9792" y2="70.5484" gradientUnits="userSpaceOnUse">
<stop stop-color="#444B8C"/>
<stop offset="1" stop-color="#26264F"/>
</linearGradient>
<linearGradient id="paint16_linear_225_17418" x1="40.1667" y1="79.1353" x2="39.9189" y2="59.9563" gradientUnits="userSpaceOnUse">
<stop stop-color="#444B8C"/>
<stop offset="1" stop-color="#26264F"/>
</linearGradient>
<linearGradient id="paint17_linear_225_17418" x1="90.0118" y1="27.0152" x2="70.9033" y2="33.1479" gradientUnits="userSpaceOnUse">
<stop stop-color="#FCB148"/>
<stop offset="0.05" stop-color="#FDB946"/>
<stop offset="0.14" stop-color="#FEC144"/>
<stop offset="0.32" stop-color="#FFC444"/>
<stop offset="0.48" stop-color="#FDB946"/>
<stop offset="0.78" stop-color="#F99C4C"/>
<stop offset="0.87" stop-color="#F8924F"/>
<stop offset="1" stop-color="#F8924F"/>
</linearGradient>
<linearGradient id="paint18_linear_225_17418" x1="105.47" y1="7.99483" x2="88.4108" y2="45.6301" gradientUnits="userSpaceOnUse">
<stop stop-color="#FFDB44"/>
<stop offset="1" stop-color="#FEEF06"/>
</linearGradient>
<linearGradient id="paint19_linear_225_17418" x1="102.332" y1="47.733" x2="99.0398" y2="29.7514" gradientUnits="userSpaceOnUse">
<stop stop-color="#FCB148"/>
<stop offset="0.05" stop-color="#FDB946"/>
<stop offset="0.14" stop-color="#FEC144"/>
<stop offset="0.32" stop-color="#FFC444"/>
<stop offset="0.48" stop-color="#FDB946"/>
<stop offset="0.78" stop-color="#F99C4C"/>
<stop offset="0.87" stop-color="#F8924F"/>
<stop offset="1" stop-color="#F8924F"/>
</linearGradient>
<linearGradient id="paint20_linear_225_17418" x1="95.3532" y1="18.6281" x2="108.918" y2="47.4239" gradientUnits="userSpaceOnUse">
<stop stop-color="#FCB148"/>
<stop offset="0.05" stop-color="#FDB946"/>
<stop offset="0.14" stop-color="#FEC144"/>
<stop offset="0.32" stop-color="#FFC444"/>
<stop offset="0.48" stop-color="#FDB946"/>
<stop offset="0.78" stop-color="#F99C4C"/>
<stop offset="0.87" stop-color="#F8924F"/>
<stop offset="1" stop-color="#F8924F"/>
</linearGradient>
<linearGradient id="paint21_linear_225_17418" x1="91.3622" y1="20.4917" x2="104.9" y2="49.2294" gradientUnits="userSpaceOnUse">
<stop stop-color="#FCB148"/>
<stop offset="0.05" stop-color="#FDB946"/>
<stop offset="0.14" stop-color="#FEC144"/>
<stop offset="0.32" stop-color="#FFC444"/>
<stop offset="0.48" stop-color="#FDB946"/>
<stop offset="0.78" stop-color="#F99C4C"/>
<stop offset="0.87" stop-color="#F8924F"/>
<stop offset="1" stop-color="#F8924F"/>
</linearGradient>
<linearGradient id="paint22_linear_225_17418" x1="111.441" y1="52.7484" x2="97.7005" y2="57.1578" gradientUnits="userSpaceOnUse">
<stop stop-color="#FCB148"/>
<stop offset="0.05" stop-color="#FDB946"/>
<stop offset="0.14" stop-color="#FEC144"/>
<stop offset="0.32" stop-color="#FFC444"/>
<stop offset="0.48" stop-color="#FDB946"/>
<stop offset="0.78" stop-color="#F99C4C"/>
<stop offset="0.87" stop-color="#F8924F"/>
<stop offset="1" stop-color="#F8924F"/>
</linearGradient>
<linearGradient id="paint23_linear_225_17418" x1="122.556" y1="39.0708" x2="110.29" y2="66.1332" gradientUnits="userSpaceOnUse">
<stop stop-color="#FFDB44"/>
<stop offset="1" stop-color="#FEEF06"/>
</linearGradient>
<linearGradient id="paint24_linear_225_17418" x1="120.299" y1="67.6459" x2="117.932" y2="54.7155" gradientUnits="userSpaceOnUse">
<stop stop-color="#FCB148"/>
<stop offset="0.05" stop-color="#FDB946"/>
<stop offset="0.14" stop-color="#FEC144"/>
<stop offset="0.32" stop-color="#FFC444"/>
<stop offset="0.48" stop-color="#FDB946"/>
<stop offset="0.78" stop-color="#F99C4C"/>
<stop offset="0.87" stop-color="#F8924F"/>
<stop offset="1" stop-color="#F8924F"/>
</linearGradient>
<linearGradient id="paint25_linear_225_17418" x1="115.282" y1="46.717" x2="125.036" y2="67.4231" gradientUnits="userSpaceOnUse">
<stop stop-color="#FCB148"/>
<stop offset="0.05" stop-color="#FDB946"/>
<stop offset="0.14" stop-color="#FEC144"/>
<stop offset="0.32" stop-color="#FFC444"/>
<stop offset="0.48" stop-color="#FDB946"/>
<stop offset="0.78" stop-color="#F99C4C"/>
<stop offset="0.87" stop-color="#F8924F"/>
<stop offset="1" stop-color="#F8924F"/>
</linearGradient>
<linearGradient id="paint26_linear_225_17418" x1="112.412" y1="48.0569" x2="122.147" y2="68.7216" gradientUnits="userSpaceOnUse">
<stop stop-color="#FCB148"/>
<stop offset="0.05" stop-color="#FDB946"/>
<stop offset="0.14" stop-color="#FEC144"/>
<stop offset="0.32" stop-color="#FFC444"/>
<stop offset="0.48" stop-color="#FDB946"/>
<stop offset="0.78" stop-color="#F99C4C"/>
<stop offset="0.87" stop-color="#F8924F"/>
<stop offset="1" stop-color="#F8924F"/>
</linearGradient>
<linearGradient id="paint27_linear_225_17418" x1="88.1251" y1="64.4838" x2="77.6495" y2="67.8459" gradientUnits="userSpaceOnUse">
<stop stop-color="#FCB148"/>
<stop offset="0.05" stop-color="#FDB946"/>
<stop offset="0.14" stop-color="#FEC144"/>
<stop offset="0.32" stop-color="#FFC444"/>
<stop offset="0.48" stop-color="#FDB946"/>
<stop offset="0.78" stop-color="#F99C4C"/>
<stop offset="0.87" stop-color="#F8924F"/>
<stop offset="1" stop-color="#F8924F"/>
</linearGradient>
<linearGradient id="paint28_linear_225_17418" x1="96.5994" y1="54.0567" x2="87.2479" y2="74.6888" gradientUnits="userSpaceOnUse">
<stop stop-color="#FFDB44"/>
<stop offset="1" stop-color="#FEEF06"/>
</linearGradient>
<linearGradient id="paint29_linear_225_17418" x1="94.879" y1="75.8418" x2="93.0744" y2="65.9839" gradientUnits="userSpaceOnUse">
<stop stop-color="#FCB148"/>
<stop offset="0.05" stop-color="#FDB946"/>
<stop offset="0.14" stop-color="#FEC144"/>
<stop offset="0.32" stop-color="#FFC444"/>
<stop offset="0.48" stop-color="#FDB946"/>
<stop offset="0.78" stop-color="#F99C4C"/>
<stop offset="0.87" stop-color="#F8924F"/>
<stop offset="1" stop-color="#F8924F"/>
</linearGradient>
<linearGradient id="paint30_linear_225_17418" x1="91.0527" y1="59.886" x2="98.4894" y2="75.6719" gradientUnits="userSpaceOnUse">
<stop stop-color="#FCB148"/>
<stop offset="0.05" stop-color="#FDB946"/>
<stop offset="0.14" stop-color="#FEC144"/>
<stop offset="0.32" stop-color="#FFC444"/>
<stop offset="0.48" stop-color="#FDB946"/>
<stop offset="0.78" stop-color="#F99C4C"/>
<stop offset="0.87" stop-color="#F8924F"/>
<stop offset="1" stop-color="#F8924F"/>
</linearGradient>
<linearGradient id="paint31_linear_225_17418" x1="88.8649" y1="60.9073" x2="96.2868" y2="76.6617" gradientUnits="userSpaceOnUse">
<stop stop-color="#FCB148"/>
<stop offset="0.05" stop-color="#FDB946"/>
<stop offset="0.14" stop-color="#FEC144"/>
<stop offset="0.32" stop-color="#FFC444"/>
<stop offset="0.48" stop-color="#FDB946"/>
<stop offset="0.78" stop-color="#F99C4C"/>
<stop offset="0.87" stop-color="#F8924F"/>
<stop offset="1" stop-color="#F8924F"/>
</linearGradient>
<linearGradient id="paint32_linear_225_17418" x1="106.632" y1="90.5411" x2="107.827" y2="72.7553" gradientUnits="userSpaceOnUse">
<stop stop-color="#444B8C"/>
<stop offset="1" stop-color="#26264F"/>
</linearGradient>
<linearGradient id="paint33_linear_225_17418" x1="100.651" y1="84.2945" x2="101.485" y2="71.8874" gradientUnits="userSpaceOnUse">
<stop offset="0.1" stop-color="#311944"/>
<stop offset="0.27" stop-color="#361B47"/>
<stop offset="0.48" stop-color="#462050"/>
<stop offset="0.72" stop-color="#602A5F"/>
<stop offset="0.97" stop-color="#843773"/>
<stop offset="1" stop-color="#893976"/>
</linearGradient>
<linearGradient id="paint34_linear_225_17418" x1="96.3628" y1="75.4069" x2="105.578" y2="80.3475" gradientUnits="userSpaceOnUse">
<stop offset="0.1" stop-color="#311944"/>
<stop offset="0.27" stop-color="#361B47"/>
<stop offset="0.48" stop-color="#462050"/>
<stop offset="0.72" stop-color="#602A5F"/>
<stop offset="0.97" stop-color="#843773"/>
<stop offset="1" stop-color="#893976"/>
</linearGradient>
<linearGradient id="paint35_linear_225_17418" x1="93.7553" y1="92.6419" x2="95.1096" y2="72.4758" gradientUnits="userSpaceOnUse">
<stop stop-color="#444B8C"/>
<stop offset="1" stop-color="#26264F"/>
</linearGradient>
<linearGradient id="paint36_linear_225_17418" x1="84.0528" y1="90.9355" x2="78.8289" y2="43.1863" gradientUnits="userSpaceOnUse">
<stop offset="0.1" stop-color="#311944"/>
<stop offset="0.69" stop-color="#6D2E66"/>
<stop offset="1" stop-color="#893976"/>
</linearGradient>
<linearGradient id="paint37_linear_225_17418" x1="106.677" y1="110.977" x2="72.1601" y2="91.7569" gradientUnits="userSpaceOnUse">
<stop stop-color="#311944"/>
<stop offset="1" stop-color="#893976"/>
</linearGradient>
<linearGradient id="paint38_linear_225_17418" x1="75.512" y1="84.0723" x2="86.0071" y2="101.672" gradientUnits="userSpaceOnUse">
<stop stop-color="#311944"/>
<stop offset="1" stop-color="#893976"/>
</linearGradient>
<linearGradient id="paint39_linear_225_17418" x1="101.442" y1="62.9652" x2="105.29" y2="114.607" gradientUnits="userSpaceOnUse">
<stop offset="0.1" stop-color="#311944"/>
<stop offset="0.69" stop-color="#6D2E66"/>
<stop offset="1" stop-color="#893976"/>
</linearGradient>
<linearGradient id="paint40_linear_225_17418" x1="94.9892" y1="92.2708" x2="122.926" y2="113.796" gradientUnits="userSpaceOnUse">
<stop stop-color="#311944"/>
<stop offset="1" stop-color="#893976"/>
</linearGradient>
<linearGradient id="paint41_linear_225_17418" x1="88.0565" y1="89.1701" x2="99.4999" y2="88.7255" gradientUnits="userSpaceOnUse">
<stop offset="0.1" stop-color="#311944"/>
<stop offset="0.69" stop-color="#6D2E66"/>
<stop offset="1" stop-color="#893976"/>
</linearGradient>
<linearGradient id="paint42_linear_225_17418" x1="106.023" y1="129.259" x2="101.881" y2="82.7007" gradientUnits="userSpaceOnUse">
<stop offset="0.1" stop-color="#311944"/>
<stop offset="0.27" stop-color="#361B47"/>
<stop offset="0.48" stop-color="#462050"/>
<stop offset="0.72" stop-color="#602A5F"/>
<stop offset="0.97" stop-color="#843773"/>
<stop offset="1" stop-color="#893976"/>
</linearGradient>
<linearGradient id="paint43_linear_225_17418" x1="108.035" y1="139.985" x2="101.019" y2="75.8472" gradientUnits="userSpaceOnUse">
<stop stop-color="#311944"/>
<stop offset="1" stop-color="#893976"/>
</linearGradient>
<linearGradient id="paint44_linear_225_17418" x1="109.388" y1="101.953" x2="88.6073" y2="91.0906" gradientUnits="userSpaceOnUse">
<stop stop-color="#444B8C"/>
<stop offset="1" stop-color="#26264F"/>
</linearGradient>
<linearGradient id="paint45_linear_225_17418" x1="158.281" y1="79.1645" x2="88.3537" y2="104.247" gradientUnits="userSpaceOnUse">
<stop stop-color="#444B8C"/>
<stop offset="1" stop-color="#26264F"/>
</linearGradient>
</defs>
</svg>
