<svg width="15" height="15" viewBox="0 0 15 15" fill="none" xmlns="http://www.w3.org/2000/svg">
<g clip-path="url(#clip0_225_18691)">
<path d="M5 8.00003V6.20703L6.5 4.70703L8 6.20703V8.00003H5Z" fill="#033329"/>
<path fill-rule="evenodd" clip-rule="evenodd" d="M0 6.49991C0.00013332 5.45217 0.253541 4.41999 0.738633 3.49131C1.22372 2.56263 1.92612 1.76498 2.78598 1.16631C3.64584 0.567645 4.63768 0.185711 5.67698 0.0530484C6.71629 -0.079614 7.77227 0.0409275 8.75494 0.404403C9.73761 0.767878 10.6179 1.36351 11.3207 2.14056C12.0235 2.91761 12.5281 3.85304 12.7914 4.86715C13.0547 5.88126 13.069 6.944 12.833 7.96481C12.597 8.98563 12.1177 9.93427 11.436 10.7299L14.854 14.1459L14.147 14.8529L10.729 11.4359C9.78508 12.2446 8.62908 12.7657 7.39803 12.9374C6.16699 13.1092 4.91251 12.9243 3.78331 12.4048C2.65412 11.8853 1.69755 11.0529 1.02699 10.0064C0.356443 8.95977 2.83384e-05 7.74287 0 6.49991ZM8.854 5.64591L6.854 3.64591C6.80755 3.59934 6.75238 3.5624 6.69163 3.53719C6.63089 3.51199 6.56577 3.49901 6.5 3.49901C6.43423 3.49901 6.36911 3.51199 6.30837 3.53719C6.24762 3.5624 6.19245 3.59934 6.146 3.64591L4.146 5.64591C4.0996 5.69243 4.06282 5.74763 4.03777 5.80838C4.01272 5.86912 3.99988 5.9342 4 5.99991V8.49991C4 8.63251 4.05268 8.75969 4.14645 8.85346C4.24021 8.94723 4.36739 8.99991 4.5 8.99991H8.5C8.63261 8.99991 8.75979 8.94723 8.85355 8.85346C8.94732 8.75969 9 8.63251 9 8.49991V5.99991C9.00012 5.9342 8.98728 5.86912 8.96223 5.80838C8.93718 5.74763 8.9004 5.69243 8.854 5.64591Z" fill="#033329"/>
</g>
<defs>
<clipPath id="clip0_225_18691">
<rect width="15" height="15" fill="white"/>
</clipPath>
</defs>
</svg>
