<svg width="82" height="83" viewBox="0 0 82 83" fill="none" xmlns="http://www.w3.org/2000/svg">
<path d="M76.2527 56.4328C68.5334 74.609 47.9708 84.7912 30.1383 82.0445C27.2367 81.5975 19.2816 80.2661 12.2389 73.9853C-1.31945 61.8943 -4.21885 37.9521 6.7183 21.0797C14.6786 8.79933 28.9482 1.83797 42.5066 2.18657C45.427 2.26136 56.62 2.72367 66.4567 10.8349C67.9014 12.0263 71.0881 14.8571 73.9599 19.3485C80.7039 29.8947 81.2835 44.5876 76.2527 56.4332V56.4328Z" fill="#EFEFF4"/>
<path d="M37.0192 16.9373C36.8823 17.1393 36.6067 17.1923 36.4047 17.0549C36.0119 16.7886 35.6016 16.5353 35.1852 16.3022C34.9744 16.1841 34.8979 15.9195 35.0112 15.7078C35.0125 15.7052 35.0138 15.703 35.0151 15.7004C35.1345 15.4874 35.4039 15.4112 35.6174 15.5307C36.0556 15.776 36.4873 16.0428 36.9011 16.3232C37.09 16.4513 37.1487 16.7002 37.0428 16.8975C37.0354 16.911 37.0275 16.9246 37.0187 16.9373H37.0192ZM33.0814 15.3067C32.6375 15.1326 32.1818 14.9756 31.7269 14.8405C31.4929 14.7709 31.3595 14.5247 31.429 14.2907C31.4994 14.0558 31.7448 13.9233 31.9792 13.9928C32.4577 14.135 32.9375 14.2999 33.4047 14.4831C33.6321 14.5723 33.7441 14.8291 33.6548 15.0565C33.6483 15.0732 33.6409 15.0889 33.633 15.1042C33.5284 15.2993 33.2927 15.3894 33.0819 15.3067H33.0814ZM29.456 14.3349C28.9858 14.264 28.5064 14.2128 28.0319 14.1831C27.7883 14.1678 27.6028 13.9574 27.6186 13.7138C27.6343 13.4702 27.8442 13.2851 28.0879 13.3004C28.5878 13.3319 29.0925 13.3862 29.5876 13.4605C29.8291 13.4968 29.9957 13.7221 29.9594 13.964C29.9515 14.0156 29.9354 14.0637 29.9122 14.107C29.8265 14.2671 29.6463 14.3642 29.4564 14.3357L29.456 14.3349ZM25.7041 14.1984C25.2291 14.2347 24.7506 14.292 24.2813 14.3685C24.0403 14.4079 23.8129 14.2443 23.7735 14.0033C23.7346 13.7623 23.8982 13.5349 24.1388 13.4955C24.633 13.415 25.1369 13.3547 25.6368 13.3162C25.8804 13.2978 26.093 13.4802 26.1113 13.7234C26.1179 13.8104 26.0991 13.8935 26.0606 13.9653C25.9915 14.0939 25.8607 14.1861 25.7041 14.198V14.1984ZM22.0153 14.9008C21.5613 15.0412 21.1073 15.2031 20.6655 15.3819C20.4389 15.4734 20.1813 15.364 20.0895 15.1379C19.9976 14.9113 20.107 14.6533 20.3335 14.5619C20.7985 14.3738 21.2765 14.2032 21.7537 14.0558C21.9868 13.9836 22.2348 14.1144 22.307 14.3475C22.3433 14.4652 22.3284 14.5863 22.2746 14.6869C22.2217 14.7858 22.1312 14.865 22.0153 14.9008ZM18.574 16.4019C18.1619 16.6394 17.7547 16.8979 17.3642 17.1695C17.1638 17.309 16.8878 17.2596 16.7483 17.0593C16.6088 16.8585 16.6582 16.583 16.8585 16.4435C17.2697 16.1574 17.6983 15.8854 18.1318 15.6356C18.3435 15.5136 18.6138 15.5862 18.7358 15.7979C18.8149 15.9352 18.8119 16.0975 18.7423 16.2278C18.7047 16.2983 18.6479 16.3591 18.5735 16.4019H18.574ZM9.74585 30.2533C9.50223 30.2376 9.31722 30.0272 9.33297 29.7831C9.36533 29.2837 9.42044 28.7789 9.49611 28.2829C9.53285 28.0415 9.75854 27.8753 9.99997 27.9125C10.2414 27.9492 10.4072 28.1749 10.3704 28.4163C10.2987 28.8874 10.2467 29.3663 10.216 29.8409C10.2117 29.9061 10.1937 29.9669 10.1649 30.0206C10.0857 30.1689 9.92474 30.2651 9.74585 30.2533ZM15.553 18.6273C15.2044 18.9505 14.8654 19.2926 14.5457 19.6447C14.3812 19.8253 14.1013 19.8389 13.9207 19.6744C13.7396 19.5099 13.7273 19.2309 13.8909 19.0494C14.2277 18.6789 14.5846 18.3185 14.952 17.9782C15.1313 17.812 15.4113 17.823 15.577 18.0023C15.7087 18.1444 15.7292 18.35 15.6426 18.5118C15.6199 18.5538 15.5901 18.5932 15.553 18.6273ZM10.3306 26.4429C10.0966 26.3729 9.96367 26.1262 10.0337 25.8922C10.1771 25.4128 10.3433 24.9335 10.527 24.4668C10.6158 24.2389 10.8734 24.1283 11.1009 24.2175C11.3279 24.3071 11.4398 24.5639 11.3502 24.7913C11.1752 25.2344 11.0173 25.6901 10.8813 26.1459C10.8725 26.1748 10.8612 26.2023 10.8472 26.2281C10.7501 26.4096 10.5353 26.5041 10.3306 26.4429ZM13.1054 21.4716C12.8377 21.8644 12.5836 22.2738 12.3505 22.6888C12.2306 22.9018 11.9612 22.9771 11.7482 22.8577C11.5382 22.7396 11.4617 22.475 11.575 22.2637C11.5763 22.2611 11.578 22.258 11.5798 22.2554C11.8256 21.8184 12.0928 21.3872 12.3745 20.9739C12.5123 20.7718 12.7874 20.7197 12.989 20.8571C13.1775 20.9857 13.2357 21.2341 13.1303 21.4309C13.1229 21.4449 13.1146 21.4585 13.1058 21.4716H13.1054Z" fill="#C6C9D3"/>
<path d="M10.2444 33.1255C10.2855 33.0485 10.3043 32.9588 10.2938 32.8657C10.2671 32.6391 10.2453 32.4082 10.2278 32.1794C10.2094 31.9358 9.99683 31.7534 9.75321 31.7718C9.50959 31.7902 9.32676 32.0027 9.34557 32.2463C9.3635 32.4869 9.38712 32.7296 9.41468 32.968C9.44311 33.2108 9.66267 33.3844 9.90542 33.356C10.055 33.3385 10.1783 33.2484 10.2444 33.125V33.1255Z" fill="#C6C9D3"/>
<path d="M16.9143 44.8464C17.0149 44.6583 16.9672 44.4195 16.7918 44.2861C16.6103 44.1479 16.4288 44.004 16.2521 43.8574C16.064 43.7017 15.785 43.728 15.6293 43.916C15.4727 44.105 15.4998 44.3832 15.6879 44.5389C15.8738 44.6928 16.0653 44.8446 16.2565 44.9902C16.4511 45.1381 16.7284 45.1005 16.8763 44.9058C16.8907 44.8866 16.9034 44.8669 16.9143 44.8464Z" fill="#C6C9D3"/>
<path d="M42.1055 40.0466C41.98 40.2561 41.708 40.3239 41.4985 40.1984C41.289 40.0729 41.2216 39.8013 41.3467 39.5913C41.5859 39.1924 41.8121 38.7774 42.0211 38.3527C42.1279 38.1344 42.3942 38.0434 42.6133 38.1515C42.8325 38.2595 42.9226 38.5246 42.8145 38.7437C42.724 38.9278 42.6304 39.1093 42.5346 39.2891C42.3977 39.545 42.2529 39.8 42.1051 40.0466H42.1055ZM43.1719 36.7938C42.9401 36.7164 42.815 36.4658 42.8924 36.2344C43.0407 35.7896 43.1723 35.3334 43.2825 34.8794C43.3394 34.6419 43.5795 34.4963 43.8166 34.554C44.0536 34.6117 44.1997 34.851 44.142 35.088C44.0256 35.5665 43.8874 36.0464 43.7313 36.5143C43.723 36.5388 43.7134 36.5616 43.7016 36.5835C43.6018 36.7698 43.3792 36.8629 43.1719 36.7938ZM40.7265 42.0236C40.4181 42.4072 40.0888 42.7825 39.7481 43.1394C39.5792 43.3161 39.2993 43.3226 39.1226 43.1538C38.9459 42.985 38.9398 42.7055 39.1082 42.5283C39.4318 42.1894 39.7446 41.8329 40.0372 41.4686C40.1903 41.2783 40.4689 41.2481 40.6591 41.4012C40.8275 41.5368 40.8704 41.7704 40.772 41.9541C40.7593 41.9781 40.744 42.0013 40.7265 42.0232V42.0236ZM44.0646 33.1067C43.8214 33.0822 43.6443 32.8653 43.6692 32.6221C43.7164 32.1563 43.744 31.6826 43.7519 31.215C43.7558 30.9705 43.957 30.7759 44.2015 30.7798C44.4455 30.7838 44.6406 30.985 44.6367 31.229C44.6288 31.722 44.5995 32.2206 44.5501 32.7109C44.5439 32.7704 44.5269 32.8255 44.5002 32.8749C44.418 33.0284 44.2492 33.1251 44.0655 33.1063L44.0646 33.1067ZM37.9688 44.7634C37.5839 45.0695 37.1802 45.363 36.7691 45.6364C36.5657 45.7715 36.2914 45.7164 36.1559 45.5135C36.0203 45.3101 36.0758 45.0354 36.2792 44.9003C36.6693 44.6405 37.0529 44.3614 37.4186 44.071C37.6097 43.9192 37.8883 43.9507 38.0401 44.1423C38.1534 44.2849 38.1643 44.4756 38.0838 44.6265C38.0563 44.6781 38.0178 44.7253 37.9688 44.7638V44.7634ZM34.6775 46.8317C34.234 47.0465 33.7761 47.2455 33.3164 47.4222C33.0885 47.5101 32.8322 47.3964 32.7447 47.1685C32.6568 46.9402 32.7705 46.6843 32.9984 46.5969C33.4349 46.4289 33.8701 46.24 34.2917 46.0357C34.5117 45.929 34.7764 46.0213 34.8826 46.2408C34.9469 46.3734 34.9386 46.5221 34.8743 46.6428C34.8319 46.7224 34.7645 46.7897 34.6775 46.8317ZM31.0131 48.1338C30.5329 48.2471 30.0426 48.3411 29.5558 48.4137C29.3139 48.4496 29.0891 48.283 29.0532 48.0415C29.0169 47.7997 29.184 47.5748 29.4254 47.539C29.8882 47.4699 30.354 47.3806 30.8102 47.273C31.0481 47.2171 31.2861 47.3645 31.342 47.602C31.3678 47.7113 31.3508 47.8202 31.3018 47.9121C31.2441 48.0201 31.1417 48.1036 31.0131 48.1338ZM27.1524 48.6057C26.659 48.6114 26.1599 48.5957 25.6683 48.5594C25.4247 48.5414 25.2419 48.3293 25.2598 48.0857C25.2777 47.8425 25.4899 47.6593 25.7335 47.6772C26.2002 47.7117 26.6739 47.7262 27.1427 47.7209C27.3868 47.7183 27.5871 47.9138 27.5897 48.1583C27.5906 48.2353 27.5718 48.3083 27.5377 48.3717C27.4642 48.5095 27.3194 48.6036 27.1524 48.6057ZM23.2802 48.2174C22.7991 48.1141 22.3158 47.989 21.8439 47.8456C21.6103 47.7743 21.4782 47.5272 21.5495 47.2936C21.6204 47.0605 21.8675 46.928 22.1015 46.9992C22.5498 47.1357 23.0086 47.2547 23.4657 47.3526C23.7045 47.4038 23.8567 47.6391 23.8055 47.8779C23.7968 47.9195 23.7823 47.9584 23.7631 47.9943C23.6726 48.1636 23.4775 48.2602 23.2802 48.2178V48.2174ZM19.5918 46.9896C19.2624 46.8383 18.9331 46.6747 18.6142 46.5041C18.4988 46.442 18.3842 46.3795 18.2705 46.3152C18.0579 46.1953 17.977 45.9259 18.1025 45.7129C18.2224 45.4999 18.4922 45.4247 18.7052 45.5445C18.8133 45.6053 18.9222 45.6652 19.0319 45.7243C19.3355 45.8865 19.6478 46.0418 19.9614 46.1857C20.1836 46.2876 20.2807 46.5505 20.1788 46.7722C20.1748 46.7806 20.1709 46.7889 20.1665 46.7967C20.0572 47.0014 19.8057 47.0876 19.5922 46.9896H19.5918Z" fill="#C6C9D3"/>
<path d="M44.4595 29.0724C44.5011 28.995 44.5199 28.9045 44.5085 28.8104C44.4796 28.5725 44.4451 28.3311 44.4057 28.0923C44.3663 27.8513 44.1389 27.6877 43.8979 27.727C43.6569 27.7668 43.4933 27.9938 43.5327 28.2348C43.5699 28.4618 43.6027 28.691 43.6302 28.9167C43.6595 29.159 43.88 29.3318 44.1227 29.3025C44.2714 29.2845 44.3939 29.1945 44.4595 29.072V29.0724Z" fill="#C6C9D3"/>
<path d="M38.4935 24.3913C38.4594 24.31 38.3776 24.2588 38.2897 24.2645L35.7787 24.4224C35.0911 23.4693 34.247 22.6191 33.2633 21.9158L33.4103 19.4056C33.4155 19.3177 33.3639 19.2359 33.2826 19.2022L30.4916 18.0532C30.4103 18.0196 30.3162 18.0414 30.2581 18.1075L28.5951 19.9935C27.4015 19.8001 26.2031 19.8098 25.044 20.0022L23.3719 18.1219C23.3133 18.0559 23.2193 18.0344 23.1379 18.0686L20.3523 19.2294C20.2709 19.2635 20.2197 19.3453 20.2254 19.4332L20.3833 21.9442C19.4303 22.6317 18.58 23.4759 17.8767 24.4596L15.3666 24.3126C15.2786 24.3074 15.1968 24.3585 15.1632 24.4403L14.0142 27.2312C13.9805 27.313 14.0024 27.4066 14.0688 27.4648L15.9548 29.1277C15.7615 30.3213 15.7711 31.5198 15.9636 32.6788L14.0833 34.3509C14.0172 34.4095 13.9958 34.5036 14.0299 34.5849L15.1907 37.3706C15.2248 37.452 15.3066 37.5027 15.3945 37.4975L17.906 37.3396C18.5935 38.2926 19.4377 39.1429 20.4214 39.8462L20.2744 42.3563C20.2692 42.4442 20.3203 42.526 20.4021 42.5597L23.193 43.7087C23.2744 43.7424 23.3684 43.7205 23.4266 43.6545L25.0895 41.7685C26.2831 41.9618 27.4816 41.9522 28.6406 41.7597L30.3127 43.64C30.3713 43.7061 30.4654 43.7275 30.5467 43.6934L33.3324 42.5326C33.4138 42.4985 33.4649 42.4167 33.4593 42.3288L33.3014 39.8173C34.2544 39.1298 35.1047 38.2856 35.808 37.302L38.3181 37.4489C38.406 37.4542 38.4878 37.403 38.5215 37.3212L39.6705 34.5303C39.7042 34.4489 39.6823 34.3549 39.6158 34.2967L37.7298 32.6338C37.9232 31.4402 37.9135 30.2417 37.7211 29.0827L39.6014 27.4106C39.6674 27.352 39.6889 27.2579 39.6548 27.1766L38.4939 24.3909L38.4935 24.3913Z" fill="white"/>
<path d="M29.2791 32.6883C28.2831 34.0324 26.3792 34.3154 25.0351 33.319C24.3839 32.8366 23.9601 32.1294 23.8407 31.3276C23.7217 30.5264 23.9216 29.7264 24.404 29.0751C25.3999 27.7311 27.3038 27.4481 28.6479 28.4444C29.8704 29.3507 30.215 31.0079 29.517 32.3117C29.4479 32.4412 29.3683 32.5667 29.2786 32.6879L29.2791 32.6883ZM24.5409 31.224C24.6323 31.8385 24.9573 32.3809 25.4568 32.7509C26.4873 33.5145 27.9468 33.2976 28.7105 32.2671C29.4746 31.2367 29.2572 29.7771 28.2267 29.0135C27.1962 28.2498 25.7367 28.4667 24.973 29.4972C24.9039 29.5908 24.8423 29.6879 24.7885 29.7885C24.5545 30.2259 24.467 30.7245 24.5409 31.224Z" fill="#C6C9D3"/>
<path d="M33.3517 34.4345C33.4715 34.2106 33.5809 33.9792 33.6789 33.7413C33.7099 33.6665 33.7392 33.5908 33.7677 33.5152C33.9076 33.1408 34.0178 32.7563 34.0966 32.3666C34.0974 32.3613 34.0988 32.3561 34.0996 32.3509C34.1027 32.336 34.1057 32.3207 34.1084 32.3054C34.1141 32.2761 34.1193 32.2468 34.125 32.217C34.139 32.1396 34.1005 32.0648 34.0345 32.0298C34.0183 32.0211 34.0008 32.0149 33.982 32.0114C33.8857 31.9939 33.7939 32.0582 33.7764 32.154C33.6872 32.6487 33.5442 33.1373 33.3513 33.6061C32.393 35.9347 30.332 37.4826 28.02 37.896C26.7341 38.126 25.3704 38.0049 24.0753 37.4717C23.8483 37.3781 23.6274 37.274 23.414 37.1594C21.9767 36.3896 20.857 35.1597 20.2215 33.6341C19.4915 31.882 19.4872 29.9505 20.2097 28.1957C21.7025 24.5712 25.8624 22.8387 29.4853 24.3302C29.7088 24.422 29.9266 24.5252 30.1383 24.6385C31.055 25.1297 31.8541 25.8155 32.4761 26.6505C32.4922 26.6719 32.5119 26.689 32.5342 26.7008C32.5928 26.7323 32.6668 26.7292 32.7236 26.6868C32.8019 26.6282 32.8185 26.5175 32.7599 26.4392C32.1069 25.5627 31.268 24.8423 30.3058 24.3267C30.0836 24.2077 29.8548 24.0997 29.6204 24.003C25.8165 22.4372 21.4479 24.2589 19.8826 28.061C19.1241 29.9037 19.1285 31.931 19.8948 33.7701C20.5618 35.3714 21.7375 36.663 23.246 37.4708C23.4704 37.5907 23.7018 37.7005 23.9401 37.7984C25.7828 38.5569 27.8105 38.5525 29.6497 37.7862C31.2514 37.1187 32.543 35.9431 33.3508 34.4337L33.3517 34.4345Z" fill="#C6C9D3"/>
<path d="M54.4441 9.0909C54.5001 8.98681 54.4835 8.85428 54.3947 8.76724C54.2293 8.60454 54.0566 8.44489 53.8816 8.29225C53.7679 8.19296 53.5956 8.20477 53.4963 8.31849C53.3966 8.43177 53.4088 8.60497 53.5225 8.70382C53.6892 8.84903 53.8536 9.00168 54.0115 9.15651C54.1191 9.26236 54.2919 9.26061 54.3977 9.15345C54.4165 9.1342 54.4318 9.11321 54.4436 9.09047L54.4441 9.0909Z" fill="#C6C9D3"/>
<path d="M52.8019 7.78531C52.7175 7.9104 52.5478 7.9432 52.4227 7.85879C52.107 7.64622 51.7767 7.44678 51.4408 7.26701C51.37 7.22896 51.2987 7.19178 51.2265 7.15548C51.0922 7.08725 51.0384 6.92279 51.1071 6.78808C51.1766 6.66343 51.3398 6.60001 51.4745 6.66824C51.5497 6.70673 51.6245 6.74565 51.6989 6.78546C52.0505 6.97397 52.3974 7.1826 52.7285 7.40566C52.8457 7.48439 52.882 7.63879 52.8168 7.76082C52.8124 7.76913 52.8076 7.777 52.8024 7.78487L52.8019 7.78531ZM49.9537 6.60307C49.5198 6.44517 49.0724 6.31308 48.6236 6.2103C48.4767 6.17662 48.3848 6.0301 48.4185 5.88314C48.4522 5.73705 48.5987 5.64433 48.7461 5.67801C49.2163 5.78604 49.6856 5.92469 50.1405 6.09002C50.2822 6.14163 50.3557 6.29821 50.3041 6.44036C50.2997 6.45261 50.294 6.46486 50.2879 6.47623C50.2249 6.59388 50.0832 6.65074 49.9542 6.60351L49.9537 6.60307ZM47.2542 5.98461C46.7954 5.93825 46.3291 5.91988 45.8677 5.93081C45.7168 5.93431 45.5917 5.81491 45.5882 5.66401C45.5847 5.51268 45.7041 5.38802 45.855 5.38452C46.3388 5.37315 46.8282 5.3924 47.3089 5.44095C47.4589 5.45625 47.5687 5.59009 47.5534 5.74012C47.5494 5.77686 47.5389 5.81097 47.5223 5.84159C47.4716 5.93606 47.3675 5.99598 47.2538 5.98461H47.2542ZM44.4856 6.04847C44.029 6.11582 43.5719 6.21249 43.1284 6.33539C42.9827 6.37563 42.8323 6.29034 42.792 6.14513C42.7518 5.99992 42.8371 5.84946 42.9823 5.80878C43.4477 5.67976 43.9266 5.57872 44.4055 5.50787C44.5547 5.48556 44.6938 5.58922 44.7156 5.73837C44.7244 5.79872 44.713 5.8569 44.6863 5.90676C44.647 5.98067 44.5744 6.03535 44.4851 6.04847H44.4856ZM41.8162 6.78633C41.3898 6.96259 40.9704 7.16729 40.5693 7.39429C40.4381 7.46864 40.2714 7.42228 40.1971 7.29107C40.1227 7.15985 40.1686 6.99277 40.3003 6.91886C40.7206 6.68092 41.1602 6.4666 41.6072 6.28159C41.7467 6.22386 41.9063 6.29034 41.9641 6.42943C41.9969 6.50816 41.9899 6.59344 41.9527 6.66299C41.9238 6.71679 41.877 6.7614 41.8162 6.78633ZM39.4067 8.14965C39.0362 8.42432 38.6798 8.72437 38.3469 9.04234C38.238 9.14644 38.0648 9.1425 37.9607 9.03359C37.8566 8.92425 37.8606 8.75192 37.9695 8.64739C38.3185 8.3141 38.6929 7.99919 39.0813 7.71095C39.2025 7.62129 39.3735 7.64666 39.4636 7.76781C39.5287 7.85573 39.5331 7.96945 39.485 8.05955C39.4666 8.0941 39.4404 8.12515 39.4067 8.15008V8.14965ZM37.4048 10.0601C37.114 10.4162 36.8419 10.7949 36.5961 11.1868C36.5156 11.3145 36.3472 11.353 36.2195 11.2725C36.0918 11.1925 36.0551 11.025 36.1334 10.8955C36.3914 10.4853 36.677 10.0877 36.9819 9.71416C37.0772 9.59738 37.2496 9.57988 37.3663 9.67523C37.4691 9.75921 37.4949 9.90267 37.4346 10.0155C37.4263 10.0308 37.4166 10.0457 37.4053 10.0597L37.4048 10.0601ZM35.0762 13.8697C34.9327 13.8229 34.8544 13.669 34.9012 13.5251C35.0307 13.1279 35.1847 12.7312 35.3574 12.3468C35.3832 12.2881 35.4099 12.2304 35.437 12.1722C35.497 12.0345 35.664 11.9767 35.8005 12.0415C35.937 12.1058 35.9956 12.2685 35.9313 12.4049C35.9055 12.4592 35.8805 12.5134 35.8561 12.5694C35.6907 12.9372 35.5438 13.3156 35.4204 13.6943C35.4152 13.7101 35.4091 13.7249 35.4016 13.7385C35.3404 13.8531 35.2039 13.9108 35.0762 13.8688V13.8697Z" fill="#C6C9D3"/>
<path d="M56.4448 22.8959C56.2148 23.3128 55.9572 23.7191 55.6794 24.104C55.5911 24.226 55.4205 24.254 55.298 24.1657C55.1756 24.0773 55.1498 23.9063 55.2364 23.7843C55.5014 23.4173 55.7472 23.0298 55.9668 22.6322C56.0398 22.5001 56.206 22.452 56.3381 22.525C56.4693 22.5972 56.5174 22.7617 56.447 22.8929C56.4466 22.8937 56.4457 22.8951 56.4453 22.8964L56.4448 22.8959ZM56.7042 21.7544C56.5642 21.6979 56.4969 21.5383 56.5533 21.3988C56.7234 20.978 56.87 20.5428 56.9885 20.105C57.0283 19.9602 57.1779 19.8732 57.324 19.913C57.4696 19.9524 57.5553 20.1024 57.5164 20.248C57.3922 20.7068 57.2387 21.163 57.0602 21.6039C57.0563 21.6131 57.0524 21.6218 57.0475 21.6306C56.9824 21.7517 56.835 21.8073 56.7042 21.7544ZM54.7719 25.2106C54.4478 25.5596 54.0992 25.892 53.7366 26.1982C53.6211 26.2953 53.4488 26.2808 53.3517 26.1658C53.2541 26.0503 53.269 25.8789 53.384 25.7809C53.73 25.4887 54.0624 25.1721 54.3716 24.8392C54.4744 24.7286 54.6472 24.7224 54.7574 24.8248C54.8506 24.9114 54.8698 25.047 54.8125 25.1537C54.8016 25.1738 54.788 25.1931 54.7719 25.211V25.2106ZM57.4959 19.0776C57.3467 19.0562 57.2426 18.918 57.2641 18.7684C57.3279 18.3192 57.3651 17.8617 57.3738 17.4081C57.3769 17.2577 57.5015 17.1374 57.652 17.1404C57.8029 17.1435 57.9227 17.2682 57.9201 17.419C57.9109 17.8945 57.872 18.3747 57.8051 18.8458C57.8003 18.8782 57.7902 18.9088 57.7754 18.9363C57.7229 19.0347 57.6126 19.0947 57.4959 19.078V19.0776ZM52.5898 27.0515C52.1922 27.3117 51.774 27.5501 51.3476 27.7609C51.2124 27.8278 51.0484 27.7719 50.9815 27.6367C50.9146 27.5016 50.9701 27.3375 51.1057 27.2706C51.5125 27.0703 51.9109 26.8424 52.2902 26.594C52.4166 26.5113 52.5858 26.5468 52.6685 26.6732C52.7249 26.7598 52.7262 26.8665 52.6807 26.9518C52.6597 26.9907 52.6291 27.0253 52.5898 27.0515ZM50.0293 28.3155C49.5801 28.4734 49.117 28.6051 48.6533 28.7074C48.5059 28.7398 48.3603 28.6471 48.3279 28.4997C48.2951 28.3527 48.3883 28.2066 48.5357 28.1738C48.9779 28.0763 49.4192 27.9503 49.8483 27.7999C49.9904 27.75 50.1466 27.8248 50.1964 27.9674C50.2227 28.0426 50.2143 28.1218 50.1794 28.1869C50.1483 28.2451 50.0963 28.2923 50.0289 28.3155H50.0293ZM47.2397 28.93C46.7652 28.9755 46.284 28.9926 45.8095 28.9803C45.6586 28.9764 45.5396 28.8509 45.5436 28.7C45.5475 28.5491 45.673 28.4301 45.8235 28.4341C46.2762 28.4459 46.735 28.4297 47.1872 28.3859C47.3372 28.3715 47.4711 28.4817 47.4855 28.6318C47.4912 28.6873 47.4794 28.7407 47.4545 28.7866C47.4129 28.8644 47.3342 28.9209 47.2397 28.93Z" fill="#C6C9D3"/>
<path d="M57.8281 16.1333C57.853 16.087 57.8648 16.0327 57.8587 15.9763C57.8346 15.7436 57.8036 15.5109 57.7664 15.2839C57.7419 15.1352 57.6015 15.0342 57.4524 15.0582C57.3037 15.0832 57.2026 15.2231 57.2267 15.3723C57.2621 15.5888 57.2919 15.811 57.315 16.0327C57.3308 16.1827 57.4651 16.2916 57.6151 16.2763C57.7087 16.2667 57.7865 16.2107 57.8276 16.1333H57.8281Z" fill="#C6C9D3"/>
<path d="M53.8326 12.8035C53.8098 12.7488 53.7551 12.7151 53.6961 12.7186L52.0157 12.8244C51.5556 12.1867 50.9905 11.6177 50.3322 11.1471L50.4306 9.46755C50.4341 9.4085 50.3996 9.35383 50.3453 9.33152L48.4777 8.56261C48.423 8.5403 48.3605 8.55474 48.3211 8.59891L47.2084 9.86119C46.4098 9.73173 45.608 9.73829 44.8321 9.86732L43.7133 8.60941C43.674 8.56523 43.6114 8.5508 43.5567 8.57354L41.6926 9.35033C41.6379 9.37308 41.6038 9.42775 41.6078 9.48679L41.7136 11.1672C41.0759 11.6273 40.5069 12.1924 40.0363 12.8507L38.3567 12.7523C38.2977 12.7488 38.243 12.7833 38.2207 12.8376L37.4518 14.7052C37.4295 14.7599 37.4439 14.8224 37.4881 14.8618L38.7504 15.9745C38.6209 16.7731 38.6274 17.5753 38.7565 18.3508L37.4981 19.4696C37.454 19.5089 37.4395 19.5715 37.4623 19.6262L38.2391 21.4903C38.2618 21.5445 38.3165 21.5786 38.3755 21.5751L40.0559 21.4693C40.5161 22.107 41.0807 22.676 41.7394 23.1466L41.641 24.8262C41.6375 24.8852 41.6716 24.9399 41.7263 24.9622L43.5939 25.7311C43.6486 25.7534 43.7111 25.739 43.7505 25.6948L44.8632 24.4325C45.6618 24.562 46.464 24.5554 47.2395 24.4264L48.3583 25.6843C48.3977 25.7285 48.4602 25.7429 48.5149 25.7202L50.379 24.9434C50.4337 24.9207 50.4674 24.866 50.4639 24.8069L50.358 23.1265C50.9957 22.6664 51.5647 22.1013 52.0354 21.443L53.7149 21.5415C53.774 21.545 53.8286 21.5104 53.8509 21.4562L54.6199 19.5885C54.6422 19.5339 54.6277 19.4713 54.5835 19.432L53.3213 18.3193C53.4507 17.5206 53.4442 16.7185 53.3151 15.943L54.573 14.8242C54.6172 14.7848 54.6317 14.7222 54.6089 14.6676L53.8321 12.8035H53.8326Z" fill="white"/>
<path d="M47.6963 18.377C47.3678 18.8205 46.8858 19.1096 46.34 19.1905C45.7941 19.2719 45.2492 19.1354 44.8057 18.8065C43.8902 18.1281 43.6982 16.8335 44.3757 15.9159C45.0545 15.0004 46.3514 14.808 47.2664 15.4864C47.7099 15.8148 47.999 16.2968 48.0799 16.8427C48.1459 17.2866 48.0681 17.7297 47.8599 18.1181C47.8122 18.2073 47.7571 18.2939 47.6959 18.377H47.6963ZM45.1306 18.3678C45.4569 18.6097 45.8576 18.7099 46.2595 18.6504C46.661 18.5905 47.0153 18.3779 47.2572 18.052C47.4986 17.7253 47.5992 17.3251 47.5393 16.9232C47.4798 16.5216 47.2668 16.1674 46.941 15.9255C46.2674 15.4264 45.3139 15.5681 44.8144 16.2413C44.7694 16.3021 44.7296 16.3651 44.695 16.4298C44.3451 17.0832 44.5179 17.9138 45.1306 18.3678Z" fill="#C6C9D3"/>
<path d="M50.531 19.5926C50.6128 19.4404 50.6871 19.2825 50.7545 19.1194C50.8879 18.7953 50.9885 18.4576 51.0536 18.1143C51.0563 18.099 51.0593 18.0832 51.0619 18.0679C51.0834 17.9485 51.0239 17.8331 50.9224 17.7788C50.8979 17.7657 50.8704 17.7561 50.8415 17.7508C50.6932 17.7241 50.5515 17.823 50.5244 17.9713C50.4667 18.2923 50.3739 18.6085 50.2493 18.9112C50.2423 18.9278 50.2353 18.9444 50.2283 18.9611C49.9265 19.6749 49.4581 20.2863 48.8676 20.7565C48.547 21.0115 48.1901 21.2254 47.8035 21.3903C47.8004 21.3916 47.7973 21.3929 47.7938 21.3942C47.7842 21.3982 47.7746 21.4025 47.765 21.4065C46.6308 21.8788 45.3804 21.8819 44.2441 21.4139C44.0971 21.3535 43.9541 21.2862 43.8159 21.2118C42.8855 20.7136 42.1608 19.9172 41.7492 18.9296C41.2769 17.7954 41.2742 16.545 41.7418 15.4091C42.2098 14.2741 43.092 13.3871 44.2257 12.9143C45.3598 12.4419 46.6103 12.4388 47.7466 12.9068C47.8914 12.9663 48.0322 13.0328 48.1691 13.1063C48.7626 13.4243 49.2801 13.8682 49.6824 14.4088C49.7074 14.442 49.738 14.4683 49.7725 14.4862C49.8626 14.5348 49.9772 14.53 50.0647 14.4643C50.1854 14.3738 50.2108 14.2032 50.1207 14.0821C49.6702 13.4776 49.0915 12.9803 48.4276 12.6247C48.2741 12.5425 48.1166 12.4681 47.9548 12.4017C46.6833 11.8781 45.2846 11.8812 44.0157 12.4104C42.7469 12.9392 41.7593 13.9294 41.2366 15.2018C40.7131 16.4728 40.7161 17.8715 41.2454 19.1408C41.7055 20.2457 42.5164 21.1366 43.5574 21.6938C43.7118 21.7765 43.8718 21.8522 44.0363 21.9199C46.4974 22.9329 49.3011 21.8911 50.531 19.5935V19.5926Z" fill="#C6C9D3"/>
<path d="M17.7239 60.4329H29.4645C29.6286 60.4329 29.7615 60.5658 29.7615 60.7298V82.5298H17.269V60.8877C17.269 60.6367 17.4729 60.4329 17.7239 60.4329Z" fill="#98E169"/>
<path d="M33.1092 48.2417H44.8909C45.0759 48.2417 45.2264 48.3922 45.2264 48.5772V82.5298H32.7339V48.617C32.7339 48.4101 32.9018 48.2417 33.1092 48.2417Z" fill="#98E169"/>
<path d="M48.9459 36.9761H60.5212C60.7316 36.9761 60.9026 37.1471 60.9026 37.3575V82.5153H48.4102V37.5119C48.4102 37.2162 48.6503 36.9761 48.9459 36.9761Z" fill="#98E169"/>
<path d="M64.757 24.2341H76.3445C76.5851 24.2341 76.7806 24.4296 76.7806 24.6702V82.5152H64.2881V24.703C64.2881 24.4441 64.498 24.2341 64.757 24.2341Z" fill="#98E169"/>
<path d="M9.85322 80.1716C9.85322 80.1716 9.67958 81.1033 9.58992 82.0261C9.55493 82.387 9.83004 82.7028 10.1922 82.7216C11.4217 82.7845 14.0521 82.9092 14.9964 82.876C15.1385 82.8711 15.2326 82.7264 15.1814 82.5943C15.1385 82.4832 15.0546 82.3931 14.9465 82.3424L10.6195 80.3033L9.85322 80.1721V80.1716Z" fill="#48494B"/>
<path d="M9.72358 79.6223L9.84518 80.7398C9.84518 80.7398 10.6032 81.1015 11.1267 80.7074L10.8232 79.4604L9.72314 79.6223H9.72358Z" fill="url(#paint0_linear_225_17569)"/>
<path d="M10.0233 58.6402C9.96341 58.9311 9.57764 73.1818 11.0402 79.5838C11.0643 79.6883 11.0101 79.795 10.9108 79.8349C10.6763 79.928 10.2167 80.0618 9.66774 80.075C9.4976 80.0789 9.34626 79.9669 9.2999 79.8034C8.8787 78.3171 6.86238 70.872 6.65812 63.7768C6.42937 55.8484 6.66074 63.507 6.66074 63.507L6.88599 58.6096L10.0242 58.6402H10.0233Z" fill="#48494B"/>
<path d="M4.84907 80.6106C4.84907 80.6106 4.58227 81.079 4.31634 82.3286C4.26823 82.5543 4.42438 82.7721 4.65357 82.7971C5.05946 82.8408 5.68403 82.8981 6.18484 82.8994C6.41577 82.8999 6.59772 82.7008 6.57236 82.4712C6.52118 82.0137 6.35541 81.2627 5.82706 80.6731L4.84907 80.6106Z" fill="#48494B"/>
<path d="M4.63281 79.173L4.92629 80.8639C4.92629 80.8639 5.23028 81.0944 5.83692 80.9352L5.70658 79.1179L4.63325 79.1735L4.63281 79.173Z" fill="url(#paint1_linear_225_17569)"/>
<path d="M3.98923 59.0197C2.6714 66.5278 4.0824 77.6088 4.57314 79.7795C4.60332 79.9125 4.70916 80.0153 4.84344 80.0385C5.07131 80.0783 5.44702 80.1128 5.81836 80.0087C5.94651 79.9729 6.03705 79.8587 6.04361 79.7257C6.1289 77.9753 6.10791 67.2241 7.30939 62.9863C7.37019 62.7715 7.50359 62.5852 7.68685 62.4575L9.95555 60.8768L10.1532 58.2888L3.98923 59.0188V59.0197Z" fill="#48494B"/>
<path d="M12.0652 44.8467C8.33167 44.7492 4.20104 45.7521 4.20104 45.7521C3.0258 52.2362 3.87301 59.7365 3.87301 59.7365C6.75666 60.522 10.0296 59.3314 10.0296 59.3314C10.5361 56.6214 12.8507 49.0027 12.8507 49.0027C14.6772 48.7936 16.1853 48.2814 17.4296 47.5974C16.4958 46.4939 16.0641 45.0973 15.8787 44.272C14.5543 44.6696 13.2163 44.876 12.0647 44.8463L12.0652 44.8467Z" fill="#F3D33F"/>
<path d="M23.1477 39.4514C22.7852 39.0049 22.4125 39.0797 22.4125 39.0797C21.8408 41.3956 18.8478 43.3804 15.8789 44.2723C16.0644 45.0972 16.496 46.4941 17.4299 47.5977C22.3688 44.8824 23.1477 39.4514 23.1477 39.4514Z" fill="url(#paint2_linear_225_17569)"/>
<path d="M23.0576 39.5637C23.0948 39.6862 22.6487 39.8677 22.3915 39.366C22.3845 39.1267 22.2489 38.1007 22.3937 37.9073C23.1648 36.8769 24.6532 35.5901 24.6532 35.5901C24.9003 35.8385 24.6925 36.0782 24.6925 36.0782L23.9696 36.8174C24.1165 37.0894 24.2972 37.3195 24.3798 37.6475C24.4424 37.896 24.3999 38.1606 24.2727 38.3849C24.1449 38.6102 23.9704 38.9028 23.8064 39.1316C23.4954 39.5646 23.0581 39.5637 23.0581 39.5637H23.0576Z" fill="url(#paint3_linear_225_17569)"/>
<path d="M23.6515 37.2978L22.9936 37.8445L22.7837 38.393L23.3593 39.0438C23.3593 39.0438 23.5653 37.953 23.7131 37.7181C23.861 37.4833 23.7866 37.3678 23.6519 37.2974L23.6515 37.2978Z" fill="url(#paint4_linear_225_17569)"/>
<path d="M5.59845 49.3816L4.20058 45.7522C4.20058 45.7522 0.690164 48.0887 0.0878906 51.0882C0.746587 51.1429 1.94414 51.3257 3.11238 51.9298C3.38399 50.5135 5.59845 49.3816 5.59845 49.3816Z" fill="#F3D33F"/>
<path d="M8.61424 52.8132C8.61424 52.8132 4.67694 54.9891 3.37354 53.0865C3.1028 52.6916 3.04113 52.301 3.11199 51.9297C1.94374 51.3256 0.746192 51.1428 0.0874958 51.0881C-0.0940173 51.9922 -0.0117896 52.9566 0.511318 53.9355C2.7857 58.1916 9.12291 53.7837 9.12291 53.7837L8.6138 52.8132H8.61424Z" fill="url(#paint5_linear_225_17569)"/>
<path d="M8.31095 41.7791L7.08978 45.2037C7.06966 45.2606 7.09241 45.3236 7.14489 45.3533C7.46724 45.5353 8.62893 46.0641 10.0439 45.1862C10.1913 45.0948 10.2923 44.9444 10.3163 44.7725L10.7297 41.8022L8.31139 41.7791H8.31095Z" fill="url(#paint6_linear_225_17569)"/>
<path d="M10.9268 38.6218C10.9268 38.6218 12.2084 41.0904 12.0317 42.0806C11.855 43.0713 10.2384 42.9847 8.83441 42.165L7.87305 39.5035L10.9273 38.6213L10.9268 38.6218Z" fill="url(#paint7_linear_225_17569)"/>
<path d="M8.90958 40.8635C8.96732 40.8386 8.98919 40.7686 8.95507 40.7157C8.85185 40.5552 8.6594 40.2271 8.59948 39.9415C8.59948 39.9415 8.36636 39.7889 9.20001 39.5982C10.0337 39.4071 11.2763 39.1101 11.5439 38.4046C11.8046 37.717 11.1533 35.9749 10.0752 37.3479C10.0341 37.3999 9.95492 37.4004 9.91468 37.3479C9.74236 37.1191 9.28748 36.6428 8.64759 36.9227C8.04838 37.1847 7.97709 37.6212 7.98321 37.8417C7.98496 37.9064 7.92679 37.9563 7.86293 37.9436C7.56201 37.8832 6.83859 37.8268 6.49393 38.566C6.21007 39.1748 6.38721 39.5225 6.55035 39.6935C6.60327 39.7491 6.57878 39.8392 6.50574 39.8606C6.30673 39.9192 6.04955 40.085 6.07054 40.5495C6.09985 41.192 6.81803 41.1421 7.02272 41.1146C7.0564 41.1102 7.09008 41.122 7.11238 41.1474C7.28559 41.3429 8.06719 42.1739 8.92096 42.2811C8.99487 42.2903 9.05304 42.2177 9.02943 42.1472L8.6699 41.0687C8.65328 41.0188 8.67777 40.9641 8.72588 40.9431L8.91002 40.8635H8.90958Z" fill="#333435"/>
<path d="M9.05576 41.0173C9.05576 41.0173 8.13289 40.3709 8.05984 40.9071C7.9868 41.4433 8.88912 41.6926 9.33875 41.4967L9.05576 41.0173Z" fill="url(#paint8_linear_225_17569)"/>
<path d="M7.8099 56.2516L9.95482 48.7614C9.97931 48.6766 10.0519 48.6145 10.1394 48.604C10.5278 48.5585 11.654 48.4312 12.9539 48.3214C14.5198 48.1889 16.3384 48.0818 17.4253 48.1727C17.5797 48.1859 17.6733 48.349 17.6046 48.4881C16.9866 49.7386 14.4445 54.824 13.1718 56.49C13.1298 56.5451 13.0642 56.5774 12.995 56.577L8.01897 56.5306C7.87419 56.5293 7.77053 56.3903 7.81034 56.2512L7.8099 56.2516Z" fill="#5C5E61"/>
<path d="M8.3276 54.442C8.3276 54.442 8.02887 53.2134 8.14915 52.7778C8.26987 52.3417 8.50299 51.7815 9.28153 51.9061C10.0601 52.0308 10.9781 52.3584 10.9781 52.3584C10.9781 52.3584 10.9318 52.9261 10.3404 52.7428L10.7074 53.0267C10.7074 53.0267 10.6549 53.4811 10.1554 53.2384L10.4966 53.615C10.4966 53.615 10.2818 53.9885 9.91442 53.7488C9.54702 53.5095 9.37076 54.5899 8.32804 54.442H8.3276Z" fill="url(#paint9_linear_225_17569)"/>
<path d="M12.811 50.5576C12.811 50.9053 13.0927 51.187 13.4404 51.187C13.7881 51.187 14.0698 50.9053 14.0698 50.5576C14.0698 50.2099 13.7881 49.9282 13.4404 49.9282C13.0927 49.9282 12.811 50.2099 12.811 50.5576Z" fill="#74767B"/>
<path d="M10.2027 50.9747L10.6392 49.4933C10.6921 49.3135 10.8369 49.1784 11.0166 49.1408C12.3843 48.8552 16.1305 48.7948 16.1681 48.7944L16.165 48.6155C16.0106 48.6177 12.3642 48.6767 10.9799 48.9658C10.7358 49.017 10.5394 49.1998 10.4673 49.443L10.0308 50.9244L10.2027 50.9752V50.9747Z" fill="#74767B"/>
<path d="M52.2896 51.251C52.1409 56.556 51.6593 74.8538 51.8894 81.3384C51.9139 82.0256 52.5358 82.5767 53.3117 82.5994C57.1493 82.7105 71.2177 82.9922 77.4945 82.7591C78.8019 82.7105 79.8415 81.7728 79.8686 80.6146C79.999 75.0467 80.2868 59.3858 79.6027 52.2115C79.5209 51.352 78.7586 50.6675 77.7893 50.5814C73.6102 50.2113 59.481 49.3064 54.0583 49.6178C53.0804 49.6738 52.3141 50.3832 52.2896 51.2506V51.251Z" fill="#333435"/>
<path d="M76.4315 52.0291H54.9526C54.0905 52.0291 53.3916 52.7279 53.3916 53.5901V58.0855C53.3916 58.9476 54.0905 59.6465 54.9526 59.6465H76.4315C77.2936 59.6465 77.9925 58.9476 77.9925 58.0855V53.5901C77.9925 52.7279 77.2936 52.0291 76.4315 52.0291Z" fill="#F7E057"/>
<path d="M76.8974 53.5639C76.7075 53.3676 76.4473 53.2547 76.1744 53.2503L56.0763 52.931C55.5392 52.9223 55.0856 53.3291 55.0353 53.864L54.6176 58.3226C54.5835 58.6879 55.184 58.9953 55.9499 59.0045L75.7094 59.2438C76.474 59.253 77.106 58.9612 77.1125 58.5964L77.1869 54.2965C77.1917 54.0236 77.0876 53.7594 76.8978 53.5635L76.8974 53.5639Z" fill="#F7EBA6"/>
<path d="M58.7617 64.2045C58.7617 64.9975 58.1187 65.6404 57.3257 65.6404H55.5775C54.7846 65.6404 54.1416 64.9975 54.1416 64.2045C54.1416 63.4115 54.7846 62.7686 55.5775 62.7686H57.3257C58.1187 62.7686 58.7617 63.4115 58.7617 64.2045Z" fill="#979AA0"/>
<path d="M65.2553 64.2045C65.2553 64.9975 64.6124 65.6404 63.8194 65.6404H62.0712C61.2782 65.6404 60.6353 64.9975 60.6353 64.2045C60.6353 63.4115 61.2782 62.7686 62.0712 62.7686H63.8194C64.6124 62.7686 65.2553 63.4115 65.2553 64.2045Z" fill="#979AA0"/>
<path d="M71.4985 64.2045C71.4985 64.9975 70.8555 65.6404 70.0625 65.6404H68.3143C67.5214 65.6404 66.8784 64.9975 66.8784 64.2045C66.8784 63.4115 67.5214 62.7686 68.3143 62.7686H70.0625C70.8555 62.7686 71.4985 63.4115 71.4985 64.2045Z" fill="#979AA0"/>
<path d="M77.8284 64.4156C77.8284 65.2217 77.175 65.8751 76.3689 65.8751H74.6793C73.8732 65.8751 73.2197 65.2217 73.2197 64.4156C73.2197 63.6095 73.8732 62.9561 74.6793 62.9561H76.3689C77.175 62.9561 77.8284 63.6095 77.8284 64.4156Z" fill="#F3D33F"/>
<path d="M58.7617 68.7001C58.7617 69.4931 58.1187 70.136 57.3257 70.136H55.5775C54.7846 70.136 54.1416 69.4931 54.1416 68.7001C54.1416 67.9071 54.7846 67.2642 55.5775 67.2642H57.3257C58.1187 67.2642 58.7617 67.9071 58.7617 68.7001Z" fill="#979AA0"/>
<path d="M65.2553 68.7001C65.2553 69.4931 64.6124 70.136 63.8194 70.136H62.0712C61.2782 70.136 60.6353 69.4931 60.6353 68.7001C60.6353 67.9071 61.2782 67.2642 62.0712 67.2642H63.8194C64.6124 67.2642 65.2553 67.9071 65.2553 68.7001Z" fill="#979AA0"/>
<path d="M71.4985 68.7001C71.4985 69.4931 70.8555 70.136 70.0625 70.136H68.3143C67.5214 70.136 66.8784 69.4931 66.8784 68.7001C66.8784 67.9071 67.5214 67.2642 68.3143 67.2642H70.0625C70.8555 67.2642 71.4985 67.9071 71.4985 68.7001Z" fill="#979AA0"/>
<path d="M77.9926 68.7001C77.9926 69.4931 77.3497 70.136 76.5567 70.136H74.8085C74.0155 70.136 73.3726 69.4931 73.3726 68.7001C73.3726 67.9071 74.0155 67.2642 74.8085 67.2642H76.5567C77.3497 67.2642 77.9926 67.9071 77.9926 68.7001Z" fill="#979AA0"/>
<path opacity="0.63" d="M58.7617 72.6815C58.7617 73.4745 58.1187 74.1175 57.3257 74.1175H55.5775C54.7846 74.1175 54.1416 73.4745 54.1416 72.6815C54.1416 71.8886 54.7846 71.2456 55.5775 71.2456H57.3257C58.1187 71.2456 58.7617 71.8886 58.7617 72.6815Z" fill="#888B8F"/>
<path opacity="0.63" d="M65.2553 72.6815C65.2553 73.4745 64.6124 74.1175 63.8194 74.1175H62.0712C61.2782 74.1175 60.6353 73.4745 60.6353 72.6815C60.6353 71.8886 61.2782 71.2456 62.0712 71.2456H63.8194C64.6124 71.2456 65.2553 71.8886 65.2553 72.6815Z" fill="#888B8F"/>
<path opacity="0.63" d="M71.4985 72.6815C71.4985 73.4745 70.8555 74.1175 70.0625 74.1175H68.3143C67.5214 74.1175 66.8784 73.4745 66.8784 72.6815C66.8784 71.8886 67.5214 71.2456 68.3143 71.2456H70.0625C70.8555 71.2456 71.4985 71.8886 71.4985 72.6815Z" fill="#888B8F"/>
<path d="M58.7617 77.0521C58.7617 77.8451 58.1187 78.4881 57.3257 78.4881H55.5775C54.7846 78.4881 54.1416 77.8451 54.1416 77.0521C54.1416 76.2592 54.7846 75.6162 55.5775 75.6162H57.3257C58.1187 75.6162 58.7617 76.2592 58.7617 77.0521Z" fill="#979AA0"/>
<path d="M65.2553 77.0521C65.2553 77.8451 64.6124 78.4881 63.8194 78.4881H62.0712C61.2782 78.4881 60.6353 77.8451 60.6353 77.0521C60.6353 76.2592 61.2782 75.6162 62.0712 75.6162H63.8194C64.6124 75.6162 65.2553 76.2592 65.2553 77.0521Z" fill="#979AA0"/>
<path d="M71.4985 77.0521C71.4985 77.8451 70.8555 78.4881 70.0625 78.4881H68.3143C67.5214 78.4881 66.8784 77.8451 66.8784 77.0521C66.8784 76.2592 67.5214 75.6162 68.3143 75.6162H70.0625C70.8555 75.6162 71.4985 76.2592 71.4985 77.0521Z" fill="#979AA0"/>
<path d="M75.55 71.635H75.4393C74.4354 71.635 73.6216 72.4488 73.6216 73.4528V76.9352C73.6216 77.9391 74.4354 78.7529 75.4393 78.7529H75.55C76.5539 78.7529 77.3677 77.9391 77.3677 76.9352V73.4528C77.3677 72.4488 76.5539 71.635 75.55 71.635Z" fill="#979AA0"/>
<path d="M28.2623 55.358C28.9218 52.5638 27.1913 49.7641 24.3972 49.1046C21.603 48.4451 18.8033 50.1756 18.1438 52.9698C17.4843 55.7639 19.2148 58.5637 22.009 59.2231C24.8031 59.8826 27.6029 58.1521 28.2623 55.358Z" fill="#ECC538"/>
<path d="M28.1146 55.2283C28.702 52.5159 26.9794 49.8408 24.267 49.2534C21.5546 48.666 18.8796 50.3886 18.2922 53.101C17.7047 55.8134 19.4273 58.4884 22.1397 59.0758C24.8521 59.6633 27.5272 57.9407 28.1146 55.2283Z" fill="#F7E057"/>
<path opacity="0.78" d="M19.0606 52.1766C19.0458 52.1766 19.0309 52.1731 19.0169 52.1661C18.9688 52.142 18.9495 52.0834 18.974 52.0358C19.7849 50.4293 21.4059 49.4312 23.2044 49.4312C23.4917 49.4312 23.7791 49.457 24.0586 49.5081C24.1115 49.5178 24.1465 49.5685 24.1364 49.621C24.1268 49.6739 24.0761 49.7093 24.0236 49.6988C23.7555 49.6498 23.4799 49.6249 23.2044 49.6249C21.4798 49.6249 19.9249 50.5819 19.1472 52.1228C19.1302 52.1565 19.096 52.1762 19.0606 52.1762V52.1766Z" fill="white"/>
<path opacity="0.78" d="M23.3132 58.5296C25.6621 58.5296 27.5662 56.6254 27.5662 54.2765C27.5662 51.9276 25.6621 50.0234 23.3132 50.0234C20.9642 50.0234 19.0601 51.9276 19.0601 54.2765C19.0601 56.6254 20.9642 58.5296 23.3132 58.5296Z" fill="white"/>
<path d="M44.5398 40.9084C45.1771 37.5992 43.011 34.4 39.7018 33.7627C36.3927 33.1255 33.1934 35.2915 32.5562 38.6007C31.9189 41.9099 34.085 45.1091 37.3942 45.7464C40.7033 46.3836 43.9026 44.2176 44.5398 40.9084Z" fill="#ECC538"/>
<path d="M44.3411 40.8703C44.9572 37.6709 42.8631 34.5779 39.6637 33.9618C36.4643 33.3457 33.3713 35.4398 32.7552 38.6392C32.1391 41.8385 34.2332 44.9316 37.4326 45.5477C40.632 46.1638 43.725 44.0696 44.3411 40.8703Z" fill="#F7E057"/>
<path opacity="0.78" d="M33.6837 37.4013C33.6688 37.4013 33.6539 37.3978 33.6399 37.3908C33.5918 37.3667 33.5726 37.3081 33.5971 37.2605C34.5462 35.3802 36.4431 34.2119 38.5482 34.2119C38.8837 34.2119 39.22 34.2421 39.5481 34.302C39.601 34.3116 39.636 34.3624 39.6264 34.4149C39.6167 34.4678 39.5664 34.5032 39.5135 34.4931C39.1969 34.4359 38.8723 34.4065 38.5487 34.4065C36.5175 34.4065 34.687 35.5337 33.7711 37.3484C33.7541 37.3821 33.72 37.4017 33.6845 37.4017L33.6837 37.4013Z" fill="white"/>
<path opacity="0.78" d="M43.6622 40.1597C43.8146 37.4063 41.7062 35.0506 38.9528 34.8981C36.1993 34.7456 33.8436 36.8541 33.6912 39.6075C33.5387 42.3609 35.6471 44.7166 38.4005 44.8691C41.154 45.0216 43.5097 42.9132 43.6622 40.1597Z" fill="white"/>
<path d="M75.9273 18.2175C79.2813 14.8635 79.2813 9.42559 75.9273 6.07161C72.5733 2.71762 67.1354 2.71762 63.7814 6.07161C60.4274 9.42559 60.4274 14.8635 63.7814 18.2175C67.1354 21.5714 72.5733 21.5714 75.9273 18.2175Z" fill="#ECC538"/>
<path d="M75.7247 18.0155C78.9672 14.7731 78.9672 9.51601 75.7247 6.27356C72.4823 3.03112 67.2252 3.03112 63.9828 6.27356C60.7403 9.51601 60.7403 14.7731 63.9828 18.0155C67.2252 21.2579 72.4823 21.2579 75.7247 18.0155Z" fill="#F7E057"/>
<path opacity="0.78" d="M63.0074 8.79249C62.9925 8.79249 62.9777 8.78899 62.9637 8.78199C62.9156 8.75794 62.8963 8.69933 62.9208 8.65165C64.25 6.01862 66.9066 4.38281 69.8542 4.38281C70.3243 4.38281 70.7954 4.42524 71.2542 4.50878C71.3071 4.5184 71.3421 4.56914 71.3325 4.62162C71.3229 4.67455 71.2722 4.70997 71.2197 4.69991C70.7722 4.61856 70.313 4.57701 69.8542 4.57701C66.9806 4.57701 64.3904 6.1717 63.0944 8.73913C63.0774 8.77281 63.0433 8.79249 63.0078 8.79249H63.0074Z" fill="white"/>
<path opacity="0.78" d="M70.0352 19.3527C73.9163 19.3527 77.0626 16.2064 77.0626 12.3253C77.0626 8.44413 73.9163 5.29785 70.0352 5.29785C66.1541 5.29785 63.0078 8.44413 63.0078 12.3253C63.0078 16.2064 66.1541 19.3527 70.0352 19.3527Z" fill="white"/>
<path d="M61.4735 27.7006C62.0759 23.694 59.3162 19.9577 55.3096 19.3553C51.3029 18.7529 47.5666 21.5126 46.9642 25.5193C46.3619 29.5259 49.1216 33.2622 53.1282 33.8646C57.1348 34.467 60.8712 31.7073 61.4735 27.7006Z" fill="#ECC538"/>
<path d="M59.2351 31.626C62.0048 28.8563 62.0048 24.3658 59.2351 21.5962C56.4655 18.8265 51.975 18.8265 49.2053 21.5962C46.4357 24.3658 46.4357 28.8563 49.2053 31.626C51.975 34.3956 56.4655 34.3956 59.2351 31.626Z" fill="#F7E057"/>
<path opacity="0.78" d="M48.3721 23.7615C48.3573 23.7615 48.3424 23.758 48.3284 23.751C48.2803 23.7269 48.261 23.6683 48.2855 23.6206C49.4232 21.3668 51.6976 19.9663 54.2204 19.9663C54.6232 19.9663 55.0265 20.0026 55.4188 20.0743C55.4717 20.084 55.5067 20.1347 55.4966 20.1872C55.487 20.2401 55.4363 20.2755 55.3838 20.265C55.0028 20.1955 54.6109 20.1605 54.2199 20.1605C51.7706 20.1605 49.5631 21.5199 48.4583 23.7077C48.4413 23.7413 48.4071 23.761 48.3717 23.761L48.3721 23.7615Z" fill="white"/>
<path opacity="0.78" d="M58.6192 31.0106C60.9634 28.6664 60.9634 24.8658 58.6192 22.5216C56.2751 20.1775 52.4744 20.1775 50.1302 22.5216C47.7861 24.8658 47.7861 28.6664 50.1302 31.0106C52.4744 33.3548 56.275 33.3548 58.6192 31.0106Z" fill="white"/>
<defs>
<linearGradient id="paint0_linear_225_17569" x1="10.1295" y1="78.3237" x2="10.7466" y2="82.4723" gradientUnits="userSpaceOnUse">
<stop stop-color="#EFEFF4"/>
<stop offset="1" stop-color="white"/>
</linearGradient>
<linearGradient id="paint1_linear_225_17569" x1="5.15723" y1="79.0637" x2="5.77437" y2="83.2118" gradientUnits="userSpaceOnUse">
<stop stop-color="#EFEFF4"/>
<stop offset="1" stop-color="white"/>
</linearGradient>
<linearGradient id="paint2_linear_225_17569" x1="16.9724" y1="46.5908" x2="25.353" y2="33.8595" gradientUnits="userSpaceOnUse">
<stop stop-color="white"/>
<stop offset="1" stop-color="#EFEFF4"/>
</linearGradient>
<linearGradient id="paint3_linear_225_17569" x1="17.5414" y1="46.9668" x2="25.9076" y2="34.2574" gradientUnits="userSpaceOnUse">
<stop stop-color="white"/>
<stop offset="1" stop-color="#EFEFF4"/>
</linearGradient>
<linearGradient id="paint4_linear_225_17569" x1="23.9611" y1="37.5051" x2="22.5322" y2="39.2162" gradientUnits="userSpaceOnUse">
<stop stop-color="white"/>
<stop offset="1" stop-color="#EFEFF4"/>
</linearGradient>
<linearGradient id="paint5_linear_225_17569" x1="-6.75283" y1="53.3118" x2="9.63599" y2="53.4663" gradientUnits="userSpaceOnUse">
<stop stop-color="#EFEFF4"/>
<stop offset="1" stop-color="white"/>
</linearGradient>
<linearGradient id="paint6_linear_225_17569" x1="8.4028" y1="46.2014" x2="10.4099" y2="38.1269" gradientUnits="userSpaceOnUse">
<stop stop-color="white"/>
<stop offset="0.16" stop-color="#FCFCFD"/>
<stop offset="1" stop-color="#EFEFF4"/>
</linearGradient>
<linearGradient id="paint7_linear_225_17569" x1="11.5984" y1="41.4564" x2="7.64837" y2="38.9953" gradientUnits="userSpaceOnUse">
<stop stop-color="white"/>
<stop offset="1" stop-color="#EFEFF4"/>
</linearGradient>
<linearGradient id="paint8_linear_225_17569" x1="10.5462" y1="42.35" x2="6.99229" y2="40.1362" gradientUnits="userSpaceOnUse">
<stop stop-color="white"/>
<stop offset="1" stop-color="#EFEFF4"/>
</linearGradient>
<linearGradient id="paint9_linear_225_17569" x1="8.12116" y1="53.1723" x2="10.9786" y2="53.1723" gradientUnits="userSpaceOnUse">
<stop stop-color="white"/>
<stop offset="1" stop-color="#EFEFF4"/>
</linearGradient>
</defs>
</svg>
