<svg width="144" height="143" viewBox="0 0 144 143" fill="none" xmlns="http://www.w3.org/2000/svg">
<g filter="url(#filter0_d_264_635)">
<circle cx="72" cy="61" r="29" fill="#29B9E7"/>
</g>
<g clip-path="url(#clip0_264_635)">
<path d="M61.1248 59.405C62.8843 59.405 64.3148 57.9744 64.3148 56.215C64.3148 54.4555 62.8843 53.025 61.1248 53.025C59.3654 53.025 57.9348 54.4555 57.9348 56.215C57.9348 57.9744 59.3654 59.405 61.1248 59.405ZM83.4548 59.405C85.2143 59.405 86.6448 57.9744 86.6448 56.215C86.6448 54.4555 85.2143 53.025 83.4548 53.025C81.6954 53.025 80.2648 54.4555 80.2648 56.215C80.2648 57.9744 81.6954 59.405 83.4548 59.405ZM85.0498 61H81.8598C80.9826 61 80.1901 61.3539 79.6119 61.9271C81.6206 63.0286 83.0461 65.0174 83.3552 67.38H86.6448C87.5271 67.38 88.2398 66.6672 88.2398 65.785V64.19C88.2398 62.4305 86.8093 61 85.0498 61ZM72.2898 61C75.3752 61 77.8723 58.5028 77.8723 55.4175C77.8723 52.3321 75.3752 49.835 72.2898 49.835C69.2045 49.835 66.7073 52.3321 66.7073 55.4175C66.7073 58.5028 69.2045 61 72.2898 61ZM76.1178 62.595H75.7041C74.6674 63.0934 73.516 63.3925 72.2898 63.3925C71.0637 63.3925 69.9173 63.0934 68.8755 62.595H68.4618C65.2918 62.595 62.7198 65.1669 62.7198 68.337V69.7725C62.7198 71.0933 63.7915 72.165 65.1123 72.165H79.4673C80.7882 72.165 81.8598 71.0933 81.8598 69.7725V68.337C81.8598 65.1669 79.2879 62.595 76.1178 62.595ZM64.9678 61.9271C64.3896 61.3539 63.5971 61 62.7198 61H59.5298C57.7704 61 56.3398 62.4305 56.3398 64.19V65.785C56.3398 66.6672 57.0526 67.38 57.9348 67.38H61.2195C61.5336 65.0174 62.9591 63.0286 64.9678 61.9271Z" fill="white"/>
</g>
<defs>
<filter id="filter0_d_264_635" x="0.750008" y="0.312506" width="142.5" height="142.5" filterUnits="userSpaceOnUse" color-interpolation-filters="sRGB">
<feFlood flood-opacity="0" result="BackgroundImageFix"/>
<feColorMatrix in="SourceAlpha" type="matrix" values="0 0 0 0 0 0 0 0 0 0 0 0 0 0 0 0 0 0 127 0" result="hardAlpha"/>
<feOffset dy="10.5625"/>
<feGaussianBlur stdDeviation="21.125"/>
<feColorMatrix type="matrix" values="0 0 0 0 0.212 0 0 0 0 0.238778 0 0 0 0 0.533333 0 0 0 0.06 0"/>
<feBlend mode="normal" in2="BackgroundImageFix" result="effect1_dropShadow_264_635"/>
<feBlend mode="normal" in="SourceGraphic" in2="effect1_dropShadow_264_635" result="shape"/>
</filter>
<clipPath id="clip0_264_635">
<rect width="31.9" height="25.52" fill="white" transform="translate(56.3398 48.24)"/>
</clipPath>
</defs>
</svg>
