<svg width="22" height="15" viewBox="0 0 22 15" fill="none" xmlns="http://www.w3.org/2000/svg">
<path d="M6.42857 7.5C8.50112 7.5 10.1786 5.82254 10.1786 3.75C10.1786 1.67746 8.50112 0 6.42857 0C4.35603 0 2.67857 1.67746 2.67857 3.75C2.67857 5.82254 4.35603 7.5 6.42857 7.5ZM9 8.57143H8.7221C8.02567 8.90625 7.25223 9.10714 6.42857 9.10714C5.60491 9.10714 4.83482 8.90625 4.13504 8.57143H3.85714C1.72768 8.57143 0 10.2991 0 12.4286V13.3929C0 14.2801 0.719866 15 1.60714 15H11.25C12.1373 15 12.8571 14.2801 12.8571 13.3929V12.4286C12.8571 10.2991 11.1295 8.57143 9 8.57143ZM16.0714 7.5C17.846 7.5 19.2857 6.06027 19.2857 4.28571C19.2857 2.51116 17.846 1.07143 16.0714 1.07143C14.2969 1.07143 12.8571 2.51116 12.8571 4.28571C12.8571 6.06027 14.2969 7.5 16.0714 7.5ZM17.6786 8.57143H17.5513C17.0859 8.73214 16.5938 8.83929 16.0714 8.83929C15.5491 8.83929 15.0569 8.73214 14.5915 8.57143H14.4643C13.7812 8.57143 13.1518 8.76897 12.5993 9.08705C13.4163 9.96763 13.9286 11.1362 13.9286 12.4286V13.7143C13.9286 13.7879 13.9118 13.8583 13.9085 13.9286H19.8214C20.7087 13.9286 21.4286 13.2087 21.4286 12.3214C21.4286 10.2489 19.7511 8.57143 17.6786 8.57143Z" fill="#033329"/>
</svg>
