<svg width="27" height="8" viewBox="0 0 27 8" fill="none" xmlns="http://www.w3.org/2000/svg">
<path d="M13.9637 2.57928C13.9483 3.68925 15.0462 4.30863 15.8732 4.67692C16.7228 5.05475 17.0082 5.29706 17.0048 5.63499C16.9985 6.1521 16.3271 6.38034 15.6988 6.3892C14.6027 6.40472 13.9653 6.11875 13.4587 5.90246L13.0638 7.59104C13.5721 7.80511 14.5134 7.99181 15.4896 8C17.7809 8 19.2799 6.96636 19.288 5.36376C19.297 3.32983 16.2096 3.21725 16.2307 2.30814C16.238 2.03248 16.5258 1.73831 17.1565 1.66352C17.4687 1.62574 18.3305 1.59682 19.3075 2.008L19.691 0.374266C19.1656 0.199422 18.4903 0.0320005 17.6495 0.0320005C15.4928 0.0320005 13.976 1.07971 13.9637 2.57928ZM23.3759 0.172723C22.9575 0.172723 22.6049 0.395759 22.4475 0.738024L19.1745 7.88H21.4642L21.9198 6.72925H24.7177L24.982 7.88H27L25.239 0.172723H23.3759ZM23.6962 2.25475L24.357 5.14892H22.5473L23.6962 2.25475ZM11.1877 0.17282L9.38292 7.8799H11.5648L13.3687 0.172627L11.1877 0.17282ZM7.96004 0.17282L5.68909 5.4186L4.77046 0.958169C4.66267 0.460241 4.237 0.172723 3.76429 0.172723H0.0519961L0 0.39653C0.762117 0.547663 1.62802 0.791422 2.15262 1.05224C2.47366 1.21157 2.56521 1.35084 2.67068 1.72945L4.4106 7.88H6.71625L10.2511 0.172723L7.96004 0.17282Z" fill="url(#paint0_linear_366_4816)"/>
<defs>
<linearGradient id="paint0_linear_366_4816" x1="1241.3" y1="23.9838" x2="1262.38" y2="-794.449" gradientUnits="userSpaceOnUse">
<stop stop-color="#222357"/>
<stop offset="1" stop-color="#254AA5"/>
</linearGradient>
</defs>
</svg>
