<svg width="23" height="15" viewBox="0 0 23 15" fill="none" xmlns="http://www.w3.org/2000/svg">
<path d="M8.39014 1.51367H14.609V12.6402H8.39014V1.51367Z" fill="#FF5F00"/>
<path d="M8.78544 7.07695C8.78544 4.81629 9.85151 2.81111 11.4901 1.51364C10.2859 0.570067 8.76575 0 7.10739 0C3.17849 0 0 3.16492 0 7.07695C0 10.9889 3.17849 14.1539 7.1073 14.1539C8.76566 14.1539 10.2858 13.5838 11.4901 12.6402C9.85151 11.3624 8.78544 9.3376 8.78544 7.07695Z" fill="#EB001B"/>
<path d="M23.0003 7.07695C23.0003 10.9889 19.8218 14.1539 15.893 14.1539C14.2347 14.1539 12.7145 13.5838 11.5103 12.6402C13.1686 11.3428 14.215 9.3376 14.215 7.07695C14.215 4.81629 13.1488 2.81111 11.5103 1.51364C12.7145 0.570067 14.2347 0 15.893 0C19.8218 0 23.0003 3.18462 23.0003 7.07695Z" fill="#F79E1B"/>
</svg>
