<svg width="48" height="53" viewBox="0 0 48 53" fill="none" xmlns="http://www.w3.org/2000/svg">
<path d="M23.3817 0.268395L23.1133 0.547094V4.43855V8.33L23.3817 8.6087C23.7739 8.99062 24.5171 8.99062 24.9093 8.6087L25.1777 8.33V4.43855V0.547094L24.9093 0.268395C24.6926 0.05163 24.5377 1.90735e-05 24.1455 1.90735e-05C23.7533 1.90735e-05 23.5984 0.05163 23.3817 0.268395Z" fill="#033329"/>
<path d="M3.79883 8.14422C3.47884 8.47453 3.39627 9.00096 3.61303 9.42417C3.77819 9.74415 8.04124 14.0175 8.37155 14.2033C9.39344 14.7401 10.3947 13.7388 9.85794 12.7169C9.67214 12.3866 5.39877 8.12358 5.07878 7.95842C4.65557 7.74166 4.12914 7.82423 3.79883 8.14422Z" fill="#033329"/>
<path d="M43.1874 7.95836C42.8674 8.13384 38.594 12.4072 38.4289 12.7169C38.0366 13.4601 38.4908 14.3478 39.265 14.3478C39.4714 14.3478 39.7398 14.2962 39.8636 14.2342C40.1836 14.0691 44.457 9.80603 44.6428 9.47572C45.0454 8.7222 44.5809 7.84482 43.7861 7.84482C43.5693 7.84482 43.3009 7.90675 43.1874 7.95836Z" fill="#033329"/>
<path d="M21.8224 12.0357C18.8909 12.4486 16.7542 13.0473 14.3388 14.1414C10.0654 16.0717 5.62692 19.5502 2.17932 23.6688C0.125209 26.1255 0.0426313 26.3938 0.950981 27.6222C1.85933 28.8608 3.5212 30.7498 4.80115 31.9988C9.63192 36.7057 14.7207 39.5236 20.3154 40.5971C21.3579 40.7933 21.8534 40.8242 24.1449 40.8242C26.8906 40.8242 27.5305 40.752 29.564 40.2462C33.5174 39.2656 37.4811 37.1702 41.1971 34.0838C42.5183 32.9897 44.9853 30.5227 46.1104 29.1808C48.1645 26.7241 48.2471 26.4558 47.3388 25.2274C46.4304 23.9888 44.7686 22.0998 43.4886 20.8508C38.5856 16.082 33.5174 13.2847 27.8092 12.2215C26.9215 12.0564 22.6172 11.9222 21.8224 12.0357ZM26.8802 14.3066C32.1342 15.0291 37.4295 17.9193 42.157 22.6572C43.726 24.2159 45.4085 26.1771 45.4085 26.4248C45.4085 26.8996 41.579 30.9356 39.6281 32.5252C32.2478 38.5224 24.7126 40.1842 17.1465 37.4798C13.2963 36.107 9.55966 33.6297 6.0811 30.1408C4.55342 28.6234 2.88123 26.6725 2.88123 26.4248C2.88123 26.1667 4.57406 24.2055 6.13271 22.6572C9.59063 19.1993 13.3169 16.7323 17.1465 15.3698C20.4702 14.1827 23.5255 13.8524 26.8802 14.3066Z" fill="#033329"/>
<path d="M21.78 17.3928C21.2536 17.5373 20.6962 17.7231 20.562 17.8057C20.0665 18.136 19.9736 18.9101 20.3762 19.385C20.7375 19.8185 21.0781 19.8495 22.1413 19.5501C23.9167 19.065 25.8676 19.2611 27.4778 20.0972C28.4997 20.6236 29.9448 22.0687 30.4713 23.0906C31.5344 25.1344 31.5344 27.7253 30.4919 29.7174C28.6442 33.227 24.3296 34.5792 20.8097 32.7522C19.7878 32.2257 18.3427 30.7806 17.8163 29.7587C17.1866 28.5407 17.0008 27.6633 17.0421 25.9292L17.0731 24.4428L16.7325 24.1435C16.3505 23.8028 15.9376 23.7616 15.4732 23.999C14.9777 24.257 14.9158 24.4841 14.8745 26.1666C14.8435 27.5498 14.8641 27.8182 15.1016 28.7162C15.9583 32.0606 18.5182 34.6205 21.8419 35.4669C23.2354 35.8178 25.0521 35.8178 26.4456 35.4669C29.7693 34.6205 32.3396 32.0503 33.186 28.7265C33.5369 27.333 33.5369 25.5163 33.186 24.1228C32.3396 20.7991 29.7693 18.2289 26.4456 17.3825C25.0521 17.0315 23.1735 17.0315 21.78 17.3928Z" fill="#033329"/>
<path d="M17.1863 20.4997C16.9696 20.7165 16.918 20.8713 16.918 21.2636C16.918 21.6558 16.9696 21.8106 17.1863 22.0274C17.4031 22.2442 17.5579 22.2958 17.9502 22.2958C18.3424 22.2958 18.4973 22.2442 18.714 22.0274C18.9308 21.8106 18.9824 21.6558 18.9824 21.2636C18.9824 20.8713 18.9308 20.7165 18.714 20.4997C18.4973 20.283 18.3424 20.2313 17.9502 20.2313C17.5579 20.2313 17.4031 20.283 17.1863 20.4997Z" fill="#033329"/>
<path d="M22.7295 22.4921C21.6457 22.8946 20.8715 23.5965 20.3451 24.6701C20.0871 25.1862 20.0664 25.341 20.0664 26.4248C20.0664 27.5293 20.0871 27.6532 20.3657 28.2312C20.758 29.026 21.5425 29.8105 22.3373 30.2027C22.9153 30.4814 23.0392 30.5021 24.1437 30.5021C25.2481 30.5021 25.372 30.4814 25.95 30.2027C26.7448 29.8105 27.5293 29.026 27.9216 28.2312C28.2003 27.6532 28.2209 27.5293 28.2209 26.4248C28.2209 25.3204 28.2003 25.1965 27.9216 24.6184C27.5293 23.8236 26.7448 23.0392 25.95 22.6572C25.4133 22.3889 25.1965 22.3476 24.2985 22.3166C23.483 22.296 23.1527 22.3372 22.7295 22.4921ZM25.052 24.6597C25.7436 25.0107 26.1049 25.6197 26.1049 26.4248C26.1049 27.5706 25.2894 28.386 24.1437 28.386C22.9979 28.386 22.1824 27.5706 22.1824 26.4248C22.1824 25.2791 22.9773 24.4739 24.123 24.4636C24.4636 24.4636 24.8146 24.5359 25.052 24.6597Z" fill="#033329"/>
<path d="M8.40222 39.6473C8.08224 39.8228 3.80886 44.0962 3.64371 44.4058C3.25147 45.149 3.70564 46.0367 4.4798 46.0367C4.68625 46.0367 4.95462 45.9851 5.07849 45.9232C5.39848 45.758 9.67185 41.495 9.85765 41.1647C10.2602 40.4112 9.79572 39.5338 9.00091 39.5338C8.78414 39.5338 8.51577 39.5957 8.40222 39.6473Z" fill="#033329"/>
<path d="M38.584 39.8332C38.264 40.1635 38.1814 40.6899 38.3982 41.1131C38.5633 41.4331 42.8264 45.7065 43.1567 45.8923C43.8999 46.2845 44.7876 45.8304 44.7876 45.0562C44.7876 44.8498 44.7257 44.5607 44.6431 44.4059C44.4573 44.0756 40.1839 39.8126 39.8639 39.6474C39.4407 39.4306 38.9143 39.5132 38.584 39.8332Z" fill="#033329"/>
<path d="M23.3817 44.2408L23.1133 44.5195V48.411V52.3024L23.3817 52.5811C23.7739 52.963 24.5171 52.963 24.9093 52.5811L25.1777 52.3024V48.411V44.5195L24.9093 44.2408C24.6926 44.024 24.5377 43.9724 24.1455 43.9724C23.7533 43.9724 23.5984 44.024 23.3817 44.2408Z" fill="#033329"/>
</svg>
